<svg fill="none" xmlns="http://www.w3.org/2000/svg" viewBox="0 0 640 182">
  <path fill="#FF4F4F" d="M0 102h556v24H0z"/>
  <path fill="#FF8E4F" d="M0 126h556v24H0z"/>
  <path fill="#FFB84F" d="M0 150h556v24H0z"/>
  <rect x="91" y="94.198" width="549" height="87.74" rx="40.11" fill="#000"/>
  <circle cx="198.796" cy="57.849" r="47.63" fill="#fff"/>
  <path d="M185.429.989c6.417-1.098 11.394.034 14.928 3.397 2.746 2.574 4.05 5.817 3.913 9.73-.138 4.05-1.768 7.533-4.891 10.45-2.608 2.402-5.937 3.964-9.987 4.684-.48.069-.926.12-1.338.155h-.875c-.172 0-.326.017-.463.051-.138 0-.241.052-.309.155a3.178 3.178 0 00-.103.514c-.927 5.183-1.39 7.877-1.39 8.083 0 .446-.223.652-.669.617h-7.979c-.378 0-.584-.086-.618-.257-.034-.172.068-.806.309-1.905.206-.995.377-1.87.514-2.625 1.751-8.923 3.175-16.593 4.273-23.01.378-1.888.618-2.832.721-2.832.068.034.12.051.154.051 5.594-.034 8.477-.017 8.649.052.103.034.12.206.051.515-2.025 10.227-3.037 15.512-3.037 15.855.069.171.206.24.412.206 1.578-.378 2.934-1.064 4.066-2.06 1.167-1.029 2.025-2.196 2.574-3.5.584-1.338.893-2.745.927-4.221.069-1.476-.12-2.849-.566-4.118-.446-1.27-1.201-2.386-2.265-3.346-1.03-.961-2.282-1.562-3.758-1.802-2.025-.343-4.05-.034-6.075.926-2.024.961-3.517 2.042-4.478 3.244-.927 1.2-1.133 1.99-.618 2.368.824.583 1.338 1.407 1.544 2.47.206 1.03-.017 1.991-.669 2.883-.618.858-1.596 1.356-2.934 1.493-.961.069-1.836-.206-2.625-.823-.755-.652-1.167-1.459-1.236-2.42-.034-.172-.103-.55-.206-1.133a13.991 13.991 0 01-.103-1.39c.069-1.75.498-3.363 1.287-4.838a11.629 11.629 0 013.243-3.707 19.857 19.857 0 014.427-2.47 24.63 24.63 0 015.2-1.442zm-4.53 30.218c.034.068.103.085.206.051-.069-.069-.138-.086-.206-.051zm.308 1.03c0-.035.018-.07.052-.104h-.052c-.034.034-.034.069 0 .103zm-.154-1.597c0-.034.017-.068.052-.103.102-.171.137-.308.102-.412l-.102-.205a9.093 9.093 0 00-.103.103h-.103v.154c-.069.172-.069.292 0 .36.068.035.12.069.154.103zm2.78-15.7c-.103-.07-.172-.104-.206-.104l-.103.104c0 .034.017.068.051.102l.103.052c.035 0 .052-.017.052-.052.034-.068.069-.102.103-.102zM182.34 31.36h-.103l.052.052h.051v-.052zm-.824-8.597a.641.641 0 00.361 0c-.069-.069-.189-.069-.361 0zm.515 10.502l.206-.103c.103-.103.189-.172.257-.206a.574.574 0 00-.103-.155.6.6 0 00-.102-.154c0-.034-.018-.052-.052-.052-.206.275-.309.43-.309.464l.103.206zm.772-8.443l.103.052c0-.035.035-.137.103-.31l-.154.155c-.035.035-.052.069-.052.103zm.618 2.677c0-.034.017-.069.052-.103 0-.034-.018-.051-.052-.051v-.103c-.034.103-.034.189 0 .257zm-.412-2.934c.343.034.498-.12.464-.463l-.155-.155c-.206.378-.309.584-.309.618zm.772-4.17c.241-.034.361-.223.361-.566v-.154c0-.172-.103-.395-.309-.67-.034 0-.069.017-.103.052-.275.206-.412.36-.412.463 0 .206-.051.463-.154.772l.617.103zm1.081-6.795a72.415 72.415 0 01-.205-.154l-.309.206h.103c.068.034.12.068.154.102.103-.068.189-.12.257-.154zm.155 5.096l-.155-.154c-.068-.103-.154-.103-.257 0-.069.069-.12.103-.154.103l.103.103c.103.103.188.12.257.051l.206-.103zm-.669 9.884c.068-.069.068-.137 0-.206a.215.215 0 000 .206zm.103-7.361c.137.137.223.206.257.206s.24-.086.618-.258a1.614 1.614 0 00-.309-.103.5.5 0 00-.258-.103 2.94 2.94 0 01-.308.258zm1.338-1.133v-.051l-.051.051h.051zm9.215.515l.154-.154-.103-.103c-.069-.035-.12-.017-.154.051l-.052.052c0 .034.017.068.052.103l.103.051zm.206 1.853l.051-.051c-.034 0-.051-.017-.051-.052 0 .035-.018.052-.052.052l.052.051zm.978-13.538c.137-.07.188-.12.154-.155l-.515-.772-.206.154c.138.31.258.584.361.824 0 .034.017.051.051.051a.61.61 0 00.155-.102zm2.265 2.985l.257.206c.034 0 .12-.051.257-.154-.205-.103-.377-.12-.514-.052zm.36-1.184l.309-.154a2.041 2.041 0 01-.309-.258c-.137.138-.206.224-.206.258l.206.154zm28.936 5.663c.069.137.017.292-.154.463-.172.172-.686.618-1.544 1.339-.515.446-.927.806-1.236 1.08-.309.24-.669.55-1.081.927-.652.55-1.064.858-1.235.927-.138.069-.292.017-.464-.155l-.309-.308a1.21 1.21 0 00-.411-.258 1.188 1.188 0 00-.412-.103 3.407 3.407 0 00-.464-.154 3.087 3.087 0 00-.411-.103c-1.476-.412-2.952.086-4.428 1.493l-.205.206c-.927.892-1.545 1.784-1.854 2.677-.274.892-.806 3.62-1.595 8.184-.241 1.305-.429 2.334-.567 3.09-.068.342-.12.685-.154 1.029-.034.343-.069.617-.103.823l-.103.515c0 .172-.017.309-.052.412a.46.46 0 01-.051.206c-.034.069-.086.103-.154.103a.46.46 0 01-.206.051c-.069.035-.189.052-.361.052-5.422 0-8.202-.017-8.339-.052-.069-.034-.086-.171-.052-.412 0-.034.155-.806.464-2.316.309-1.51.686-3.398 1.132-5.663.446-2.265.892-4.547 1.339-6.846.446-2.334.84-4.427 1.184-6.28.343-1.888.549-3.09.617-3.604.035-.378.086-.583.155-.618.068-.068.291-.103.669-.103H215.24c.309 0 .481.086.515.258.034.137-.017.497-.155 1.08-.102.481-.188.876-.257 1.185l.052.257c.205-.069.737-.377 1.595-.927a14.472 14.472 0 012.832-1.39 7.763 7.763 0 013.191-.463c2.334.138 3.913 1.27 4.736 3.398zm-20.282 13.178c-.034 0-.069-.017-.103-.051-.069-.034-.12-.034-.154 0a9.997 9.997 0 00-.103.103l.154.154.206-.206zm-.566-1.647l-.052.051c.035 0 .052.018.052.052l.051-.052-.051-.051zm-.206 5.457l.566.309.36-.31a4.562 4.562 0 01-.463-.257 4.562 4.562 0 01-.463.258zm.823-9.627l.206.155.309-.155-.36-.206-.155.206zm1.39-2.728c.069.069.138.086.206.051-.034-.068-.103-.085-.206-.051zm2.059 4.427a.22.22 0 00.206 0 .22.22 0 00-.206 0zm.361-4.015v-.103h-.052c0 .034.017.068.052.103zm0-3.964c.034-.069.034-.154 0-.258-.069.104-.069.19 0 .258zm.309.154v-.051c.034-.035.051-.069.051-.103h-.051c0-.034-.017-.052-.052-.052-.034.07-.017.138.052.206zm.309 2.368l.051-.051c-.034 0-.051-.017-.051-.052l-.052.052.052.051zm1.338.052l-.103-.31c-.515.172-.841.327-.978.464.172.069.309.069.412 0l.103.103a.837.837 0 00.206.052.398.398 0 00.154-.052c.069-.068.137-.154.206-.257zm21.711-6.59c3.741-.823 6.83-.669 9.266.464 2.437 1.098 3.964 2.797 4.582 5.096.652 2.265.789 4.668.412 7.207-.378 2.54-1.459 4.96-3.243 7.259-1.751 2.265-3.896 3.86-6.435 4.787-2.746.927-5.217 1.15-7.413.67-2.162-.481-3.964-1.545-5.405-3.192-1.407-1.648-2.214-3.621-2.42-5.92-.412-4.256.412-7.86 2.471-10.81 2.059-2.987 4.788-4.84 8.185-5.56zm-8.7 16.577v-.052h-.051c0 .034.017.052.051.052zm18.584-11.068c-.103-.172-.206-.206-.309-.103l-.051.051.103.103c.068.035.103.069.103.103l.154-.154zm-17.194 7.722l.258.257.206-.155c-.172-.102-.326-.137-.464-.102zm1.03-2.265a1.1 1.1 0 00.257-.206l-.566-.567c-.103.103-.154.172-.154.206.034 0 .188.189.463.567zm.257 9.06c.275.137.429.206.464.206.034 0 .154-.103.36-.31l-.103-.154c-.103.035-.24.086-.412.155a1.62 1.62 0 00-.309.103zm.824-9.678l.206-.103c-.034-.035-.052-.069-.052-.103v-.052l-.205.103.051.155zm8.134 7.721c.755-.686 1.389-1.578 1.904-2.676.515-1.099.841-2.214.978-3.346.172-1.167.12-2.283-.154-3.347-.137-.446-.481-.84-1.03-1.184-.514-.343-1.115-.549-1.801-.617-.652-.103-1.356.034-2.111.412-.721.377-1.321.995-1.802 1.853-.343.686-.617 1.475-.823 2.368-.206.892-.292 1.887-.258 2.985.069 1.099.326 2.094.772 2.986.378.755.996 1.201 1.854 1.339.858.137 1.681-.12 2.471-.773zm5.044-1.801l.103-.103.052-.052a.612.612 0 01-.155-.103c-.068.138-.068.223 0 .258zm.567-5.92l.257-.618c0-.034-.069-.137-.206-.309a.825.825 0 00-.206.154c-.137.138-.206.224-.206.258s.035.12.103.257l.258.258zm.411-5.972c0-.034.069-.085.206-.154-.034-.137-.068-.223-.103-.258l-.257.258.052.103.102.051zm.979 3.346a56.61 56.61 0 00-.155-.154l-.309.154c.138.069.292.069.464 0zm-.412 9.163h.103c.137-.034.223-.085.257-.154v-.103h-.206l-.154.257zm.412-.257c.137 0 .308-.017.514-.051a2.16 2.16 0 00-.36-.103l-.154.154zm1.544-6.486l.206.206.257-.206c-.137-.069-.291-.069-.463 0zm47.988 4.118c.206.137.498.309.875.515.995.618 1.579 1.012 1.75 1.184.172.171.189.377.052.618-.137.206-.326.514-.566.926-.241.378-.464.72-.67 1.03-.171.309-.36.583-.566.823-.995 1.339-2.248 2.523-3.758 3.552-1.475 1.03-2.985 1.768-4.53 2.214-1.51.446-2.934.446-4.273 0-1.338-.446-2.316-1.39-2.934-2.831a9.708 9.708 0 01-.772-3.552c-.034-1.27.069-2.386.309-3.346.274-.996.515-2.025.721-3.09.24-1.097.377-2.041.411-2.83.069-.79-.12-1.63-.566-2.523-.137-.24-.394-.377-.772-.412a1.747 1.747 0 00-1.081.258c-.721.446-1.75 1.39-3.089 2.831-.206.24-.377.755-.515 1.544-.102.79-.274 2.214-.514 4.273a131.123 131.123 0 01-.772 6.126c-.412 2.47-.67 3.74-.773 3.81a.712.712 0 01-.309.05h-5.456c-1.51 0-2.403-.016-2.677-.05-.24 0-.36-.087-.36-.258h-.052c0-.378.446-2.797 1.339-7.258 1.475-7.07 1.527-10.81.154-11.223-.961-.274-2.574.875-4.839 3.45-.172.17-.292.428-.36.771-.927 4.565-1.682 8.7-2.265 12.407-.172 1.064-.292 1.698-.361 1.904-.034.172-.154.258-.36.258h-.103a30.64 30.64 0 01-1.802-.052h-1.699c-.514.035-.926.052-1.235.052h-1.081c-1.476 0-2.334-.035-2.574-.103-.24-.035-.326-.206-.257-.515v-.103c.446-2.196.943-4.633 1.493-7.31.549-2.711.926-4.633 1.132-5.765.24-1.133.498-2.42.772-3.861.275-1.442.464-2.488.566-3.14.138-.687.258-1.407.361-2.162a71.97 71.97 0 00.36-2.162c.035-.344.103-.55.206-.618.103-.103.326-.155.669-.155 5.457-.034 8.237-.017 8.34.052.068.034.086.137.051.309l-.412 2.522a100.937 100.937 0 012.523-1.493c.583-.343 1.338-.669 2.265-.978.961-.309 1.87-.446 2.728-.412 2.54.103 4.204 1.304 4.994 3.604.103.274.24.412.411.412.172 0 .395-.103.67-.31.309-.205.635-.463.978-.771.377-.31.823-.635 1.338-.978a12.079 12.079 0 011.699-.979c.583-.309 1.27-.549 2.059-.72a8.185 8.185 0 012.42-.258c2.127.069 3.62.961 4.478 2.677.892 1.682 1.133 3.724.721 6.126-.172.892-.378 1.922-.618 3.089l-.515 2.42c-.068.48-.103 1.046-.103 1.698 0 .618.103 1.253.309 1.905.138.48.378.789.721.926.343.138.738.103 1.184-.103a7.555 7.555 0 001.544-1.03c.481-.411.858-.788 1.133-1.132.309-.377.583-.72.823-1.03.241-.343.429-.583.567-.72.171-.137.326-.172.463-.103zm-40.719 1.75c0 .035-.017.069-.052.103l-.103.103c.035 0 .069.017.103.052.035.034.069.051.103.051l.103-.154-.154-.155zm-.361-1.544a55.81 55.81 0 01-.051.051c0 .035.017.052.051.052 0-.034.018-.052.052-.052-.034 0-.052-.017-.052-.051zm-.36-3.604h-.051c.034.035.068.052.103.052v-.052h-.052zm-.154-.308c-.035.034-.035.068 0 .103v-.052l.051-.051h-.051zm.257 9.678c.309.034.618-.052.927-.258l-.309-.206c-.035-.034-.137-.034-.309 0-.172 0-.326.017-.463.052 0 .034-.052.12-.155.257.172.103.275.154.309.154zm.824-9.936l.206.155c.034 0 .137-.052.308-.155l-.308-.206-.206.206zm1.544-2.42l.103-.205-.103-.155-.103.103c-.034.035-.051.069-.051.103l.051.052c.069.034.103.068.103.103zm1.905 4.119a.22.22 0 00.206 0c-.035-.034-.103-.034-.206 0zm.36-4.067c.034 0 .052-.017.052-.051h-.052-.051l.051.051zm0-3.912l.052-.103-.052-.052v-.051a.22.22 0 000 .206zm.309.154l.051-.051v-.103a56.011 56.011 0 01-.051-.052.22.22 0 000 .206zm.36 2.368v-.051l-.051-.052-.052.052c.035.034.069.051.103.051zm.309.31h.103c.343.034.549.05.618.05.069-.034.12-.12.154-.257l.103-.309a16.22 16.22 0 00-1.132.36l.154.155zm10.244-1.7c-.171.275-.274.43-.309.464 0 .034.018.085.052.154l.103.103a.458.458 0 00.206.052l.515-.206a1.78 1.78 0 00-.361-.36l-.206-.207zm-1.75 10.862c-.069.103-.086.19-.051.258l.154-.155-.051-.051-.052-.052zm.103 4.53c0-.034.017-.068.052-.103h-.052c-.034.035-.034.07 0 .103zm.515-10.758l.103-.052c.068-.069.086-.137.051-.206l-.206-.051a.626.626 0 00-.103.154c-.103.172-.137.292-.103.36l.103.206c.069-.24.12-.377.155-.412zm.36-5.406a.592.592 0 01.155-.103c.103-.068.085-.223-.052-.463l-.154-.309a2.112 2.112 0 00-.103.36l.154.515zm.566 12.767c.103-.034.515-.24 1.236-.618l-.103-.154c-.137-.069-.36-.069-.669 0-.275.034-.464.103-.567.206a.557.557 0 00-.102.308.46.46 0 00.051.206c.069.035.12.052.154.052zm.052-9.215h.309c.034 0 .154-.068.36-.206a3.18 3.18 0 01.566-.308c.275-.138.275-.292 0-.464-.034 0-.24-.069-.617-.206l-.155.052c-.446.652-.6 1.03-.463 1.132zm1.39 6.744c.103-.137.189-.24.257-.309a1.51 1.51 0 00-.206-.154c-.103.205-.154.326-.154.36l.103.103zm-.052-8.854c.172-.103.292-.19.361-.258-.103-.068-.172-.086-.206-.051l-.309.154c0 .034.017.069.051.103.035.035.069.052.103.052zm.618 7.258a.598.598 0 01.154-.103.56.56 0 01-.102-.206c-.035 0-.052-.017-.052-.051a35.6 35.6 0 00-.154.103l.154.257zm-.206-2.883c.034 0 .086.035.155.103.068.069.137.12.205.155.275-.172.447-.275.515-.31l-.206-.102c-.206-.137-.36-.155-.463-.052l-.206.206zm.515 2.523c-.034.274.051.377.257.309.035-.035.189-.103.464-.206a8.445 8.445 0 01-.464-.36c-.034 0-.085.034-.154.102a.599.599 0 01-.103.155zm3.14-5.869a.64.64 0 00.36 0c-.068-.068-.188-.068-.36 0zm8.957 10.708a.544.544 0 00.103-.206l-.103-.052c-.068-.068-.103-.12-.103-.154l-.103.257.206.155zm.309-6.435l.052-.052a.398.398 0 00.051-.154l-.154-.052-.155.104c.035.034.103.085.206.154zm.361 10.656l.051-.052c-.034 0-.051-.017-.051-.051 0 .034-.018.051-.052.051v.052h.052zm.205-.36l.155.102a3.56 3.56 0 01.36-.257l-.309-.154-.206.309zm-.308-2.163l.36.31c.034 0 .206-.104.515-.31l-.052-.154-.566-.103-.257.257zm.72-2.368l.309-.617c0-.035-.051-.086-.154-.155-.069-.068-.138-.103-.206-.103l-.309.36c.034.104.086.224.154.361.103.103.172.154.206.154zm1.442-8.287c.034-.07-.018-.24-.155-.515a3.17 3.17 0 00-.257-.567 53.512 53.512 0 01-.772-.875c-.069.275-.086.464-.052.567.034.068.24.497.618 1.287.103.171.171.257.206.257a.558.558 0 00.412-.154zM175.612 42.661a191.1 191.1 0 006.281 0c1.476 0 2.231.069 2.265.206 0 .034-.017.12-.052.257v.103c-.274 1.202-1.372 6.864-3.294 16.988-1.888 10.09-3.055 16.645-3.501 19.665v.051c0 .138-.086.223-.257.258-.172.034-.772.034-1.802 0h-3.655c-.789.034-1.39.034-1.802 0-.377 0-.823-.017-1.338-.052-.515 0-.892-.034-1.133-.103-.24-.069-.36-.171-.36-.309-.206-.892-1.132-4.976-2.78-12.251-1.613-7.276-2.488-10.965-2.625-11.068-.069.103-.292 1.184-.669 3.243a2792.54 2792.54 0 00-1.287 6.95c-.481 2.573-.927 4.976-1.339 7.206a427.52 427.52 0 00-.72 4.273c-.069.275-.12.55-.155.824-.034.24-.051.429-.051.566 0 .103-.017.223-.052.36a.544.544 0 01-.103.206c0 .034-.051.069-.154.103a.846.846 0 01-.258.052h-.411c-5.32 0-8.048-.017-8.185-.052-.103-.103-.121-.292-.052-.566 1.064-5.491 1.922-9.884 2.574-13.178a520.842 520.842 0 001.338-7.002c.241-1.338.412-2.333.515-2.985.103-.687.258-1.579.464-2.677.205-1.133.497-2.677.875-4.633.068-.24.085-.43.051-.566-.034-.172-.154-.19-.36-.052-2.162 1.304-3.501 2.831-4.015 4.582-.138.514-.018.892.36 1.132.892.515 1.441 1.304 1.647 2.368.24 1.064.052 2.076-.566 3.037-.549.893-1.373 1.425-2.471 1.596-1.098.138-2.008-.034-2.728-.515-1.613-.995-2.3-3.397-2.06-7.206.103-1.648.653-3.192 1.648-4.634a12.847 12.847 0 013.655-3.552 21.646 21.646 0 014.684-2.213c1.682-.55 3.295-.84 4.839-.875.343 0 1.03-.017 2.059-.052 1.03-.034 1.836-.068 2.42-.103.068 0 .189.035.36.103.172.035.292.052.36.052.275-.035.447.068.515.309.103.24.309 1.064.618 2.47.034.207.446 2.128 1.235 5.766a932.02 932.02 0 012.523 11.377c.892 3.946 1.39 6.108 1.493 6.486.377-1.098 1.458-6.59 3.243-16.473a208.96 208.96 0 001.081-6.64c.206-1.373.36-2.18.463-2.42.103-.275.326-.412.669-.412zm-21.929 30.887h.051c0-.034-.017-.052-.051-.052l-.052.052h.052zm-.206-1.596l.309-.103a.79.79 0 01-.206-.154.626.626 0 00-.103-.155c0-.034-.017-.068-.052-.103-.103.138-.085.31.052.515zm8.236-26.563l-.257.258.051.103a.592.592 0 00.155-.103c.069-.069.12-.103.154-.103a.574.574 0 00-.103-.155zm-.617.773l-.206-.103c-.069-.069-.155-.052-.258.051a.574.574 0 01-.103.154c.172.103.292.138.361.103l.206-.205zm-.721-.412c-.103-.069-.189-.052-.257.051l.154.103a.6.6 0 00.103-.154zm-2.317.154c-.24.275-.36.43-.36.463l.257.206.309-.309a2.148 2.148 0 01-.103-.257c-.034-.069-.068-.103-.103-.103zm-1.338-1.132a.6.6 0 00-.103.154c.103.069.189.069.257 0l-.103-.103-.051-.051zm.36 2.882c-.034 0-.103-.034-.206-.103a.498.498 0 00-.257-.102c-.034-.035-.103-.035-.206 0-.069 0-.12.034-.154.102-.069.138-.086.24-.052.31.069.034.155.102.258.205.137.069.223.137.257.206.034.035.412-.034 1.133-.206v-.103a1.168 1.168 0 00-.412-.206 4.872 4.872 0 01-.361-.103zm-.669-3.037c-.103-.034-.189-.034-.257 0l.103.103.051-.051c.034-.035.069-.052.103-.052zm-2.419 19.51a.64.64 0 00.36 0c-.069-.068-.189-.068-.36 0zm.463 10.605l.36-.412c.035-.034-.017-.137-.154-.309l-.103.103c-.137.137-.189.275-.155.412 0 .069.018.137.052.206zm.309-2.008c0 .035.017.052.051.052v-.052-.051l-.051.051zm.823-6.846c.138-.138.224-.206.258-.206l-.103-.103c0-.069-.017-.103-.052-.103l-.205.154.102.258zm.721-4.17c.034 0 .172-.172.412-.515l-.103-.412c-.172-.309-.292-.48-.36-.514-.172-.035-.326.068-.464.308a2.28 2.28 0 00-.308.721c-.069.24-.069.36 0 .36.514.07.789.086.823.052zm-.463-4.376l.051.052v-.052h-.051zm.824.618c-.035.034-.035.069 0 .103v-.051c0-.035.017-.052.051-.052h-.051zm.257 4.633l.309.206.566-.257-.515-.258-.154.155a1.51 1.51 0 00-.206.154zm0-2.522a.599.599 0 01.103.154c.137.103.257.12.36.052a.808.808 0 01.206-.155 3.008 3.008 0 00-.309-.412l-.36.36zm1.338 1.39v-.052c-.034 0-.051.017-.051.052h.051zm4.17-10.09c.24-.137.326-.343.257-.618a.584.584 0 00-.205-.206.657.657 0 00-.309-.154.97.97 0 00-.309-.052H161.404c-.308 0-.446.12-.411.36 0 .172-.069.275-.206.31-.206.034-.326-.07-.361-.31 0-.034.018-.085.052-.154.137-.343 0-.515-.412-.515-.309 0-.377-.154-.206-.463.103-.274.343-.326.721-.154.034 0 .154-.017.36-.052-.171-.24-.309-.377-.412-.412-.274-.068-.429-.326-.463-.772-.034-.309.12-.463.463-.463l.103-.155c-.137-.137-.274-.188-.412-.154-.343.034-.566.034-.669 0-.068-.069-.154-.274-.257-.618a1.141 1.141 0 01-.103-.515c0-.205-.034-.36-.103-.463a1.154 1.154 0 00-.206-.412c-.034 0-.12.069-.257.206-.069.103-.035.19.103.258.171.377.223.617.154.72-.24.721-.137 1.236.309 1.545.034 0 .034.085 0 .257l-.103.052c0-.138-.086-.172-.257-.103-.138.034-.223.017-.258-.052-.137-.103-.257-.137-.36-.103-.103.035-.172.12-.206.258 0 .206-.172.411-.515.617-.412.275-.652.6-.721.978-.034.344.018.687.155 1.03.171.343.24.55.206.618-.035.206-.035.326 0 .36.034.034.137.069.309.103.412.034.6.24.566.618-.034.377-.257.515-.669.412-.206-.07-.292-.018-.258.154 0 .206.035.377.103.515a.948.948 0 010 .617c-.034.207-.137.327-.309.36-.137 0-.36.087-.669.258a2.84 2.84 0 01-.669.258c-.137 0-.36-.086-.669-.258-.035 0-.12.017-.258.052l.155.154c.034.31.257.6.669.875.412.275.652.464.721.567l.206-.155c.514-.274.875-.172 1.081.309.137.309.532.463 1.184.463l-.103-.412a3.15 3.15 0 00-.258-.205 1.448 1.448 0 00-.309-.258l-.308-.154a1.14 1.14 0 00-.361-.155.64.64 0 00-.36 0c-.24 0-.429-.051-.566-.154-.103-.137-.12-.309-.052-.515.069-.24.258-.309.566-.206.344.103.721.24 1.133.412.412.172.909.154 1.493-.052l-.052-.617c-.034-.48.086-.755.361-.824.274-.069.583-.051.926.052.343.068.618-.086.824-.464v-.36a1.614 1.614 0 00-.412.309l-.206.206a.848.848 0 01-.206-.052c-.068-.034-.188-.137-.36-.309l-.206-.102c-.069.137-.292.274-.669.411-.343.138-.532.343-.566.618l-.515.206.051-.463c0-.035.017-.069.052-.103.034-.138.051-.223.051-.258a.215.215 0 000-.206c-.034-.103-.12-.171-.257-.206-.035-.034-.052-.12-.052-.257s.017-.257.052-.36c0-.035.051-.086.154-.155.103-.103.155-.188.155-.257.034-.206.137-.326.309-.36.171-.035.274-.018.308.051.103.137.344.24.721.309.378.069.618.206.721.412 0 .034.086.068.257.103-.034-.55 0-.858.103-.927.412-.206.669-.137.772.206 0 .034.206.086.618.154-.206-.583-.206-.926 0-1.03zm.515 4.633c.034 0 .068-.017.103-.052.034-.068.068-.103.103-.103-.138-.102-.258-.12-.361-.051.069.103.121.172.155.206zm16.318-8.237l.052.052v-.052h-.052zm-1.544 3.45c-.034.034-.034.05 0 .05l.052-.05h-.052zm-.257-2.832l-.206.103.051.154h.103c.035-.034.052-.068.052-.102v-.052-.103zm-1.442 7.156c-.068.102-.051.188.052.257l.103-.154h-.052c-.034-.035-.068-.07-.103-.103zm-.309 1.03a.217.217 0 00-.205 0c0 .033.034.05.102.05h.052l.051-.05zm0 5.97l-.051-.05v.05l.051.052v-.051zm-.669 1.185c0 .034-.017.051-.051.051.034 0 .051.017.051.052h.052v-.052l-.052-.051zm-1.235 4.22c-.069 0-.172.155-.309.464l.051.052h.155a1.79 1.79 0 00.772-.36c-.172-.172-.395-.224-.669-.155zm-3.243 3.913l-.155.206.155.154.103-.103-.103-.257zm-3.038-10.038a5.17 5.17 0 00.052-.052l-.052-.051-.051.051v.052h.051zm1.236 15.032a.219.219 0 00.206 0l-.155-.052-.051.052zm1.647-2.78l.206-.36c-.172-.721-.274-1.099-.309-1.133-.309.171-.48.292-.515.36-.034.034-.034.155 0 .36.035.035.052.103.052.206l.103.206c.034.31.189.43.463.36zm.258 2.677v-.052h.051l-.051-.051-.052.051c.034 0 .052.017.052.052zm.411-5.715l.155.155.154-.155c0-.034-.017-.068-.051-.103-.035-.034-.052-.068-.052-.102a.626.626 0 00-.103.154c-.034.034-.068.051-.103.051zm1.287 3.604c.241-.034.395-.103.464-.206a.834.834 0 00.154-.515c.034-.24.069-.394.103-.463l-.051-.206-.155.051c-.274.344-.669.378-1.184.103-.24-.137-.36-.085-.36.155s.086.429.257.566c.137.069.206.155.206.258a.22.22 0 010 .206c-.034.034-.086.12-.154.257l-.103.309.154.257.309-.309c.275-.309.395-.463.36-.463zm.773-2.625l.102-.155c0-.171-.137-.206-.411-.103-.035 0-.069.017-.103.052l.412.206zm.102 2.625h-.051v-.052l-.051.052v.051h.051l.051-.051zm-.154 3.089c.034.034.069.051.103.051.069.069.12.069.154 0 .035-.034.069-.051.103-.051-.103-.103-.171-.155-.206-.155l-.154.155zm.566-2.06l.206-.154c-.034-.034-.103-.154-.206-.36a.392.392 0 01-.154.051l-.103.258a.496.496 0 00.257.206zm-.206-3.397c-.034.069-.017.137.052.206l.051-.154h-.051c0-.035-.017-.052-.052-.052zm.773 1.596l.154.154c.034 0 .206-.103.515-.309-.103-.103-.172-.154-.206-.154l-.463.309zm.051-1.699c.103-.069.343-.292.721-.67.412-.377.617-.583.617-.617-.068-.034-.188-.137-.36-.309-.069.103-.103.172-.103.206-.068.24-.189.395-.36.463a.749.749 0 01-.463.052l-.515-.258-.258-.205c-.103-.035-.223-.12-.36-.258-.137-.137-.257-.206-.36-.206-.069-.034-.206-.017-.412.052-.035 0-.155.068-.361.206.241.103.378.154.412.154.446 0 .721.189.824.566a.806.806 0 00.206.31c.103.068.223.154.36.257.172.103.292.188.361.257h.051zm1.493-2.677c0-.137-.034-.223-.103-.257-.069-.069-.172-.103-.309-.103a.718.718 0 01-.309-.052l-.515.258.618 1.184c.378-.652.584-.995.618-1.03zm-.463-4.839c.171.138.343.292.514.464.069-.103.086-.19.052-.258 0-.069-.137-.171-.412-.309l-.154.103zm.566 1.75c.24.07.36.103.36.103l.155-.206a8.096 8.096 0 00-.464-.051l-.051.154zm.515-10.964c.034.034.154.137.36.309a.807.807 0 01.206-.155c.103-.069.171-.103.206-.103l-.463-.36-.309.309zm.411 4.17v-.052c0-.034-.017-.034-.051 0v.051h.051zm.309 3.191c-.034.137-.017.223.052.257 0-.034.017-.068.051-.103l.103-.102a.46.46 0 01-.206-.052zm.155 9.369c.034-.103.034-.172 0-.206a.215.215 0 000 .206zm.154-18.326h.155c.103 0 .154-.017.154-.052 0-.034.017-.086.052-.154.068-.069.154-.206.257-.412l-.052-.154c-.205.171-.377.308-.514.411a1.628 1.628 0 00-.206.258.598.598 0 00.154.103zm.566 11.891l.103.103.206-.103a54.36 54.36 0 01-.154-.103l-.155.103zm.464-16.215l.206.103c.103.034.188.068.257.103.103.034.189.068.257.102.241-.171.361-.274.361-.308 0-.035-.035-.103-.103-.206-.069-.103-.12-.138-.155-.103-.103 0-.377.103-.823.309zm.978 2.625c.068.069.137.086.206.051-.035-.068-.103-.085-.206-.051zm-21.724-2.11c.481.617.772 1.012.875 1.183a.46.46 0 01-.051.206.387.387 0 01-.052.155.574.574 0 01-.103.154c-.24.138-.617-.223-1.132-1.08l-.052-.104c-.068-.103-.068-.223 0-.36.035 0 .138-.086.309-.258.137.035.206.07.206.103zm1.441.977c.241-.24.378-.36.412-.36.035 0 .292.172.772.515a8.064 8.064 0 00-.36.257c-.171.138-.326.138-.463 0l-.155-.154-.206-.258zm2.214.103c0-.034.103-.171.309-.411.069.137.189.326.36.566l-.309.309c0-.035-.034-.052-.103-.052a.393.393 0 00-.154-.051l-.154-.155c-.035-.068-.018-.137.051-.206zm37.404 19.202c.24.137.463.274.669.412.241.137.292.343.155.617-.893 1.75-2.094 3.346-3.604 4.788-1.475 1.407-3.003 2.47-4.581 3.192-1.545.72-3.072 1.046-4.582.978-1.476-.07-2.66-.601-3.552-1.596-.892-.995-1.39-2.128-1.493-3.398a50.72 50.72 0 01-.206-3.037c0-.995.018-1.682.052-2.06.034-.411.103-1.097.206-2.058.137-.961.206-1.493.206-1.596.206-1.888.412-3.57.617-5.045.206-1.476.361-2.557.464-3.243.137-.72.257-1.304.36-1.75.103-.48.172-.824.206-1.03.034-.24.051-.446.051-.618 0-.24.052-.394.155-.463.103-.069.274-.086.515-.051 1.99 0 4.049-.018 6.177-.052 1.579 0 2.385.069 2.42.206 0 .034-.018.12-.052.257v.103c-1.647 7.173-2.522 11.978-2.625 14.414-.172 3.398.549 4.65 2.162 3.758.171-.103.309-.189.412-.257.137-.069.274-.155.411-.258.138-.103.241-.171.309-.206l.309-.308c.172-.138.292-.24.361-.31.068-.068.205-.222.411-.463.206-.24.361-.411.464-.514.103-.103.291-.326.566-.67.309-.343.549-.617.721-.823l.103-.103c.034-.034.068-.052.103-.052.068-.034.12-.034.154 0 .069 0 .12.017.154.052.069 0 .138.034.206.103.103.068.189.137.258.206.103.034.223.103.36.206.172.103.326.206.463.309.138.102.309.223.515.36zm-9.678-11.12c-.103.07-.137.155-.103.258l.206-.154-.103-.104zm.155 4.48l-.052-.052-.051.051c.034 0 .051.017.051.052l.052-.052zm-1.287 3.294c-.035-.035-.069-.035-.103 0 .034 0 .068.017.103.051v-.051zm-1.39-2.368l-.155.103c.069.068.138.154.206.257.172.206.292.309.361.309l.103.103c.068-.069.085-.137.051-.206-.034-.069-.223-.257-.566-.566zm.669 7.31c-.103-.069-.172-.103-.206-.103 0-.035-.017-.017-.051.051l-.052.052c.034.034.103.12.206.257.034 0 .069-.086.103-.257zm-2.008-6.847c-.034 0-.103.034-.206.103a12.42 12.42 0 01-.103.052c.138.068.275.051.412-.052l-.103-.103zm0 2.574a6.649 6.649 0 01-.257.463 2.22 2.22 0 01-.206.31v.257c0 .137.017.274.052.411.034.103.102.326.205.67l.206.257.103-.309a.78.78 0 01-.051-.618c.103-.24.189-.446.257-.617.103-.206.086-.515-.051-.927-.035.034-.086.051-.155.051l-.103.052zm1.133 7.052a.6.6 0 00.103-.154c0-.343-.12-.55-.361-.618-.24-.068-.549-.051-.926.052l-.206.051.257.103h.206c.103 0 .189.017.258.052a.46.46 0 01.206.051c.068 0 .12.034.154.103a.348.348 0 01.103.258l.206.102zm.36 2.729l.103-.103a.61.61 0 00.155-.103l-.052-.052a11.114 11.114 0 00-.103-.103c-.137.103-.206.172-.206.206l.103.155zm.721-1.339c.069-.034.154-.068.257-.103a.555.555 0 00.206-.103 1.52 1.52 0 00-.206-.154c-.206-.137-.377-.154-.514-.051l-.206.205c.034 0 .085.018.154.052.069.034.12.069.154.103a.4.4 0 00.155.051zm.154-2.676a.577.577 0 00.258.051c.103.034.257-.017.463-.154a.584.584 0 00.154-.103v-.052-.051c-.377.068-.669.171-.875.309zm1.184 1.08c.206.172.326.258.361.258.034 0 .086-.069.154-.206a7.904 7.904 0 01-.36-.257c-.035.103-.086.171-.155.206zm.567-22.701c-1.202.034-2.283-.395-3.244-1.287-.926-.927-1.338-2.008-1.235-3.243-.103-1.167.309-2.214 1.235-3.14.927-.962 2.042-1.442 3.347-1.442 1.407.034 2.505.532 3.294 1.493.824.96 1.236 2.008 1.236 3.14 0 1.133-.412 2.162-1.236 3.089-.823.926-1.956 1.39-3.397 1.39zm.772-4.53c0 .034-.017.051-.052.051l.052.052h.051v-.052l-.051-.051zm23.318 7.052c2.059.034 4.187.034 6.383 0 1.407 0 2.128.069 2.162.206a.849.849 0 01-.051.206v.051a310.869 310.869 0 00-2.78 13.642c-.789 4.359-1.321 7.344-1.596 8.957a24.44 24.44 0 01-1.287 4.633c-.583 1.545-1.424 3.02-2.522 4.428-1.648 2.127-3.638 3.534-5.972 4.22-2.333.687-4.787.481-7.361-.617a6.247 6.247 0 01-.927-.515 24.497 24.497 0 01-1.081-.772c-.412-.275-.703-.48-.875-.618-.24-.171-.275-.394-.103-.669.481-.858.995-1.767 1.544-2.728.378-.721.618-1.081.721-1.081.034 0 .086.034.155.103h.051c1.03.652 1.888.995 2.574 1.03.686.034 1.424-.19 2.213-.67.275-.206.55-.429.824-.67a5.05 5.05 0 00.721-.771c.24-.275.446-.55.618-.824a4.65 4.65 0 00.411-.824c.138-.24.241-.463.309-.669.103-.206.155-.377.155-.515-4.221 1.476-7.533.721-9.936-2.265-1.99-2.47-2.848-5.714-2.573-9.73.274-4.255 1.698-7.67 4.272-10.243 1.476-1.442 3.175-2.403 5.097-2.883 1.372-.378 2.659-.498 3.86-.36.378.034.721.085 1.03.154.309.034.583.103.824.206.274.069.497.137.669.206.206.069.394.154.566.257.206.069.343.12.412.155a1.3 1.3 0 01.309.154c.171.103.274.154.309.154.068 0 .103-.085.103-.257 0-.377.051-.652.154-.823.103-.172.309-.258.618-.258zM198.344 68.71l.154-.257c0-.035-.069-.138-.206-.31a1.625 1.625 0 01-.206.258l.155.155c.068.068.103.12.103.154zm.823-5.817c.069-.103.172-.223.309-.36a1.51 1.51 0 01-.154-.206c-.138.171-.206.274-.206.309l.051.257zm.824 8.854v-.103h-.051c0 .035.017.069.051.103zm.927-7.979c0 .034-.018.052-.052.052l.052.051c.034 0 .051-.017.051-.051l-.051-.052zm.051 1.699l.206-.36-.103-.206c-.103.24-.137.429-.103.566zm2.677 9.832v-.051c-.034 0-.069.017-.103.051h.103zm3.758 11.531a.393.393 0 00.154-.051h.052c0-.035-.017-.069-.052-.103v-.103c-.103.069-.171.103-.206.103l.052.154zm6.074-15.237c-.034-.103-.086-.138-.154-.103-.069 0-.24.12-.515.36 0 .034.052.155.154.36.138-.171.309-.377.515-.617zm-.617 6.28c0 .034-.035.069-.103.103-.138.172-.103.343.103.515 0 .034.034.034.102 0l.103-.103c0-.069-.068-.24-.205-.515zm-.155-4.324a.477.477 0 00-.309 0c.069.069.137.103.206.103l.052-.052.051-.051zm-.566.206l-.103-.052v.052h.103zm-7.67-14.877l-.103.103.051.051c.069.034.12.069.155.103.034-.103 0-.189-.103-.257zm3.706 14.568c1.544-.824 2.317-1.888 2.317-3.192 0-.24.137-1.527.411-3.86.206-1.648.344-2.557.412-2.729.24-.824.052-1.51-.566-2.059-.583-.583-1.373-.824-2.368-.72-.961.068-1.802.531-2.523 1.39-.755.926-1.269 1.835-1.544 2.728-.583 2.333-.703 4.186-.36 5.56.343 1.372.909 2.316 1.699 2.83.823.481 1.664.498 2.522.052zm1.544 11.943l.052-.052h-.052c-.034 0-.034.018 0 .052zm0-2.986c.035-.034.052-.069.052-.103v-.051l-.052-.052a.22.22 0 000 .206zm1.39-7.361c-.068-.343-.274-.498-.617-.463-.344.102-.429.343-.258.72v.155c.034.034.052.085.052.154l.103.103c0 .034.12.172.36.412a.333.333 0 00.154-.155 40 40 0 00.206-.206l.155-.154-.155-.566zm-.926 8.133l.103-.103c-.035 0-.052-.017-.052-.051v-.052c-.068.035-.086.103-.051.206zm.72-4.736c-.034-.206-.017-.377.052-.514a1.28 1.28 0 01.463-.36c.206-.138.326-.224.36-.258 0-.034-.034-.069-.102-.103-.035-.034-.069-.052-.103-.052 0-.034-.052-.051-.155-.051a1.56 1.56 0 00-.463-.052 8.96 8.96 0 00-.721-.103c-.034 0-.068.052-.103.155v.206a.495.495 0 01.206.257c.069.069.103.189.103.36v.31c0 .034.086.222.257.566.138-.206.206-.326.206-.36zm.258-4.787c.412.48.669.6.772.36 0-.034.017-.068.051-.103v-.103c-.343-.103-.617-.154-.823-.154zm1.235 2.162c-.137-.103-.257-.12-.36-.052.103.103.171.19.206.258a.81.81 0 01.154-.206zm.669 4.89c.069-.034.189-.12.361-.257-.481-.206-.807-.275-.978-.206l-.258.258c.343.137.635.205.875.205zm.515-3.963c0-.035-.017-.24-.051-.618.034-.034.086-.052.154-.052l-.257-.206c-.206-.034-.361.12-.464.464-.102.309-.12.514-.051.617.034.138.137.172.309.103.206-.103.326-.206.36-.308zm-.103-18.43l.103.155.155-.052a.625.625 0 00-.103-.154l-.155.051zm1.853 4.479a2.452 2.452 0 01-.308.36c.068.069.137.155.206.258l.102.154.155-.154c.103-.103.086-.24-.052-.412l-.103-.206zm-.617 7.361l-.206.412.206.052c.103-.138.103-.292 0-.464zm-.155 1.648l-.103.103c-.068.068-.085.171-.051.309l.051.205.206.103.103-.206c.035-.102 0-.24-.103-.411l-.103-.103zm-.566-7.825a.22.22 0 00-.206 0 .22.22 0 00.206 0zm1.236 13.9v-.104c-.755-.206-1.167-.309-1.236-.309-.034 0-.103.069-.206.206.069.035.206.069.412.103.206.034.36.103.463.206.103.069.155.189.155.36h.257c.034-.034.086-.188.155-.463zm.772-9.576c.137-.103.206-.171.206-.206.034-.068-.035-.171-.206-.309-.172-.137-.343-.206-.515-.206-.172-.034-.275.052-.309.258-.034.069-.017.137.052.206.102.068.223.137.36.206.137.034.274.051.412.051zm.463 7.825c.034-.069.069-.103.103-.103l-.052-.052v-.051c-.068.034-.085.103-.051.206zm.051-14.311l.103-.103c.035-.034.052-.069.052-.103h-.052c-.034-.034-.068-.051-.103-.051-.068.068-.068.154 0 .257zm.206.36c.035 0 .086.017.155.052.137.103.257.12.36.051l.206-.103-.412-.309-.309.31zm36.138 8.443c.377.206.463.497.257.875a17.548 17.548 0 01-3.346 4.478c-1.338 1.305-2.728 2.3-4.17 2.986-1.441.686-2.848 1.098-4.221 1.236-1.373.171-2.591-.069-3.655-.721-1.029-.687-1.75-1.75-2.162-3.192-.378-1.235-.515-2.625-.412-4.17.137-1.544.361-2.848.669-3.912.344-1.098.567-2.248.67-3.449.137-1.235.017-2.145-.361-2.728-.206-.412-.515-.635-.926-.67-.378-.034-.79.086-1.236.361-.412.275-.823.583-1.235.927-.378.343-.738.72-1.081 1.132-.103.103-.395 1.424-.875 3.964-.447 2.505-.893 5.028-1.339 7.567-.412 2.505-.652 4.016-.721 4.53-.034.275-.24.412-.617.412l-8.34-.051c-.24-.103-.326-.292-.257-.567.583-2.951 1.235-6.211 1.956-9.78.721-3.604 1.218-6.178 1.493-7.722.309-1.545.738-3.895 1.287-7.053a605.06 605.06 0 002.007-11.788v-.052c.069-.309.275-.48.618-.514.343-.035 1.527-.052 3.552-.052 1.75.034 3.278.051 4.582.051.309 0 .48.103.515.31.034.171-.035.617-.206 1.338a28.973 28.973 0 00-.309 1.544 497.465 497.465 0 01-1.648 8.288c-.274 1.373-.377 2.128-.308 2.265v.155c.034 0 .068-.018.103-.052.068-.069.12-.103.154-.103 1.682-1.064 3.295-1.733 4.839-2.008 1.544-.308 2.934-.12 4.17.567 1.269.686 2.145 1.887 2.625 3.603.275 1.099.343 2.282.206 3.552-.103 1.236-.309 2.351-.618 3.346-.274.961-.48 2.06-.618 3.295-.137 1.201-.103 2.282.103 3.243.309 1.27 1.047 1.579 2.214.927a8.499 8.499 0 002.059-1.545c.652-.686 1.133-1.252 1.441-1.698.309-.48.481-.721.515-.721.138 0 .309.069.515.206.206.137.412.291.618.463.24.137.497.309.772.515.274.171.515.309.721.412zm-21.982-17.246l-.051-.051c-.034-.069-.086-.103-.154-.103-.035 0-.103.052-.206.154 0 0 .051.07.154.206a1.75 1.75 0 01.257-.206zm-2.265-4.993c-.068.206-.085.326-.051.36l.154.155.155-.154c0-.035-.086-.155-.258-.36zm0 2.368l-.154.206.206.052c.343-.206.583-.378.721-.515.206-.172.188-.292-.052-.36-.137-.035-.274.017-.412.154a4.826 4.826 0 00-.309.463zm.258 4.273c-.034-.035-.069-.035-.103 0 .034 0 .069.017.103.051v-.051zm-.824-7.722c-.068.069-.086.137-.051.206h.051l.052-.051c0-.035-.018-.07-.052-.103v-.052zm-.412 5.302a2.008 2.008 0 00-.257.103c-.069 0-.137.035-.206.103-.034.069-.034.155 0 .258 0 .034.137.188.412.463a1.51 1.51 0 00.154-.206c.069-.103.12-.189.155-.257l-.258-.464zm-.514 5.148c-.275.652-.412 1.27-.412 1.853.034-.034.103-.051.206-.051.171-.034.274-.052.309-.052.034-.034.034-.103 0-.206a2.133 2.133 0 01-.052-.823l.103-.309a8.102 8.102 0 00-.154-.412zm-.979 2.11c-.034.035-.034.07 0 .104v-.052a5.17 5.17 0 00.052-.051h-.052zm-.257 7.105l-.051.051-.052.052c.103.171.172.274.206.309a.499.499 0 00.257-.103c-.171-.172-.291-.275-.36-.31zm-2.471 1.493c.103-.172.12-.326.052-.464-.138.172-.206.275-.206.31l.154.154zm1.133 8.7c.068.068.137.085.206.05-.035-.068-.103-.085-.206-.05zm.309-5.2c.137.034.24.017.308-.051-.103-.069-.171-.103-.206-.103l-.102.154zm-.155-6.898l.103.103c.069.103.137.137.206.103h.206c-.206-.172-.326-.257-.36-.257l-.155.051zm1.133 8.442a.568.568 0 01.257-.051c.103-.069.223-.206.36-.412a.625.625 0 01.103-.154c-.377.137-.652.274-.823.411l-.052.103c0 .035.052.07.155.103zm1.081-10.81c-.172.446-.258.704-.258.772 0 .069.12.31.361.72l.206-.823c0-.034.017-.051.051-.051l.051-.052a1.087 1.087 0 00-.205-.257 2.291 2.291 0 01-.206-.309zm.051 11.994l.155-.103c0-.034-.052-.137-.155-.308a.436.436 0 000 .411zm.155-9.111l.103-.103c.068-.069.12-.103.154-.103l-.103-.103a27.978 27.978 0 00-.051-.052c-.138.138-.206.224-.206.258l.103.103zm.154-8.288c.034 0 .172-.052.412-.155a.555.555 0 00-.515-.051l.103.206zm1.235 6.126l.052-.052-.052-.051-.051.051.051.052zm1.184-3.5c.103-.104.069-.241-.102-.413-.138-.206-.258-.309-.361-.309a1.75 1.75 0 00-.618.31 1.42 1.42 0 00-.36.411c-.103.138-.257.43-.463.875l.206.36c.549-.377 1.115-.789 1.698-1.235zm.206-1.288c.069.069.189.069.361 0a.641.641 0 00-.361 0zm-.051-.566a.582.582 0 00.206-.206l.257-.257c-.309-.206-.48-.258-.515-.155l-.205.258a.6.6 0 00.102.154.574.574 0 01.103.154l.052.052zm.721-1.75l.051-.206c0-.035-.103-.137-.309-.309a1.558 1.558 0 00-.051.257l.309.258zm.617-.103v-.103h-.051c0 .034.017.069.051.103zm.052-.206c.068-.069.086-.137.051-.206 0-.069-.103-.12-.309-.154l-.103.154c.069.034.189.103.361.206zm6.898 4.684v-.154a.433.433 0 00-.052-.36.333.333 0 00-.154-.155.854.854 0 01-.051.258c-.035.137 0 .24.102.308l.155.103zm.103 5.509c.137.171.257.326.36.463 0-.035.017-.069.052-.103a.626.626 0 00.103-.154.575.575 0 01.103-.155c-.241-.103-.378-.154-.412-.154l-.206.103zm.566 3.758l.155-.206c0-.035-.086-.138-.258-.31-.034.138 0 .31.103.516zm.515-13.333c.069-.035.086-.103.051-.206-.068.068-.085.137-.051.206zm.721 7.979c0-.035.017-.069.051-.103.103-.138.103-.24 0-.31a.337.337 0 00-.154-.153 5.52 5.52 0 00-.052.411l.155.155zm.205-2.626a.565.565 0 01.206-.103 1.51 1.51 0 00.206-.154c-.274-.206-.429-.309-.463-.309l-.36.309c.103.069.24.154.411.257zm1.339 11.737h-.052v.052l.103.051c-.034-.034-.051-.068-.051-.103zm.103.206l.051-.051h-.051a3.027 3.027 0 00-.052-.052v.052l.052.051zm2.316-11.428c-.103-.103-.154-.137-.154-.103l-.154.155.051.051c.069.034.12.034.154 0l.103-.103zm22.478 8.185c.343.172.412.43.206.772-2.059 3.741-4.736 6.35-8.031 7.825-2.986 1.373-5.474 1.39-7.464.052-2.231-1.51-3.02-4.359-2.368-8.546v-.36c.034-.24.068-.584.103-1.03.034-.446.068-.944.103-1.493.068-.583.137-1.235.206-1.956.068-.72.137-1.458.206-2.213.103-.755.206-1.562.308-2.42.138-.892.275-1.733.412-2.522.309-1.956.601-3.741.875-5.354.275-1.613.498-2.917.67-3.912.171-1.03.326-1.922.463-2.677.172-.79.292-1.373.36-1.75.069-.378.12-.687.155-.927.068-.275.12-.446.154-.515a.86.86 0 00.052-.257v-.258c.034-.274.223-.412.566-.412 1.682 0 3.552-.017 5.611-.051 1.99 0 3.003.069 3.037.206.035.069.035.172 0 .309l-.051.103c-.103.446-.429 2.025-.978 4.736-.069.343.085.514.463.514H263.651c.308-.034.429.12.36.464a55.313 55.313 0 01-.309 2.162c-.172 1.133-.309 1.819-.412 2.06-.068.24-.257.342-.566.308-1.819-.137-2.746-.155-2.78-.052 0 .103-.086.584-.257 1.442a84.057 84.057 0 01-.464 2.11c-.103.55-.257 1.356-.463 2.42a90.525 90.525 0 00-.515 2.78 80.3 80.3 0 01-.411 2.728 30.807 30.807 0 00-.258 2.728c-.034.79-.069 1.562-.103 2.317 0 .72.052 1.338.155 1.853.137.515.308.892.514 1.133.309.377.67.446 1.081.206.172-.07.344-.138.515-.206.206-.103.361-.172.464-.206.102-.069.24-.172.411-.31.206-.136.412-.308.618-.514a36.953 36.953 0 002.162-2.42l.361-.36c.068-.068.137-.103.205-.103.069-.034.172 0 .309.103l.412.31c.172.102.412.274.721.514.343.206.703.429 1.081.67zm-8.288-20.54c-.069.069-.086.138-.052.206.069-.068.086-.137.052-.206zm-.258-1.647a.804.804 0 00-.205.154c-.103.035-.103.155 0 .36l.103.207.257-.412c0-.034-.052-.137-.155-.309zm.052 2.06c-.275.17-.429.257-.463.257l.103.102c.137.138.291.104.463-.102l-.103-.258zm-2.78 3.345h-.051l.051.052v-.052zm0 5.663a.64.64 0 00-.36 0c.068.069.189.069.36 0zm-1.441-6.126c-.035.103-.035.172 0 .206l.051-.103c0-.034-.017-.052-.051-.052v-.051zm-1.339 11.788l-.103-.154-.257.154a.599.599 0 01.103.155l.103-.103a.396.396 0 01.154-.052zm-.36 3.038c-.24.206-.275.394-.103.566.275.275.498.206.669-.206 0-.034.052-.206.155-.515 0-.034-.035-.085-.103-.154a2.587 2.587 0 01-.155-.258 8.449 8.449 0 00-.36.31.387.387 0 01-.052.154c-.034.034-.051.068-.051.103zm.206 1.493a.818.818 0 00-.155.206c.035 0 .069.017.103.05.035 0 .069.018.103.052l.103-.154c0-.034-.051-.086-.154-.154zm.926 4.272l-.051-.051v-.103c-.446.068-.738.12-.875.154l.206.103h.36c.137-.034.258-.068.36-.103zm.258.515c.034-.034.051-.069.051-.103l-.051-.051v-.052a.22.22 0 000 .206zm.926-9.317c-.411-.344-.634-.515-.669-.515 0-.035-.051-.052-.154-.052.034.069.068.155.103.258.137.206.292.343.463.411l.257-.103zm-.154 6.949c.069-.103.069-.257 0-.463-.137.103-.206.171-.206.206l.206.257zm-.309 5.302a1.12 1.12 0 01.206-.257l-.257-.103-.155.206.052.051c.068.035.12.069.154.103zm.618-1.39c.103-.034.257-.103.463-.206a.556.556 0 00-.206-.103c-.206-.171-.377-.205-.514-.102l-.206.205c.068.035.154.07.257.103a.555.555 0 01.206.103zm.36-2.625c.172-.034.395-.086.669-.154 0-.035-.017-.07-.051-.103v-.103a4.778 4.778 0 01-.669.257v.052l.051.051zm1.287-14.414c-.206.137-.326.24-.36.309 0 .069.017.172.051.309.275-.24.429-.378.464-.412l-.103-.103-.052-.103zm.155 4.633c-.035-.034-.069-.034-.103 0h.103zm-.052 11.068l.103-.206a2.577 2.577 0 00-.36-.257c-.069.103-.103.171-.103.206 0 .034.12.12.36.257zm.566-21.21c.138-.308.275-.6.412-.874l-.257-.103c-.549-.069-.927-.275-1.133-.618l-.411-.206c-.103.172-.035.326.205.464a.544.544 0 01.103.205.64.64 0 01.155.258l.154.309c.069.103.138.188.206.257l.566.309zm0-4.323c.103.068.189.068.258 0-.069-.035-.155-.035-.258 0zm.309-1.648a.607.607 0 01.155-.102c.103-.07.086-.224-.052-.464l-.154-.309a2.117 2.117 0 00-.103.36c0 .035.051.207.154.515z" fill="#000"/>
  <path d="M150.881 117.796c2.487 0 4.886.363 7.197 1.087 1.019.314 1.704.47 2.056.47.412 0 1.244-.215 2.498-.646a3.97 3.97 0 011.263-.206c1.097 0 2.144.647 3.143 1.939 1.606 2.096 2.409 4.368 2.409 6.816 0 2.017-.578 3.535-1.733 4.553-.803.725-1.773 1.087-2.909 1.087-1.155 0-2.281-.411-3.378-1.234-.333-.254-1.146-1.175-2.438-2.761-2.135-2.644-4.612-3.966-7.433-3.966-2.644 0-4.739 1.038-6.286 3.114-1.352 1.802-2.027 4.201-2.027 7.197 0 4.681 1.194 8.657 3.584 11.928a10.71 10.71 0 004.024 3.319c.94.431 1.929.646 2.967.646 1.136 0 2.018-.411 2.644-1.233a3.776 3.776 0 00.823-2.38c0-.92-.274-1.586-.823-1.998a1.524 1.524 0 00-.969-.323h-1.351c-.862 0-1.567-.284-2.116-.852-.528-.548-.793-1.234-.793-2.056 0-1.293.725-2.282 2.174-2.967 2.115-1.038 5.2-1.557 9.254-1.557 3.271 0 6.052.352 8.343 1.057 2.135.647 3.202 1.841 3.202 3.584 0 .764-.264 1.401-.793 1.91a3.312 3.312 0 01-1.851.852c-.666.098-1.097.235-1.292.411-.216.216-.441.735-.676 1.557-.901 3.173-2.546 5.778-4.935 7.814-1.841 1.567-4.054 2.742-6.64 3.526a24.184 24.184 0 01-7.021 1.028c-4.23 0-8.147-.989-11.751-2.967-3.682-2.017-6.482-4.838-8.402-8.461-1.605-3.016-2.408-6.198-2.408-9.547 0-3.702.959-7.149 2.879-10.341 2.056-3.427 4.906-6.071 8.548-7.932 3.232-1.645 6.904-2.468 11.017-2.468zm38.457 13.69v17.068c0 1.391.117 2.38.352 2.967.235.607.735 1.195 1.498 1.763 1.019.725 1.528 1.469 1.528 2.233 0 2.546-3.222 3.819-9.665 3.819-3.408 0-6.12-.275-8.137-.823-.745-.196-1.342-.587-1.792-1.175a2.336 2.336 0 01-.529-1.528c0-.587.205-1.116.617-1.586.117-.137.577-.49 1.38-1.058.431-.332.725-.665.882-.998.176-.333.342-.901.499-1.704.196-1.175.294-2.38.294-3.614 0-1.606-.069-3.623-.206-6.051-.078-1.058-.254-1.773-.529-2.145-.215-.294-.626-.578-1.233-.852-1.234-.548-1.851-1.332-1.851-2.35 0-1.253.793-2.184 2.379-2.791 1.743-.666 3.8-1.302 6.17-1.909 2.82-.745 5.072-1.117 6.756-1.117 1.058 0 1.587.617 1.587 1.851zm-5.846-12.867c1.645 0 3.006.323 4.083.969.979.588 1.469 1.43 1.469 2.527 0 1.527-.754 2.732-2.262 3.613-2.409 1.391-5.337 2.086-8.784 2.086-1.312 0-2.409-.274-3.29-.823-1.136-.705-1.704-1.703-1.704-2.996 0-1.273.783-2.37 2.35-3.29.94-.568 2.213-1.058 3.819-1.469 1.587-.411 3.026-.617 4.319-.617zm21.947 11.016c1.018 0 1.655.206 1.909.617.157.235.323 1.117.5 2.644.098.862.391 1.293.881 1.293.411 0 .793-.284 1.146-.852 1.547-2.468 3.593-3.702 6.14-3.702 1.782 0 3.241.588 4.377 1.763.528.529.959 1.224 1.292 2.086.392.92.588 1.802.588 2.644 0 1.234-.372 2.477-1.116 3.731-1.293 2.213-3.232 3.319-5.817 3.319a5.728 5.728 0 01-3.202-.94c-.431-.294-1.087-.871-1.969-1.733-.411-.411-.803-.617-1.175-.617-.509 0-.852.313-1.028.94-.176.529-.264 1.91-.264 4.142 0 3.428.166 5.553.499 6.375.157.353.333.607.529.764.176.157.656.352 1.439.587 1.763.51 2.644 1.44 2.644 2.791 0 1.352-.734 2.341-2.203 2.967-1.371.588-4.436.882-9.195.882-4.72 0-7.765-.519-9.136-1.557-.803-.607-1.205-1.332-1.205-2.174 0-1.038.598-1.959 1.792-2.762.94-.626 1.479-1.38 1.616-2.262.313-1.821.47-5.121.47-9.9 0-.842-.108-1.498-.323-1.968-.157-.353-.539-.646-1.146-.881-1.39-.529-2.086-1.322-2.086-2.38 0-1.077.676-2.007 2.027-2.791 1.881-1.097 4.671-1.968 8.373-2.614 1.567-.275 2.781-.412 3.643-.412zm30.525 5.788v9.43c0 3.917.049 6.267.147 7.05.157.862.656 1.469 1.498 1.822.764.333 1.244.626 1.44.881.254.352.381.764.381 1.234 0 1.018-.568 1.851-1.703 2.497-1.176.666-3.859.999-8.05.999-3.701 0-6.326-.284-7.873-.852a4.739 4.739 0 01-1.645-1.087c-.509-.549-.764-1.156-.764-1.822 0-.548.245-1.008.735-1.38.117-.098.528-.294 1.234-.588.763-.333 1.233-1.244 1.41-2.732.313-2.566.47-6.355.47-11.369 0-4.25-.108-6.972-.324-8.167-.215-1.273-.558-2.183-1.028-2.732-.235-.294-.607-.597-1.116-.911-.803-.47-1.322-.861-1.557-1.175-.392-.509-.588-1.067-.588-1.674 0-.96.5-1.841 1.499-2.644 1.508-1.195 4.641-2.203 9.4-3.026 2.292-.392 3.908-.587 4.848-.587 1.547 0 2.32.93 2.32 2.79 0 .725-.098 2.204-.293 4.436a222.26 222.26 0 00-.441 9.607zm13.457-5.993c1.058 0 2.673.225 4.847.675.451.098.823.147 1.117.147.313 0 .959-.186 1.938-.558.451-.176.852-.264 1.205-.264.862 0 1.753.577 2.673 1.733a13.301 13.301 0 012.086 3.672c.294.823.441 1.577.441 2.262 0 .784-.314 1.449-.94 1.998-.529.45-1.166.675-1.91.675-.725 0-1.449-.225-2.174-.675-.352-.235-1.106-.911-2.262-2.027-1.292-1.214-2.35-1.822-3.173-1.822-.568 0-1.057.226-1.468.676a1.996 1.996 0 00-.529 1.381c0 .901.92 1.792 2.761 2.673 3.467 1.645 6.003 3.271 7.609 4.877 1.488 1.508 2.233 3.329 2.233 5.464 0 2.722-1.195 4.994-3.584 6.815-2.076 1.587-4.593 2.38-7.55 2.38-.745 0-2.145-.127-4.201-.382-1.9-.215-2.967-.323-3.202-.323-.216 0-.5.029-.852.088-.549.078-.95.118-1.205.118-.94 0-1.674-.235-2.203-.706-.783-.685-1.518-1.792-2.203-3.319-.705-1.567-1.058-2.967-1.058-4.201 0-1.018.274-1.763.823-2.233.293-.254.714-.382 1.263-.382.607 0 1.292.333 2.056.999.274.235 1.068 1.048 2.38 2.438.979 1.058 1.762 1.714 2.35 1.969.45.196.901.294 1.351.294.745 0 1.293-.206 1.645-.617.333-.392.5-.813.5-1.264 0-.881-.754-1.684-2.262-2.409-2.742-1.351-4.818-2.751-6.228-4.2-1.802-1.802-2.703-3.908-2.703-6.317 0-2.33.715-4.338 2.145-6.022 2.056-2.409 4.818-3.613 8.284-3.613zm39.223-11.634c1.998 0 4.632.5 7.903 1.499.411.117.744.176.998.176.177 0 .754-.176 1.734-.529.333-.117.666-.176.999-.176 1.39 0 2.859 1.185 4.406 3.554 1.293 1.979 1.939 3.81 1.939 5.494 0 1.155-.372 2.115-1.116 2.879-.666.685-1.42 1.028-2.262 1.028-.862 0-1.724-.303-2.586-.911-.176-.137-1.038-.92-2.585-2.35-2.35-2.193-4.661-3.29-6.933-3.29-1.096 0-1.958.255-2.585.764-.685.548-1.028 1.263-1.028 2.144 0 1.665 1.508 2.948 4.524 3.849 4.113 1.194 6.708 2.056 7.785 2.585 5.014 2.428 7.52 6.003 7.52 10.723 0 4.171-1.703 7.579-5.111 10.223-3.506 2.703-8.05 4.054-13.631 4.054-3.663 0-7.227-.539-10.693-1.616-1.959-.607-3.252-1.224-3.878-1.851-.842-.842-1.606-2.399-2.292-4.671-.548-1.801-.822-3.525-.822-5.17 0-.92.196-1.625.587-2.115.49-.627 1.107-.94 1.851-.94s1.469.372 2.174 1.116c.392.431 1.351 1.822 2.879 4.172.901 1.39 2.36 2.428 4.377 3.114 1.41.47 2.742.705 3.995.705 1.508 0 2.752-.314 3.731-.94.764-.49 1.146-1.136 1.146-1.939 0-.725-.352-1.4-1.058-2.027-.607-.529-1.762-1.058-3.466-1.587-3.427-1.096-5.905-2.095-7.432-2.996-2.684-1.567-4.72-3.525-6.111-5.875-1.077-1.822-1.616-3.722-1.616-5.7 0-2.467.784-4.769 2.351-6.903 1.527-2.057 3.642-3.682 6.345-4.877 2.507-1.077 5.161-1.616 7.961-1.616zm34.609 2.262l-.265 9.195a134.694 134.694 0 00-.058 4.055c0 1.938.029 3.104.088 3.495.137.803.548 1.205 1.234 1.205.431 0 1.194-.313 2.291-.94 1.508-.842 2.262-1.459 2.262-1.851 0-.235-.225-.646-.676-1.234-.313-.411-.47-.803-.47-1.175 0-.685.353-1.302 1.058-1.851 1.175-.881 3.447-1.322 6.815-1.322 1.802 0 3.516.167 5.141.5 2.272.47 3.408 1.537 3.408 3.202 0 .529-.166.96-.499 1.292-.353.353-1.175.657-2.468.911-.529.098-1.508.568-2.938 1.41-1.625.94-2.438 1.587-2.438 1.939 0 .784 1.861 3.535 5.582 8.255 1.704 2.154 2.957 3.584 3.76 4.289.431.372 1.116.813 2.056 1.322 1.411.784 2.116 1.665 2.116 2.644 0 .96-.441 1.763-1.322 2.409-.823.607-2.057.911-3.702.911h-9.489c-1.214-.02-2.154-.46-2.82-1.322l-4.877-6.258c-1.312-1.684-2.056-2.614-2.232-2.79-.372-.412-.656-.617-.852-.617-.372 0-.558.901-.558 2.702 0 .705.127 1.332.382 1.881.137.313.558.754 1.263 1.322.509.411.764 1.018.764 1.821 0 .881-.382 1.674-1.146 2.379-1.116.999-3.692 1.499-7.726 1.499-4.191 0-6.894-.177-8.108-.529-.666-.176-1.254-.588-1.763-1.234a2.958 2.958 0 01-.646-1.88c0-.725.411-1.351 1.234-1.88.724-.451 1.175-.793 1.351-1.028.196-.235.352-.608.47-1.117.45-2.8.666-7.031.646-12.691v-6.433c0-2.468-.186-3.996-.558-4.583-.255-.353-.734-.588-1.439-.705-1.626-.235-2.439-.911-2.439-2.027 0-1.234 1.136-2.331 3.408-3.29 1.293-.568 3.026-1.185 5.2-1.851 3.192-.979 5.66-1.469 7.403-1.469.489 0 .881.147 1.175.441.255.254.382.538.382.852v.146zm41.776 9.372c3.389 0 6.268.861 8.637 2.585 1.41 1.018 2.36 2.252 2.85 3.701.352 1.078.529 2.439.529 4.084 0 .313-.02 1.43-.059 3.349v1.234c0 2.115.117 3.78.352 4.994.177.94.529 1.567 1.058 1.88.137.078.499.166 1.087.264.627.098.94.49.94 1.175 0 1.332-.666 2.664-1.998 3.996-1.919 1.899-4.142 2.849-6.668 2.849-2.037 0-3.663-.724-4.877-2.174-.411-.509-.793-.763-1.145-.763-.373 0-.892.244-1.557.734-1.959 1.469-4.182 2.203-6.669 2.203-2.566 0-4.642-.548-6.228-1.645a7.987 7.987 0 01-2.321-2.585 7.811 7.811 0 01-1.057-3.937c0-2.017.822-3.819 2.467-5.405 2.585-2.468 6.424-3.711 11.516-3.731 1.136 0 1.822-.088 2.057-.264.352-.235.528-.774.528-1.616 0-1.821-.127-3.094-.382-3.819-.489-1.41-1.282-2.115-2.379-2.115-.509 0-.999.147-1.469.441-.45.274-1.058.949-1.821 2.027-1.763 2.487-3.584 3.73-5.465 3.73-1.038 0-1.831-.303-2.379-.91-.588-.627-.881-1.342-.881-2.145 0-1.292.665-2.546 1.997-3.76 1.41-1.273 3.467-2.34 6.169-3.202 2.449-.784 4.838-1.175 7.168-1.175zm-2.027 17.009c-.842 0-1.586.362-2.232 1.087-.647.686-.97 1.528-.97 2.526 0 .98.275 1.783.823 2.409.411.49.969.735 1.674.735 1.567 0 2.351-1.332 2.351-3.995 0-1.176-.128-1.939-.382-2.292-.255-.313-.676-.47-1.264-.47zm34.403-9.283v9.929c0 1.175.275 2.116.823 2.821.607.803 1.361 1.204 2.262 1.204.764 0 1.772-.362 3.026-1.087a1.75 1.75 0 01.911-.264c.45 0 .871.293 1.263.881.391.568.587 1.175.587 1.821 0 1.215-.666 2.39-1.997 3.526-2.801 2.369-6.16 3.554-10.077 3.554-3.016 0-5.483-.852-7.403-2.556-2.017-1.782-3.026-4.161-3.026-7.138v-13.572c0-.49-.068-.784-.205-.882-.079-.078-.343-.117-.793-.117h-3.026c-.588 0-.95-.098-1.087-.294-.137-.137-.216-.568-.235-1.293v-1.292c.019-.588.245-1.019.675-1.293l13.455-8.46c.333-.177.744-.265 1.234-.265h2.38c.47 0 .773.079.91.235.216.294.323.774.323 1.44v3.966c0 .587.089.959.265 1.116.215.196.617.294 1.204.294h5.435c.725 0 1.205.156 1.44.47.195.274.293.813.293 1.616v1.733c-.019.92-.147 1.557-.382 1.909-.293.392-.803.588-1.527.588h-5.317c-.568 0-.941.098-1.117.294-.196.215-.294.587-.294 1.116zm34.638 8.402h-13.807c-.607 0-.911.245-.911.734 0 .999.451 1.998 1.352 2.997 1.43 1.586 3.124 2.379 5.082 2.379 1.214 0 2.487-.245 3.819-.734.881-.353 1.626-.735 2.233-1.146.685-.49 1.204-.734 1.557-.734.529 0 1.028.313 1.498.94.509.666.764 1.322.764 1.968 0 1.391-.882 2.752-2.644 4.083-3.114 2.331-6.708 3.496-10.782 3.496-4.093 0-7.54-1.194-10.34-3.584-1.352-1.175-2.468-2.595-3.349-4.259-1.156-2.233-1.734-4.573-1.734-7.022 0-4.759 1.939-8.666 5.817-11.721 2.938-2.331 6.355-3.496 10.253-3.496 3.721 0 6.884 1.058 9.489 3.173a12.22 12.22 0 013.172 3.76c.921 1.645 1.381 3.271 1.381 4.877 0 1.253-.313 2.36-.94 3.319-.45.647-1.087.97-1.91.97zM419 140.064h2.967c1.254 0 1.88-.568 1.88-1.704 0-1.096-.313-1.978-.94-2.644-.607-.646-1.39-.969-2.35-.969-1.097 0-1.958.431-2.585 1.293-.588.822-.882 1.635-.882 2.438 0 .49.147.901.441 1.234.216.235.705.352 1.469.352zM458.429 120l14.63 12.837c1.39 1.215 2.399 1.822 3.025 1.822.255 0 .5-.127.735-.382.489-.509.734-1.42.734-2.732 0-2.742-.186-4.612-.558-5.611-.254-.666-.832-1.214-1.733-1.645-.783-.372-1.302-.754-1.557-1.146a2.875 2.875 0 01-.529-1.674c0-1.626 1.126-2.684 3.378-3.173.941-.196 2.615-.294 5.024-.294 2.84 0 4.828.176 5.964.529 1.801.568 2.702 1.616 2.702 3.143 0 1.254-.744 2.203-2.232 2.85-.705.313-1.176.617-1.411.91-.744 1.038-1.135 3.702-1.175 7.991v13.249c.02 1.351.03 2.262.03 2.732 0 3.271-.206 5.631-.617 7.08-.314 1.136-.823 1.939-1.528 2.409-.45.294-.891.441-1.322.441-.568 0-1.224-.196-1.968-.588-.176-.098-.783-.617-1.821-1.557l-17.421-15.599c-1.214-1.097-2.223-1.645-3.026-1.645-1.175 0-1.763 1.664-1.763 4.994 0 2.213.098 3.829.294 4.847.196.96.451 1.635.764 2.027.215.294.637.588 1.263.881 1.293.647 1.939 1.489 1.939 2.527 0 2.742-2.928 4.113-8.784 4.113-2.506 0-4.563-.363-6.169-1.087-1.449-.647-2.174-1.626-2.174-2.938 0-.705.235-1.312.705-1.821.137-.157.656-.5 1.557-1.029.921-.528 1.479-1.498 1.675-2.908.333-2.507.499-6.169.499-10.987 0-4.994-.294-8.647-.881-10.958-.255-.979-.607-1.684-1.058-2.115-.313-.313-.783-.627-1.41-.94-.861-.431-1.429-.803-1.704-1.116-.43-.49-.646-1.048-.646-1.675 0-.666.225-1.234.676-1.704 1.077-1.155 2.898-1.801 5.464-1.938a81.27 81.27 0 014.583-.118c1.469 0 2.595.137 3.378.411.705.235 1.528.764 2.468 1.587zm46.976 11.486v17.068c0 1.391.118 2.38.353 2.967.235.607.734 1.195 1.498 1.763 1.018.725 1.528 1.469 1.528 2.233 0 2.546-3.222 3.819-9.665 3.819-3.408 0-6.121-.275-8.138-.823-.744-.196-1.342-.587-1.792-1.175a2.341 2.341 0 01-.529-1.528c0-.587.206-1.116.617-1.586.118-.137.578-.49 1.381-1.058.431-.332.725-.665.881-.998.176-.333.343-.901.5-1.704.195-1.175.293-2.38.293-3.614 0-1.606-.068-3.623-.205-6.051-.079-1.058-.255-1.773-.529-2.145-.215-.294-.627-.578-1.234-.852-1.234-.548-1.851-1.332-1.851-2.35 0-1.253.794-2.184 2.38-2.791 1.743-.666 3.799-1.302 6.169-1.909 2.82-.745 5.073-1.117 6.757-1.117 1.057 0 1.586.617 1.586 1.851zm-5.846-12.867c1.645 0 3.006.323 4.084.969.979.588 1.468 1.43 1.468 2.527 0 1.527-.754 2.732-2.262 3.613-2.409 1.391-5.336 2.086-8.783 2.086-1.313 0-2.409-.274-3.291-.823-1.136-.705-1.703-1.703-1.703-2.996 0-1.273.783-2.37 2.35-3.29.94-.568 2.213-1.058 3.819-1.469 1.586-.411 3.026-.617 4.318-.617zm39.427 9.254c.45 0 .881.294 1.292.881.372.509.558 1.146.558 1.91 0 .842-.244 1.743-.734 2.702-.568 1.077-1.175 1.9-1.821 2.468-.451.411-.676.715-.676.911v.176c.098.764.147 1.341.147 1.733 0 2.272-.784 4.211-2.35 5.817-1.43 1.449-3.261 2.546-5.494 3.29a22.276 22.276 0 01-7.197 1.175c-.745 0-1.41-.039-1.998-.117a11.07 11.07 0 00-1.204-.088c-1.019 0-1.528.538-1.528 1.615 0 .47.215.882.646 1.234.686.568 1.645.852 2.879.852.96 0 2.194-.108 3.702-.323 3.172-.451 5.591-.676 7.256-.676 2.193 0 3.936.382 5.229 1.146 1.156.666 2.037 1.635 2.644 2.908.45.94.676 1.91.676 2.909 0 2.017-.725 3.956-2.174 5.816-1.704 2.174-4.24 3.79-7.609 4.848-2.644.842-5.68 1.263-9.107 1.263-4.328 0-7.853-.666-10.576-1.998-1.39-.705-2.497-1.694-3.319-2.967-.529-.803-.793-1.704-.793-2.703 0-.842.254-1.596.763-2.262.412-.548.911-.95 1.499-1.204.587-.255.881-.5.881-.735 0-.215-.245-.538-.734-.969-1.587-1.332-2.38-2.693-2.38-4.084 0-1.273.607-2.497 1.821-3.672.705-.685 1.41-1.204 2.115-1.557.471-.254.706-.489.706-.705 0-.274-.294-.685-.882-1.234-2.017-1.86-3.026-4.034-3.026-6.521 0-1.802.666-3.467 1.998-4.994 1.351-1.548 3.359-2.791 6.022-3.731 2.213-.784 4.378-1.175 6.493-1.175 1.469 0 3.829.313 7.08.94a8.285 8.285 0 001.733.176c1.253 0 2.526-.284 3.819-.852.646-.274 1.498-.832 2.556-1.674.47-.353.832-.529 1.087-.529zm-16.04 6.081c-.803 0-1.508.313-2.115.94-.725.744-1.087 1.782-1.087 3.114 0 1.645.254 3.192.763 4.641.549 1.587 1.479 2.38 2.791 2.38 1.077 0 1.91-.382 2.497-1.146.588-.783.882-1.85.882-3.202 0-1.978-.314-3.623-.94-4.935-.549-1.195-1.479-1.792-2.791-1.792zm-6.316 26.704c-.49 0-.735.284-.735.852 0 .881.382 1.654 1.146 2.32 1.234 1.058 3.094 1.587 5.582 1.587 1.566 0 2.927-.186 4.083-.558 1.391-.47 2.086-1.254 2.086-2.351 0-.568-.245-1.008-.735-1.322-.45-.293-.92-.44-1.41-.44-.294 0-.744.049-1.351.147a26.22 26.22 0 01-3.672.235l-4.994-.47zm39.367-40.6l-.382 12.309c-.019.451.04.872.177 1.264.215.626.607.94 1.175.94.489 0 .95-.323 1.381-.97 1.919-2.761 4.455-4.142 7.608-4.142 3.095 0 5.572.95 7.433 2.85.92.94 1.517 1.988 1.792 3.143.313 1.273.489 2.879.528 4.818l.265 10.605c.039 1.097.254 1.929.646 2.497.176.216.597.597 1.263 1.146.588.47.882 1.028.882 1.674 0 2.096-3.212 3.144-9.636 3.144-5.64 0-8.461-.97-8.461-2.909 0-.489.137-.91.412-1.263l.763-.999c.823-1.077 1.234-3.76 1.234-8.049 0-2.624-.245-4.534-.734-5.729-.647-1.645-1.802-2.467-3.467-2.467-1.194 0-2.076.431-2.644 1.292-.411.647-.617 1.832-.617 3.555v5.67c.118 2.252.216 3.584.294 3.995.137.548.607 1.253 1.41 2.115.372.411.558.882.558 1.41 0 2.253-2.888 3.379-8.666 3.379-6.717 0-10.076-1.146-10.076-3.437 0-.568.205-1.087.617-1.557.098-.098.538-.431 1.322-.999.822-.568 1.341-1.949 1.557-4.142.274-2.703.411-6.64.411-11.81 0-4.074-.117-6.943-.353-8.608-.097-.705-.293-1.224-.587-1.557-.157-.156-.499-.372-1.028-.646-1.215-.627-1.822-1.381-1.822-2.262 0-1.39 1.254-2.517 3.761-3.378a48.488 48.488 0 017.638-1.939c1.606-.274 2.859-.411 3.76-.411 1.097 0 1.625.489 1.586 1.468zm39.721 17.098v9.929c0 1.175.274 2.116.822 2.821.607.803 1.361 1.204 2.262 1.204.764 0 1.773-.362 3.026-1.087a1.75 1.75 0 01.911-.264c.45 0 .871.293 1.263.881.392.568.587 1.175.587 1.821 0 1.215-.665 2.39-1.997 3.526-2.801 2.369-6.16 3.554-10.077 3.554-3.016 0-5.483-.852-7.403-2.556-2.017-1.782-3.025-4.161-3.025-7.138v-13.572c0-.49-.069-.784-.206-.882-.078-.078-.343-.117-.793-.117h-3.026c-.588 0-.95-.098-1.087-.294-.137-.137-.215-.568-.235-1.293v-1.292c.02-.588.245-1.019.676-1.293l13.454-8.46c.333-.177.745-.265 1.234-.265h2.38c.47 0 .773.079.91.235.216.294.324.774.324 1.44v3.966c0 .587.088.959.264 1.116.215.196.617.294 1.204.294h5.435c.725 0 1.205.156 1.44.47.196.274.293.813.293 1.616v1.733c-.019.92-.146 1.557-.381 1.909-.294.392-.803.588-1.528.588h-5.317c-.568 0-.94.098-1.117.294-.196.215-.293.587-.293 1.116z" fill="#fff"/>
</svg>
