<svg viewBox="0 0 396 189" fill="none" xmlns="http://www.w3.org/2000/svg"><path fill="#FF4F4F" d="M0 110h360v24H0z"/><path fill="#FF8E4F" d="M0 134h360v24H0z"/><path fill="#FFB84F" d="M0 158h360v24H0z"/><rect x="91" y="102" width="305" height="87" rx="40.11" fill="#000"/><circle cx="198.796" cy="65.178" r="47.63" fill="#fff"/><path d="M185.429 8.318c6.417-1.098 11.394.034 14.928 3.398 2.746 2.574 4.05 5.817 3.913 9.729-.138 4.05-1.768 7.533-4.891 10.45-2.608 2.402-5.937 3.964-9.987 4.685-.48.068-.926.12-1.338.154h-.875c-.172 0-.326.017-.463.051-.138 0-.241.052-.309.155a3.178 3.178 0 00-.103.515c-.927 5.182-1.39 7.876-1.39 8.082 0 .446-.223.652-.669.617h-7.979c-.378 0-.584-.085-.618-.257-.034-.172.068-.806.309-1.905.206-.995.377-1.87.514-2.625 1.751-8.923 3.175-16.593 4.273-23.01.378-1.888.618-2.832.721-2.832a.39.39 0 00.154.051c5.594-.034 8.477-.017 8.649.052.103.034.12.206.051.515-2.025 10.227-3.037 15.512-3.037 15.855.069.171.206.24.412.206 1.578-.378 2.934-1.064 4.066-2.06 1.167-1.029 2.025-2.196 2.574-3.5.584-1.338.893-2.745.927-4.221.069-1.476-.12-2.848-.566-4.118-.446-1.27-1.201-2.385-2.265-3.346-1.03-.961-2.282-1.562-3.758-1.802-2.025-.343-4.05-.034-6.075.927-2.024.96-3.517 2.041-4.478 3.243-.927 1.2-1.133 1.99-.618 2.368.824.583 1.338 1.407 1.544 2.47.206 1.03-.017 1.991-.669 2.883-.618.858-1.596 1.356-2.934 1.493-.961.069-1.836-.206-2.625-.823-.755-.652-1.167-1.459-1.236-2.42-.034-.171-.103-.549-.206-1.132a13.991 13.991 0 01-.103-1.39c.069-1.75.498-3.363 1.287-4.84a11.63 11.63 0 013.243-3.706 19.857 19.857 0 014.427-2.47 24.63 24.63 0 015.2-1.442zm-4.53 30.218c.034.068.103.085.206.051-.069-.069-.138-.086-.206-.051zm.308 1.03c0-.035.018-.07.052-.104h-.052c-.034.035-.034.069 0 .103zm-.154-1.597c0-.034.017-.068.052-.102.102-.172.137-.31.102-.412l-.102-.206-.103.103h-.103v.154c-.069.172-.069.292 0 .36.068.035.12.07.154.103zm2.78-15.7c-.103-.07-.172-.103-.206-.103l-.103.103c0 .034.017.068.051.103l.103.051c.035 0 .052-.017.052-.051.034-.07.069-.103.103-.103zM182.34 38.69h-.103l.052.052h.051v-.052zm-.824-8.597a.643.643 0 00.361 0c-.069-.068-.189-.068-.361 0zm.515 10.502l.206-.103c.103-.103.189-.172.257-.206a.574.574 0 00-.103-.154.6.6 0 00-.102-.155c0-.034-.018-.051-.052-.051-.206.274-.309.429-.309.463l.103.206zm.772-8.443l.103.052c0-.035.035-.137.103-.309l-.154.154c-.035.035-.052.07-.052.103zm.618 2.677c0-.034.017-.068.052-.103 0-.034-.018-.051-.052-.051v-.103c-.034.103-.034.189 0 .257zm-.412-2.934c.343.034.498-.12.464-.463l-.155-.155c-.206.378-.309.584-.309.618zm.772-4.17c.241-.034.361-.223.361-.566v-.154c0-.172-.103-.395-.309-.67-.034 0-.069.017-.103.052-.275.206-.412.36-.412.463 0 .206-.051.463-.154.772l.617.103zm1.081-6.795a72.415 72.415 0 01-.205-.154l-.309.206h.103c.068.034.12.068.154.103.103-.07.189-.12.257-.155zm.155 5.096l-.155-.154c-.068-.103-.154-.103-.257 0-.069.069-.12.103-.154.103l.103.103c.103.103.188.12.257.051l.206-.103zm-.669 9.884c.068-.068.068-.137 0-.206a.215.215 0 000 .206zm.103-7.361c.137.137.223.206.257.206s.24-.086.618-.258a1.614 1.614 0 00-.309-.102.5.5 0 00-.258-.104 2.928 2.928 0 01-.308.258zm1.338-1.133v-.051l-.051.051h.051zm9.215.515l.154-.154-.103-.103c-.069-.034-.12-.017-.154.051l-.052.052c0 .034.017.068.052.103l.103.051zm.206 1.853l.051-.051c-.034 0-.051-.017-.051-.052 0 .035-.018.052-.052.052l.052.051zm.978-13.538c.137-.069.188-.12.154-.155l-.515-.772-.206.154c.138.31.258.584.361.824 0 .034.017.052.051.052a.61.61 0 00.155-.103zm2.265 2.985l.257.206c.034 0 .12-.051.257-.154-.205-.103-.377-.12-.514-.052zm.36-1.184l.309-.154a2.041 2.041 0 01-.309-.258c-.137.138-.206.224-.206.258l.206.154zm28.936 5.663c.069.137.017.292-.154.463-.172.172-.686.618-1.544 1.339-.515.446-.927.806-1.236 1.08-.309.241-.669.55-1.081.927-.652.55-1.064.858-1.235.927-.138.069-.292.017-.464-.155l-.309-.308a1.21 1.21 0 00-.411-.258 1.188 1.188 0 00-.412-.103 3.407 3.407 0 00-.464-.154 3.087 3.087 0 00-.411-.103c-1.476-.412-2.952.086-4.428 1.493l-.205.206c-.927.892-1.545 1.784-1.854 2.677-.274.892-.806 3.62-1.595 8.185-.241 1.304-.429 2.333-.567 3.088-.068.343-.12.687-.154 1.03-.034.343-.069.618-.103.824l-.103.514c0 .172-.017.31-.052.412a.46.46 0 01-.051.206c-.034.069-.086.103-.154.103a.46.46 0 01-.206.051c-.069.035-.189.052-.361.052-5.422 0-8.202-.017-8.339-.052-.069-.034-.086-.171-.052-.411 0-.035.155-.807.464-2.317.309-1.51.686-3.398 1.132-5.663.446-2.264.892-4.547 1.339-6.846.446-2.334.84-4.427 1.184-6.28.343-1.888.549-3.09.617-3.604.035-.377.086-.583.155-.618.068-.068.291-.103.669-.103H215.24c.309 0 .481.086.515.258.034.137-.017.497-.155 1.08-.102.481-.188.876-.257 1.185l.052.257c.205-.068.737-.377 1.595-.926a14.472 14.472 0 012.832-1.39 7.763 7.763 0 013.191-.464c2.334.138 3.913 1.27 4.736 3.398zm-20.282 13.178c-.034 0-.069-.017-.103-.051-.069-.034-.12-.034-.154 0a9.997 9.997 0 00-.103.103l.154.154.206-.206zm-.566-1.647l-.052.051c.035 0 .052.018.052.052l.051-.052-.051-.05zm-.206 5.457l.566.309.36-.31a4.578 4.578 0 01-.463-.257 4.578 4.578 0 01-.463.258zm.823-9.627l.206.155.309-.155-.36-.206-.155.206zm1.39-2.728c.069.069.138.086.206.052-.034-.07-.103-.086-.206-.052zm2.059 4.427a.22.22 0 00.206 0 .22.22 0 00-.206 0zm.361-4.015v-.103h-.052c0 .034.017.069.052.103zm0-3.964c.034-.069.034-.154 0-.257-.069.103-.069.188 0 .257zm.309.154v-.051c.034-.034.051-.069.051-.103h-.051c0-.034-.017-.052-.052-.052-.034.07-.017.138.052.206zm.309 2.368l.051-.051c-.034 0-.051-.017-.051-.052l-.052.052.052.051zm1.338.052l-.103-.309c-.515.172-.841.326-.978.463.172.069.309.069.412 0l.103.103a.837.837 0 00.206.052.398.398 0 00.154-.052c.069-.068.137-.154.206-.257zm21.711-6.59c3.741-.823 6.83-.668 9.266.464 2.437 1.098 3.964 2.797 4.582 5.096.652 2.265.789 4.668.412 7.207-.378 2.54-1.459 4.96-3.243 7.259-1.751 2.265-3.896 3.86-6.435 4.787-2.746.927-5.217 1.15-7.413.67-2.162-.481-3.964-1.545-5.405-3.192-1.407-1.648-2.214-3.62-2.42-5.92-.412-4.256.412-7.86 2.471-10.81 2.059-2.986 4.788-4.84 8.185-5.56zm-8.7 16.577V37.3h-.051c0 .035.017.052.051.052zm18.584-11.068c-.103-.172-.206-.206-.309-.103l-.051.051.103.103c.068.035.103.069.103.103l.154-.154zm-17.194 7.722l.258.257.206-.154c-.172-.103-.326-.138-.464-.103zm1.03-2.265a1.1 1.1 0 00.257-.206l-.566-.567c-.103.103-.154.172-.154.206.034 0 .188.189.463.567zm.257 9.06c.275.137.429.206.464.206.034 0 .154-.103.36-.31l-.103-.154c-.103.035-.24.086-.412.155-.137.034-.24.068-.309.103zm.824-9.678l.206-.103c-.034-.035-.052-.069-.052-.103v-.052c-.137.07-.205.103-.205.103l.051.155zm8.134 7.721c.755-.686 1.389-1.578 1.904-2.676.515-1.099.841-2.214.978-3.346.172-1.167.12-2.283-.154-3.347-.137-.446-.481-.84-1.03-1.184-.514-.343-1.115-.549-1.801-.617-.652-.103-1.356.034-2.111.412-.721.377-1.321.995-1.802 1.853-.343.686-.617 1.476-.823 2.368-.206.892-.292 1.887-.258 2.985.069 1.099.326 2.094.772 2.986.378.755.996 1.201 1.854 1.339.858.137 1.681-.12 2.471-.773zm5.044-1.801l.103-.103.052-.052a.612.612 0 01-.155-.103c-.068.138-.068.224 0 .258zm.567-5.92l.257-.618c0-.034-.069-.137-.206-.309a.825.825 0 00-.206.155c-.137.137-.206.223-.206.257s.035.12.103.257l.258.258zm.411-5.972c0-.034.069-.085.206-.154-.034-.137-.068-.223-.103-.258l-.257.258.052.103.102.051zm.979 3.346a56.61 56.61 0 00-.155-.154l-.309.154c.138.07.292.07.464 0zm-.412 9.163h.103c.137-.034.223-.085.257-.154v-.103h-.206l-.154.258zm.412-.257c.137 0 .308-.017.514-.051a2.16 2.16 0 00-.36-.103l-.154.154zm1.544-6.486l.206.206.257-.206c-.137-.069-.291-.069-.463 0zm47.988 4.118c.206.137.498.309.875.515.995.618 1.579 1.012 1.75 1.184.172.172.189.377.052.618-.137.206-.326.515-.566.926-.241.378-.464.721-.67 1.03-.171.309-.36.583-.566.824-.995 1.338-2.248 2.522-3.758 3.552-1.475 1.029-2.985 1.767-4.53 2.213-1.51.446-2.934.446-4.273 0-1.338-.446-2.316-1.39-2.934-2.831a9.708 9.708 0 01-.772-3.552c-.034-1.27.069-2.385.309-3.346.274-.996.515-2.025.721-3.089.24-1.098.377-2.042.411-2.831.069-.79-.12-1.63-.566-2.523-.137-.24-.394-.377-.772-.412a1.747 1.747 0 00-1.081.258c-.721.446-1.75 1.39-3.089 2.831-.206.24-.377.755-.515 1.544-.102.79-.274 2.214-.514 4.273a131.157 131.157 0 01-.772 6.126c-.412 2.471-.67 3.74-.773 3.81a.712.712 0 01-.309.05h-5.456c-1.51 0-2.403-.016-2.677-.05-.24 0-.36-.086-.36-.258h-.052c0-.377.446-2.797 1.339-7.258 1.475-7.07 1.527-10.81.154-11.223-.961-.274-2.574.875-4.839 3.45-.172.171-.292.428-.36.772-.927 4.564-1.682 8.7-2.265 12.406-.172 1.064-.292 1.699-.361 1.905-.034.171-.154.257-.36.257h-.103a30.64 30.64 0 01-1.802-.052h-1.699c-.514.035-.926.052-1.235.052h-1.081c-1.476 0-2.334-.034-2.574-.103-.24-.034-.326-.206-.257-.515v-.103c.446-2.196.943-4.633 1.493-7.31.549-2.71.926-4.633 1.132-5.765.24-1.133.498-2.42.772-3.861.275-1.441.464-2.488.566-3.14.138-.687.258-1.407.361-2.162a71.97 71.97 0 00.36-2.162c.035-.344.103-.55.206-.618.103-.103.326-.155.669-.155 5.457-.034 8.237-.017 8.34.052.068.034.086.137.051.309l-.412 2.522a100.937 100.937 0 012.523-1.493c.583-.343 1.338-.669 2.265-.978.961-.309 1.87-.446 2.728-.412 2.54.103 4.204 1.304 4.994 3.604.103.274.24.412.411.412.172 0 .395-.103.67-.31.309-.205.635-.463.978-.771.377-.31.823-.635 1.338-.978a12.079 12.079 0 011.699-.978c.583-.31 1.27-.55 2.059-.721a8.185 8.185 0 012.42-.258c2.127.069 3.62.961 4.478 2.677.892 1.682 1.133 3.724.721 6.126-.172.893-.378 1.922-.618 3.089l-.515 2.42c-.068.48-.103 1.046-.103 1.698 0 .618.103 1.253.309 1.905.138.48.378.79.721.926.343.138.738.103 1.184-.103a7.555 7.555 0 001.544-1.03c.481-.41.858-.788 1.133-1.132.309-.377.583-.72.823-1.03.241-.342.429-.583.567-.72.171-.137.326-.171.463-.103zm-40.719 1.75c0 .035-.017.069-.052.103l-.103.103c.035 0 .069.017.103.052.035.034.069.051.103.051l.103-.154-.154-.155zm-.361-1.544a55.81 55.81 0 01-.051.051c0 .035.017.052.051.052 0-.034.018-.052.052-.052-.034 0-.052-.017-.052-.05zm-.36-3.603h-.051c.034.034.068.051.103.051v-.051h-.052zm-.154-.31c-.035.035-.035.07 0 .104v-.052l.051-.051h-.051zm.257 9.679c.309.034.618-.052.927-.258l-.309-.206c-.035-.034-.137-.034-.309 0-.172 0-.326.017-.463.052 0 .034-.052.12-.155.257.172.103.275.155.309.155zm.824-9.936l.206.155c.034 0 .137-.052.308-.155l-.308-.206-.206.206zm1.544-2.42l.103-.205-.103-.155-.103.104c-.034.034-.051.068-.051.102l.051.052c.069.034.103.069.103.103zm1.905 4.12a.22.22 0 00.206 0c-.035-.035-.103-.035-.206 0zm.36-4.068c.034 0 .052-.017.052-.051h-.052-.051l.051.051zm0-3.912l.052-.103-.052-.051v-.052a.22.22 0 000 .206zm.309.154l.051-.051v-.103l-.051-.052a.22.22 0 000 .206zm.36 2.368v-.051l-.051-.052-.052.052c.035.034.069.051.103.051zm.309.31h.103c.343.034.549.05.618.05.069-.033.12-.12.154-.257l.103-.308a16.22 16.22 0 00-1.132.36l.154.154zm10.244-1.7c-.171.275-.274.43-.309.464 0 .034.018.086.052.154l.103.103a.458.458 0 00.206.052l.515-.206a1.78 1.78 0 00-.361-.36l-.206-.206zm-1.75 10.862c-.069.103-.086.19-.051.258l.154-.155-.051-.051a5.17 5.17 0 01-.052-.052zm.103 4.53c0-.034.017-.068.052-.102h-.052c-.034.034-.034.068 0 .102zm.515-10.758l.103-.052c.068-.069.086-.137.051-.206l-.206-.051a.626.626 0 00-.103.154c-.103.172-.137.292-.103.36l.103.206c.069-.24.12-.377.155-.411zm.36-5.406a.592.592 0 01.155-.103c.103-.068.085-.223-.052-.463l-.154-.309a2.112 2.112 0 00-.103.36l.154.515zm.566 12.767c.103-.034.515-.24 1.236-.618l-.103-.154c-.137-.069-.36-.069-.669 0-.275.034-.464.103-.567.206a.557.557 0 00-.102.309.46.46 0 00.051.206c.069.034.12.05.154.05zm.052-9.215h.309c.034 0 .154-.068.36-.206a3.18 3.18 0 01.566-.308c.275-.138.275-.292 0-.464-.034 0-.24-.068-.617-.206l-.155.052c-.446.652-.6 1.03-.463 1.132zm1.39 6.744c.103-.137.189-.24.257-.309a1.51 1.51 0 00-.206-.154c-.103.206-.154.326-.154.36l.103.103zm-.052-8.854c.172-.103.292-.189.361-.258-.103-.068-.172-.085-.206-.051l-.309.154c0 .035.017.069.051.103.035.035.069.052.103.052zm.618 7.258a.598.598 0 01.154-.103.56.56 0 01-.102-.206c-.035 0-.052-.017-.052-.051l-.154.103.154.257zm-.206-2.883c.034 0 .086.035.155.103.068.069.137.12.205.155.275-.172.447-.275.515-.31l-.206-.102c-.206-.137-.36-.154-.463-.052l-.206.206zm.515 2.523c-.034.274.051.377.257.309.035-.035.189-.103.464-.206a8.445 8.445 0 01-.464-.36c-.034 0-.085.034-.154.102a.599.599 0 01-.103.155zm3.14-5.869a.64.64 0 00.36 0c-.068-.068-.188-.068-.36 0zm8.957 10.708a.544.544 0 00.103-.206l-.103-.052c-.068-.068-.103-.12-.103-.154l-.103.257.206.155zm.309-6.435l.052-.052a.398.398 0 00.051-.154l-.154-.051-.155.103c.035.034.103.085.206.154zm.361 10.656l.051-.052c-.034 0-.051-.017-.051-.051 0 .034-.018.051-.052.051v.052h.052zm.205-.36l.155.103a3.56 3.56 0 01.36-.258l-.309-.154-.206.309zm-.308-2.163l.36.31c.034 0 .206-.104.515-.31l-.052-.154-.566-.103-.257.258zm.72-2.367l.309-.618c0-.035-.051-.086-.154-.155-.069-.068-.138-.103-.206-.103l-.309.36c.034.104.086.224.154.361.103.103.172.154.206.154zm1.442-8.288c.034-.07-.018-.24-.155-.515a3.17 3.17 0 00-.257-.567 53.512 53.512 0 01-.772-.875c-.069.275-.086.464-.052.567.034.068.24.497.618 1.287.103.171.171.257.206.257a.558.558 0 00.412-.154zM175.612 49.99c2.025.034 4.119.034 6.281 0 1.476 0 2.231.068 2.265.206 0 .034-.017.12-.052.257v.103c-.274 1.201-1.372 6.864-3.294 16.988-1.888 10.09-3.055 16.644-3.501 19.664v.052c0 .137-.086.223-.257.257-.172.035-.772.035-1.802 0h-3.655c-.789.035-1.39.035-1.802 0-.377 0-.823-.017-1.338-.051-.515 0-.892-.035-1.133-.103-.24-.069-.36-.172-.36-.31-.206-.891-1.132-4.975-2.78-12.25-1.613-7.276-2.488-10.966-2.625-11.069-.069.103-.292 1.184-.669 3.243-.378 2.025-.807 4.342-1.287 6.95-.481 2.574-.927 4.976-1.339 7.207a427.52 427.52 0 00-.72 4.273c-.069.274-.12.549-.155.823-.034.24-.051.43-.051.566 0 .103-.017.224-.052.36a.544.544 0 01-.103.207c0 .034-.051.068-.154.103a.846.846 0 01-.258.051h-.411c-5.32 0-8.048-.017-8.185-.051-.103-.103-.121-.292-.052-.566 1.064-5.492 1.922-9.884 2.574-13.179a520.917 520.917 0 001.338-7c.241-1.34.412-2.335.515-2.987.103-.686.258-1.578.464-2.677.205-1.132.497-2.676.875-4.633.068-.24.085-.429.051-.566-.034-.171-.154-.189-.36-.051-2.162 1.304-3.501 2.831-4.015 4.581-.138.515-.018.893.36 1.133.892.514 1.441 1.304 1.647 2.368.24 1.064.052 2.076-.566 3.037-.549.892-1.373 1.424-2.471 1.596-1.098.137-2.008-.035-2.728-.515-1.613-.995-2.3-3.398-2.06-7.207.103-1.647.653-3.192 1.648-4.633a12.847 12.847 0 013.655-3.552 21.646 21.646 0 014.684-2.214c1.682-.549 3.295-.84 4.839-.875.343 0 1.03-.017 2.059-.051 1.03-.034 1.836-.069 2.42-.103.068 0 .189.034.36.103.172.034.292.051.36.051.275-.034.447.069.515.31.103.24.309 1.063.618 2.47.034.206.446 2.128 1.235 5.766a932.02 932.02 0 012.523 11.376c.892 3.947 1.39 6.11 1.493 6.487.377-1.099 1.458-6.59 3.243-16.473a209 209 0 001.081-6.641c.206-1.373.36-2.18.463-2.42.103-.274.326-.411.669-.411zm-21.929 30.886h.051c0-.034-.017-.05-.051-.05l-.052.05h.052zm-.206-1.595l.309-.103a.79.79 0 01-.206-.155.626.626 0 00-.103-.154c0-.034-.017-.069-.052-.103-.103.137-.085.309.052.515zm8.236-26.563l-.257.257.051.103a.592.592 0 00.155-.103c.069-.068.12-.103.154-.103a.574.574 0 00-.103-.154zm-.617.772l-.206-.103c-.069-.068-.155-.051-.258.052a.574.574 0 01-.103.154c.172.103.292.137.361.103l.206-.206zm-.721-.412c-.103-.068-.189-.051-.257.052l.154.103a.598.598 0 00.103-.155zm-2.317.155c-.24.274-.36.429-.36.463l.257.206.309-.309a2.148 2.148 0 01-.103-.257c-.034-.069-.068-.103-.103-.103zM156.72 52.1a.599.599 0 00-.103.155c.103.068.189.068.257 0a11.114 11.114 0 00-.154-.155zm.36 2.883c-.034 0-.103-.034-.206-.103a.498.498 0 00-.257-.103c-.034-.034-.103-.034-.206 0-.069 0-.12.034-.154.103-.069.137-.086.24-.052.309a1.1 1.1 0 01.258.206c.137.069.223.137.257.206.034.034.412-.035 1.133-.206v-.103a1.168 1.168 0 00-.412-.206 4.823 4.823 0 01-.361-.103zm-.669-3.037c-.103-.035-.189-.035-.257 0l.103.103.051-.052c.034-.034.069-.051.103-.051zm-2.419 19.51a.638.638 0 00.36 0c-.069-.069-.189-.069-.36 0zm.463 10.605l.36-.412c.035-.035-.017-.138-.154-.31l-.103.104c-.137.137-.189.274-.155.412 0 .068.018.137.052.206zm.309-2.008c0 .034.017.051.051.051v-.051V80l-.051.052zm.823-6.847c.138-.137.224-.206.258-.206l-.103-.103c0-.068-.017-.103-.052-.103l-.205.155.102.257zm.721-4.17c.034 0 .172-.171.412-.514l-.103-.412c-.172-.309-.292-.48-.36-.515-.172-.034-.326.069-.464.31-.137.205-.24.445-.308.72-.069.24-.069.36 0 .36.514.069.789.086.823.052zm-.463-4.375l.051.051v-.051h-.051zm.824.618c-.035.034-.035.068 0 .103v-.052c0-.034.017-.051.051-.051h-.051zm.257 4.633l.309.206.566-.258-.515-.257-.154.154a1.51 1.51 0 00-.206.155zm0-2.523a.599.599 0 01.103.155c.137.103.257.12.36.051a.808.808 0 01.206-.154 3.014 3.014 0 00-.309-.412l-.36.36zm1.338 1.39v-.051c-.034 0-.051.017-.051.051h.051zm4.17-10.09c.24-.137.326-.343.257-.617a.584.584 0 00-.205-.206.657.657 0 00-.309-.155.973.973 0 00-.309-.051H161.404c-.308 0-.446.12-.411.36 0 .172-.069.275-.206.31-.206.033-.326-.07-.361-.31 0-.034.018-.086.052-.154.137-.343 0-.515-.412-.515-.309 0-.377-.154-.206-.463.103-.275.343-.326.721-.155.034 0 .154-.017.36-.051-.171-.24-.309-.378-.412-.412-.274-.069-.429-.326-.463-.772-.034-.31.12-.463.463-.463l.103-.155c-.137-.137-.274-.189-.412-.154-.343.034-.566.034-.669 0-.068-.069-.154-.275-.257-.618a1.141 1.141 0 01-.103-.515c0-.206-.034-.36-.103-.463a1.154 1.154 0 00-.206-.412c-.034 0-.12.069-.257.206-.069.103-.035.189.103.257.171.378.223.618.154.721-.24.72-.137 1.236.309 1.544.034 0 .034.086 0 .258l-.103.051c0-.137-.086-.171-.257-.103-.138.035-.223.017-.258-.051-.137-.103-.257-.137-.36-.103-.103.034-.172.12-.206.257 0 .206-.172.412-.515.618-.412.275-.652.6-.721.978-.034.343.018.686.155 1.03.171.343.24.549.206.617-.035.206-.035.326 0 .36.034.035.137.07.309.104.412.034.6.24.566.617-.034.378-.257.515-.669.412-.206-.068-.292-.017-.258.155 0 .206.035.377.103.514a.948.948 0 010 .618c-.034.206-.137.326-.309.36-.137 0-.36.086-.669.258a2.835 2.835 0 01-.669.257c-.137 0-.36-.085-.669-.257-.035 0-.12.017-.258.051l.155.155c.034.309.257.6.669.875.412.275.652.463.721.566l.206-.154c.514-.275.875-.172 1.081.309.137.309.532.463 1.184.463l-.103-.412a3.15 3.15 0 00-.258-.206 1.448 1.448 0 00-.309-.257l-.308-.155a1.14 1.14 0 00-.361-.154.64.64 0 00-.36 0c-.24 0-.429-.051-.566-.154-.103-.138-.12-.31-.052-.515.069-.24.258-.31.566-.206.344.103.721.24 1.133.412.412.171.909.154 1.493-.052l-.052-.618c-.034-.48.086-.755.361-.823.274-.069.583-.052.926.051.343.069.618-.086.824-.463v-.36a1.613 1.613 0 00-.412.308l-.206.206a.848.848 0 01-.206-.051c-.068-.034-.188-.137-.36-.309l-.206-.103c-.069.137-.292.275-.669.412-.343.137-.532.343-.566.618l-.515.206.051-.464c0-.034.017-.068.052-.103.034-.137.051-.223.051-.257a.215.215 0 000-.206c-.034-.103-.12-.172-.257-.206-.035-.034-.052-.12-.052-.257 0-.138.017-.258.052-.36 0-.035.051-.087.154-.155.103-.103.155-.189.155-.258.034-.205.137-.326.309-.36.171-.034.274-.017.308.052.103.137.344.24.721.308.378.07.618.206.721.412 0 .035.086.069.257.103-.034-.549 0-.858.103-.926.412-.206.669-.138.772.206 0 .034.206.085.618.154-.206-.583-.206-.927 0-1.03zm.515 4.633c.034 0 .068-.017.103-.051.034-.069.068-.103.103-.103-.138-.103-.258-.12-.361-.051.069.102.121.171.155.206zm16.318-8.236l.052.052v-.052h-.052zm-1.544 3.449c-.034.034-.034.052 0 .052l.052-.052h-.052zm-.257-2.831l-.206.103.051.154h.103c.035-.034.052-.069.052-.103v-.051-.103zm-1.442 7.155c-.068.103-.051.189.052.258l.103-.155h-.052l-.103-.103zm-.309 1.03a.217.217 0 00-.205 0c0 .034.034.051.102.051h.052l.051-.051zm0 5.971l-.051-.051v.051l.051.052v-.052zm-.669 1.184c0 .035-.017.052-.051.052.034 0 .051.017.051.051h.052v-.051l-.052-.052zm-1.235 4.221c-.069 0-.172.155-.309.464l.051.051h.155a1.79 1.79 0 00.772-.36c-.172-.172-.395-.223-.669-.155zm-3.243 3.913l-.155.206.155.154.103-.103-.103-.257zM167.53 69.14l.052-.052-.052-.051-.051.051v.052h.051zm1.236 15.031a.219.219 0 00.206 0l-.155-.051-.051.051zm1.647-2.78l.206-.36c-.172-.72-.274-1.098-.309-1.133-.309.172-.48.292-.515.36-.034.035-.034.155 0 .361.035.034.052.103.052.206l.103.206c.034.309.189.429.463.36zm.258 2.677v-.051h.051l-.051-.052-.052.052c.034 0 .052.017.052.051zm.411-5.714l.155.155.154-.155c0-.034-.017-.069-.051-.103-.035-.034-.052-.069-.052-.103a.626.626 0 00-.103.155c-.034.034-.068.051-.103.051zm1.287 3.604c.241-.035.395-.103.464-.206a.834.834 0 00.154-.515c.034-.24.069-.395.103-.463l-.051-.206-.155.051c-.274.343-.669.378-1.184.103-.24-.137-.36-.086-.36.154s.086.43.257.567c.137.068.206.154.206.257a.22.22 0 010 .206c-.034.034-.086.12-.154.257l-.103.31.154.257.309-.31c.275-.308.395-.462.36-.462zm.773-2.626l.102-.154c0-.172-.137-.206-.411-.103-.035 0-.069.017-.103.051l.412.206zm.102 2.626h-.051v-.052l-.051.052v.051h.051l.051-.051zm-.154 3.088c.034.035.069.052.103.052.069.068.12.068.154 0 .035-.035.069-.052.103-.052-.103-.103-.171-.154-.206-.154l-.154.154zm.566-2.059l.206-.154c-.034-.035-.103-.155-.206-.36a.392.392 0 01-.154.05l-.103.258a.497.497 0 00.257.206zm-.206-3.397c-.034.068-.017.137.052.206l.051-.155h-.051c0-.034-.017-.051-.052-.051zm.773 1.595l.154.155c.034 0 .206-.103.515-.309-.103-.103-.172-.155-.206-.155l-.463.31zm.051-1.698c.103-.069.343-.292.721-.67.412-.377.617-.583.617-.617-.068-.035-.188-.138-.36-.31-.069.104-.103.172-.103.207-.068.24-.189.394-.36.463a.749.749 0 01-.463.052l-.515-.258-.258-.206c-.103-.034-.223-.12-.36-.257-.137-.138-.257-.206-.36-.206-.069-.034-.206-.017-.412.051-.035 0-.155.069-.361.206.241.103.378.155.412.155.446 0 .721.189.824.566a.807.807 0 00.206.309c.103.069.223.154.36.257.172.103.292.189.361.258h.051zm1.493-2.677c0-.138-.034-.223-.103-.258-.069-.068-.172-.103-.309-.103a.718.718 0 01-.309-.051l-.515.257c.035.069.241.464.618 1.184.378-.652.584-.995.618-1.03zm-.463-4.84c.171.138.343.293.514.464.069-.103.086-.189.052-.257 0-.069-.137-.172-.412-.31l-.154.104zm.566 1.751l.36.103.155-.206a8.096 8.096 0 00-.464-.051l-.051.154zm.515-10.965c.034.035.154.138.36.31a.807.807 0 01.206-.155c.103-.069.171-.103.206-.103l-.463-.36-.309.308zm.411 4.17v-.052c0-.034-.017-.034-.051 0v.052h.051zm.309 3.192c-.034.137-.017.223.052.257 0-.034.017-.069.051-.103l.103-.103a.46.46 0 01-.206-.051zm.155 9.369c.034-.103.034-.172 0-.206a.215.215 0 000 .206zm.154-18.327h.155c.103 0 .154-.017.154-.051 0-.034.017-.086.052-.154.068-.07.154-.206.257-.412l-.052-.155c-.205.172-.377.31-.514.412a1.625 1.625 0 00-.206.258.601.601 0 00.154.102zm.566 11.892l.103.103.206-.103-.154-.103-.155.103zm.464-16.216l.206.103c.103.035.188.069.257.103.103.035.189.069.257.103.241-.172.361-.274.361-.309 0-.034-.035-.103-.103-.206-.069-.103-.12-.137-.155-.103-.103 0-.377.103-.823.31zm.978 2.626c.068.068.137.085.206.051-.035-.069-.103-.086-.206-.051zm-21.724-2.111c.481.618.772 1.012.875 1.184a.46.46 0 01-.051.206.387.387 0 01-.052.154.574.574 0 01-.103.155c-.24.137-.617-.223-1.132-1.081l-.052-.103c-.068-.103-.068-.223 0-.36.035 0 .138-.086.309-.258.137.034.206.069.206.103zm1.441.978c.241-.24.378-.36.412-.36.035 0 .292.171.772.514a8.064 8.064 0 00-.36.258c-.171.137-.326.137-.463 0l-.155-.154-.206-.258zm2.214.103c0-.034.103-.172.309-.412.069.137.189.326.36.566l-.309.31c0-.035-.034-.052-.103-.052a.393.393 0 00-.154-.052l-.154-.154c-.035-.069-.018-.137.051-.206zm37.404 19.201c.24.138.463.275.669.412.241.138.292.343.155.618-.893 1.75-2.094 3.346-3.604 4.788-1.475 1.407-3.003 2.47-4.581 3.191-1.545.72-3.072 1.047-4.582.978-1.476-.069-2.66-.6-3.552-1.596-.892-.995-1.39-2.127-1.493-3.397a50.72 50.72 0 01-.206-3.037c0-.996.018-1.682.052-2.06.034-.411.103-1.098.206-2.059.137-.96.206-1.493.206-1.596.206-1.887.412-3.569.617-5.044.206-1.476.361-2.557.464-3.243.137-.721.257-1.305.36-1.75.103-.481.172-.824.206-1.03.034-.24.051-.446.051-.618 0-.24.052-.395.155-.463.103-.069.274-.086.515-.052 1.99 0 4.049-.017 6.177-.051 1.579 0 2.385.068 2.42.206 0 .034-.018.12-.052.257v.103c-1.647 7.173-2.522 11.977-2.625 14.414-.172 3.397.549 4.65 2.162 3.758.171-.103.309-.189.412-.258.137-.068.274-.154.411-.257.138-.103.241-.172.309-.206l.309-.309c.172-.137.292-.24.361-.309.068-.068.205-.223.411-.463.206-.24.361-.412.464-.515.103-.103.291-.326.566-.669.309-.343.549-.618.721-.824l.103-.103c.034-.034.068-.051.103-.051.068-.034.12-.034.154 0 .069 0 .12.017.154.051.069 0 .138.035.206.103.103.069.189.138.258.206.103.035.223.103.36.206.172.103.326.206.463.31.138.102.309.222.515.36zm-9.678-11.119c-.103.069-.137.155-.103.258l.206-.155-.103-.103zm.155 4.479l-.052-.052-.051.052c.034 0 .051.017.051.051l.052-.051zm-1.287 3.294c-.035-.034-.069-.034-.103 0 .034 0 .068.017.103.052v-.052zm-1.39-2.368l-.155.103c.069.069.138.155.206.258.172.206.292.309.361.309l.103.103c.068-.07.085-.138.051-.206-.034-.069-.223-.258-.566-.567zm.669 7.31c-.103-.068-.172-.103-.206-.103 0-.034-.017-.017-.051.052l-.052.051c.034.035.103.12.206.258.034 0 .069-.086.103-.258zm-2.008-6.846c-.034 0-.103.034-.206.103l-.103.051c.138.069.275.052.412-.051l-.103-.103zm0 2.574a6.695 6.695 0 01-.257.463 2.216 2.216 0 01-.206.309v.257c0 .137.017.275.052.412.034.103.102.326.205.67l.206.257.103-.31a.78.78 0 01-.051-.617c.103-.24.189-.446.257-.618.103-.206.086-.515-.051-.926-.035.034-.086.051-.155.051l-.103.052zm1.133 7.052a.6.6 0 00.103-.154c0-.344-.12-.55-.361-.618-.24-.069-.549-.052-.926.051l-.206.052.257.103h.206c.103 0 .189.017.258.051a.46.46 0 01.206.052c.068 0 .12.034.154.103a.348.348 0 01.103.257l.206.103zm.36 2.728l.103-.102a.612.612 0 00.155-.104l-.052-.051a9.997 9.997 0 00-.103-.103c-.137.103-.206.172-.206.206l.103.154zm.721-1.338c.069-.034.154-.069.257-.103a.556.556 0 00.206-.103 1.509 1.509 0 00-.206-.154c-.206-.138-.377-.155-.514-.052l-.206.206c.034 0 .085.017.154.052.069.034.12.068.154.102a.4.4 0 00.155.052zm.154-2.677a.577.577 0 00.258.052c.103.034.257-.018.463-.155a.586.586 0 00.154-.103v-.051-.052c-.377.069-.669.172-.875.31zm1.184 1.081c.206.172.326.258.361.258.034 0 .086-.07.154-.206a7.904 7.904 0 01-.36-.258c-.035.103-.086.172-.155.206zm.567-22.702c-1.202.035-2.283-.394-3.244-1.287-.926-.926-1.338-2.007-1.235-3.243-.103-1.167.309-2.213 1.235-3.14.927-.96 2.042-1.441 3.347-1.441 1.407.034 2.505.532 3.294 1.492.824.961 1.236 2.008 1.236 3.14 0 1.133-.412 2.163-1.236 3.09-.823.926-1.956 1.39-3.397 1.39zm.772-4.53c0 .035-.017.052-.052.052l.052.051h.051v-.051l-.051-.052zm23.318 7.053c2.059.034 4.187.034 6.383 0 1.407 0 2.128.068 2.162.206a.849.849 0 01-.051.206v.051a310.869 310.869 0 00-2.78 13.642c-.789 4.358-1.321 7.344-1.596 8.957a24.443 24.443 0 01-1.287 4.633c-.583 1.544-1.424 3.02-2.522 4.427-1.648 2.128-3.638 3.535-5.972 4.221-2.333.687-4.787.48-7.361-.617a6.257 6.257 0 01-.927-.515 24.414 24.414 0 01-1.081-.772c-.412-.275-.703-.48-.875-.618-.24-.172-.275-.395-.103-.67.481-.857.995-1.767 1.544-2.728.378-.72.618-1.08.721-1.08.034 0 .086.034.155.102h.051c1.03.652 1.888.995 2.574 1.03.686.034 1.424-.189 2.213-.67.275-.205.55-.428.824-.669.275-.24.515-.497.721-.772.24-.274.446-.549.618-.823a4.65 4.65 0 00.411-.824c.138-.24.241-.463.309-.67.103-.205.155-.377.155-.514-4.221 1.476-7.533.72-9.936-2.265-1.99-2.471-2.848-5.714-2.573-9.73.274-4.255 1.698-7.67 4.272-10.244 1.476-1.441 3.175-2.402 5.097-2.883 1.372-.377 2.659-.497 3.86-.36.378.035.721.086 1.03.155.309.034.583.103.824.206.274.068.497.137.669.206.206.068.394.154.566.257.206.069.343.12.412.154a1.3 1.3 0 01.309.155c.171.103.274.154.309.154.068 0 .103-.086.103-.257 0-.378.051-.652.154-.824.103-.172.309-.257.618-.257zm-15.083 14.414l.154-.258c0-.034-.069-.137-.206-.309a1.625 1.625 0 01-.206.258l.155.154c.068.069.103.12.103.155zm.823-5.817c.069-.103.172-.224.309-.36a1.51 1.51 0 01-.154-.207c-.138.172-.206.275-.206.31l.051.257zm.824 8.854v-.103h-.051c0 .034.017.069.051.103zm.927-7.98c0 .035-.018.052-.052.052l.052.052c.034 0 .051-.017.051-.052l-.051-.051zm.051 1.7l.206-.36-.103-.207c-.103.24-.137.43-.103.567zm2.677 9.832v-.052c-.034 0-.069.017-.103.052h.103zm3.758 11.53a.393.393 0 00.154-.05h.052c0-.035-.017-.07-.052-.103V93.9c-.103.07-.171.103-.206.103l.052.155zm6.074-15.237c-.034-.103-.086-.137-.154-.103-.069 0-.24.12-.515.36 0 .035.052.155.154.361.138-.171.309-.377.515-.618zm-.617 6.28c0 .035-.035.07-.103.104-.138.171-.103.343.103.514 0 .035.034.035.102 0l.103-.102c0-.07-.068-.24-.205-.515zm-.155-4.324a.477.477 0 00-.309 0c.069.07.137.103.206.103l.052-.051.051-.052zm-.566.206a36.96 36.96 0 01-.103-.051v.051h.103zm-7.67-14.877l-.103.103.051.052c.069.034.12.068.155.103.034-.103 0-.19-.103-.258zm3.706 14.569c1.544-.824 2.317-1.888 2.317-3.192 0-.24.137-1.527.411-3.86.206-1.648.344-2.558.412-2.73.24-.823.052-1.51-.566-2.058-.583-.584-1.373-.824-2.368-.721-.961.069-1.802.532-2.523 1.39-.755.926-1.269 1.836-1.544 2.728-.583 2.334-.703 4.187-.36 5.56.343 1.373.909 2.316 1.699 2.831.823.48 1.664.498 2.522.052zm1.544 11.942l.052-.051h-.052c-.034 0-.034.017 0 .051zm0-2.985c.035-.034.052-.069.052-.103v-.052l-.052-.051a.22.22 0 000 .206zm1.39-7.362c-.068-.343-.274-.497-.617-.463-.344.103-.429.343-.258.72v.155c.034.035.052.086.052.155l.103.103c0 .034.12.171.36.412a.333.333 0 00.154-.155 40 40 0 00.206-.206l.155-.154-.155-.567zm-.926 8.134l.103-.103c-.035 0-.052-.017-.052-.052v-.051c-.068.034-.086.103-.051.206zm.72-4.736c-.034-.206-.017-.377.052-.515a1.28 1.28 0 01.463-.36 3.55 3.55 0 00.36-.257c0-.035-.034-.07-.102-.104-.035-.034-.069-.051-.103-.051 0-.034-.052-.052-.155-.052a1.56 1.56 0 00-.463-.05 8.906 8.906 0 00-.721-.104c-.034 0-.068.052-.103.154v.207a.494.494 0 01.206.257c.069.069.103.189.103.36v.31c0 .033.086.222.257.565.138-.206.206-.326.206-.36zm.258-4.787c.412.48.669.6.772.36 0-.035.017-.069.051-.103v-.103c-.343-.103-.617-.154-.823-.154zm1.235 2.162c-.137-.103-.257-.12-.36-.052.103.103.171.189.206.257a.812.812 0 01.154-.205zm.669 4.89c.069-.034.189-.12.361-.257-.481-.206-.807-.275-.978-.206l-.258.257c.343.137.635.206.875.206zm.515-3.964c0-.034-.017-.24-.051-.617.034-.035.086-.052.154-.052l-.257-.206c-.206-.034-.361.12-.464.463-.102.31-.12.515-.051.618.034.137.137.172.309.103.206-.103.326-.206.36-.309zm-.103-18.429l.103.154.155-.051a.626.626 0 00-.103-.154l-.155.051zm1.853 4.479a2.458 2.458 0 01-.308.36c.068.069.137.154.206.257l.102.155.155-.155c.103-.103.086-.24-.052-.412l-.103-.205zm-.617 7.361l-.206.412.206.051c.103-.137.103-.291 0-.463zm-.155 1.647l-.103.103c-.068.069-.085.172-.051.31l.051.205.206.103.103-.206c.035-.103 0-.24-.103-.412l-.103-.103zm-.566-7.824a.22.22 0 00-.206 0 .22.22 0 00.206 0zm1.236 13.899v-.103c-.755-.206-1.167-.31-1.236-.31-.034 0-.103.07-.206.207.069.034.206.068.412.103.206.034.36.103.463.206.103.068.155.188.155.36h.257c.034-.034.086-.189.155-.463zm.772-9.575c.137-.103.206-.172.206-.206.034-.069-.035-.172-.206-.309-.172-.137-.343-.206-.515-.206-.172-.034-.275.052-.309.257-.034.07-.017.138.052.206.102.069.223.138.36.206.137.035.274.052.412.052zm.463 7.825c.034-.07.069-.103.103-.103l-.052-.052v-.052c-.068.035-.085.103-.051.207zm.051-14.311l.103-.103c.035-.035.052-.07.052-.103h-.052c-.034-.035-.068-.052-.103-.052-.068.069-.068.155 0 .257zm.206.36c.035 0 .086.017.155.051.137.103.257.12.36.052l.206-.103-.412-.309-.309.309zm36.138 8.442c.377.206.463.498.257.875a17.548 17.548 0 01-3.346 4.479c-1.338 1.304-2.728 2.3-4.17 2.986-1.441.686-2.848 1.098-4.221 1.235-1.373.172-2.591-.068-3.655-.72-1.029-.687-1.75-1.75-2.162-3.192-.378-1.236-.515-2.626-.412-4.17.137-1.544.361-2.848.669-3.912.344-1.098.567-2.248.67-3.45.137-1.235.017-2.144-.361-2.728-.206-.411-.515-.635-.926-.669-.378-.034-.79.086-1.236.36-.412.275-.823.584-1.235.927-.378.343-.738.72-1.081 1.133-.103.103-.395 1.424-.875 3.963-.447 2.506-.893 5.028-1.339 7.568-.412 2.505-.652 4.015-.721 4.53-.034.274-.24.412-.617.412l-8.34-.052c-.24-.103-.326-.291-.257-.566a2335.01 2335.01 0 011.956-9.78c.721-3.604 1.218-6.178 1.493-7.723.309-1.544.738-3.895 1.287-7.052a605.06 605.06 0 002.007-11.789v-.051c.069-.309.275-.48.618-.515.343-.034 1.527-.051 3.552-.051 1.75.034 3.278.051 4.582.051.309 0 .48.103.515.309.034.172-.035.618-.206 1.338a28.993 28.993 0 00-.309 1.545 497.482 497.482 0 01-1.648 8.288c-.274 1.373-.377 2.127-.308 2.265v.154c.034 0 .068-.017.103-.051.068-.069.12-.103.154-.103 1.682-1.064 3.295-1.733 4.839-2.008 1.544-.309 2.934-.12 4.17.566 1.269.687 2.145 1.888 2.625 3.604.275 1.098.343 2.282.206 3.552-.103 1.235-.309 2.35-.618 3.346-.274.96-.48 2.06-.618 3.295-.137 1.2-.103 2.282.103 3.243.309 1.27 1.047 1.578 2.214.926a8.499 8.499 0 002.059-1.544c.652-.686 1.133-1.253 1.441-1.699.309-.48.481-.72.515-.72.138 0 .309.068.515.205.206.138.412.292.618.464.24.137.497.309.772.514.274.172.515.31.721.412zm-21.982-17.245l-.051-.051c-.034-.069-.086-.103-.154-.103-.035 0-.103.051-.206.154l.154.206a1.75 1.75 0 01.257-.206zm-2.265-4.993c-.068.206-.085.326-.051.36l.154.154.155-.154c0-.034-.086-.154-.258-.36zm0 2.368l-.154.206.206.051c.343-.206.583-.377.721-.515.206-.171.188-.291-.052-.36-.137-.034-.274.017-.412.154a4.826 4.826 0 00-.309.464zm.258 4.272c-.034-.034-.069-.034-.103 0 .034 0 .069.018.103.052v-.052zm-.824-7.721c-.068.068-.086.137-.051.206h.051l.052-.052c0-.034-.018-.069-.052-.103v-.051zm-.412 5.302a2.023 2.023 0 00-.257.103c-.069 0-.137.034-.206.103-.034.069-.034.154 0 .257 0 .035.137.189.412.464a1.51 1.51 0 00.154-.206c.069-.103.12-.19.155-.258l-.258-.463zm-.514 5.148c-.275.652-.412 1.27-.412 1.853.034-.034.103-.052.206-.052.171-.034.274-.051.309-.051.034-.034.034-.103 0-.206a2.133 2.133 0 01-.052-.824l.103-.308a8.069 8.069 0 00-.154-.412zm-.979 2.11c-.034.035-.034.069 0 .103v-.051l.052-.052h-.052zm-.257 7.104l-.051.052a5.17 5.17 0 00-.052.051c.103.172.172.275.206.31a.499.499 0 00.257-.104c-.171-.171-.291-.274-.36-.309zm-2.471 1.493c.103-.171.12-.326.052-.463-.138.172-.206.275-.206.309l.154.154zm1.133 8.7c.068.069.137.086.206.051-.035-.068-.103-.085-.206-.051zm.309-5.2c.137.035.24.018.308-.05-.103-.07-.171-.104-.206-.104l-.102.155zm-.155-6.897l.103.103c.069.103.137.137.206.103h.206c-.206-.172-.326-.258-.36-.258l-.155.052zm1.133 8.442a.568.568 0 01.257-.051c.103-.069.223-.206.36-.412a.625.625 0 01.103-.155c-.377.138-.652.275-.823.412l-.052.103c0 .034.052.069.155.103zm1.081-10.81c-.172.446-.258.703-.258.772 0 .069.12.309.361.72l.206-.823c0-.034.017-.052.051-.052l.051-.051a1.087 1.087 0 00-.205-.258 2.298 2.298 0 01-.206-.308zm.051 11.994l.155-.103c0-.034-.052-.137-.155-.309a.436.436 0 000 .412zm.155-9.112l.103-.103c.068-.068.12-.102.154-.102l-.103-.103a27.978 27.978 0 00-.051-.052c-.138.137-.206.223-.206.257l.103.103zm.154-8.288c.034 0 .172-.051.412-.154a.555.555 0 00-.515-.052l.103.206zm1.235 6.126l.052-.051-.052-.052-.051.052.051.051zm1.184-3.5c.103-.103.069-.24-.102-.412-.138-.206-.258-.309-.361-.309a1.75 1.75 0 00-.618.309 1.42 1.42 0 00-.36.412c-.103.137-.257.429-.463.875l.206.36c.549-.377 1.115-.789 1.698-1.235zm.206-1.287c.069.069.189.069.361 0a.643.643 0 00-.361 0zm-.051-.566a.582.582 0 00.206-.206l.257-.258c-.309-.206-.48-.257-.515-.154l-.205.257a.6.6 0 00.102.155.574.574 0 01.103.154l.052.052zm.721-1.75l.051-.206c0-.035-.103-.138-.309-.31a1.562 1.562 0 00-.051.258l.309.257zm.617-.104v-.102h-.051c0 .034.017.068.051.102zm.052-.206c.068-.068.086-.137.051-.205 0-.07-.103-.12-.309-.155l-.103.155c.069.034.189.102.361.206zm6.898 4.685v-.154a.433.433 0 00-.052-.36.333.333 0 00-.154-.155.854.854 0 01-.051.257c-.035.138 0 .24.102.31l.155.102zm.103 5.508c.137.172.257.326.36.463 0-.034.017-.068.052-.102a.626.626 0 00.103-.155.575.575 0 01.103-.154c-.241-.103-.378-.155-.412-.155l-.206.103zm.566 3.758l.155-.206c0-.034-.086-.137-.258-.309-.034.138 0 .31.103.515zm.515-13.333c.069-.034.086-.103.051-.206-.068.069-.085.138-.051.206zm.721 7.98c0-.035.017-.07.051-.104.103-.137.103-.24 0-.309a.337.337 0 00-.154-.154 5.52 5.52 0 00-.052.412l.155.154zm.205-2.626a.563.563 0 01.206-.103 1.51 1.51 0 00.206-.154c-.274-.206-.429-.31-.463-.31l-.36.31c.103.068.24.154.411.257zm1.339 11.737h-.052v.051l.103.052c-.034-.034-.051-.069-.051-.103zm.103.206l.051-.052h-.051a3.027 3.027 0 00-.052-.051v.051l.052.052zm2.316-11.428c-.103-.103-.154-.138-.154-.103l-.154.154.051.052c.069.034.12.034.154 0l.103-.103zm22.478 8.185c.343.171.412.429.206.772-2.059 3.74-4.736 6.349-8.031 7.825-2.986 1.372-5.474 1.39-7.464.051-2.231-1.51-3.02-4.358-2.368-8.545v-.36c.034-.24.068-.584.103-1.03.034-.446.068-.944.103-1.493.068-.584.137-1.236.206-1.956.068-.72.137-1.459.206-2.214.103-.755.206-1.561.308-2.42.138-.891.275-1.732.412-2.522.309-1.956.601-3.74.875-5.353.275-1.613.498-2.918.67-3.913.171-1.03.326-1.922.463-2.677.172-.789.292-1.372.36-1.75.069-.377.12-.686.155-.926.068-.275.12-.447.154-.515a.86.86 0 00.052-.258v-.257c.034-.275.223-.412.566-.412 1.682 0 3.552-.017 5.611-.051 1.99 0 3.003.068 3.037.206.035.068.035.171 0 .308l-.051.103c-.103.447-.429 2.025-.978 4.736-.069.344.085.515.463.515H263.651c.308-.034.429.12.36.464a55.313 55.313 0 01-.309 2.161c-.172 1.133-.309 1.82-.412 2.06-.068.24-.257.343-.566.309-1.819-.138-2.746-.155-2.78-.052 0 .103-.086.584-.257 1.442a84.255 84.255 0 01-.464 2.11c-.103.55-.257 1.356-.463 2.42a90.472 90.472 0 00-.515 2.78c-.103.789-.24 1.698-.411 2.728a30.81 30.81 0 00-.258 2.728c-.034.79-.069 1.562-.103 2.317 0 .72.052 1.338.155 1.853.137.514.308.892.514 1.132.309.378.67.446 1.081.206l.515-.206c.206-.103.361-.171.464-.206.102-.068.24-.171.411-.308.206-.138.412-.31.618-.515a36.953 36.953 0 002.162-2.42l.361-.36c.068-.069.137-.103.205-.103.069-.034.172 0 .309.103l.412.309c.172.103.412.274.721.515.343.206.703.428 1.081.669zm-8.288-20.54c-.069.069-.086.137-.052.206.069-.069.086-.137.052-.206zm-.258-1.647a.804.804 0 00-.205.154c-.103.034-.103.155 0 .36l.103.206.257-.411c0-.035-.052-.138-.155-.31zm.052 2.059c-.275.171-.429.257-.463.257l.103.103c.137.137.291.103.463-.103l-.103-.257zm-2.78 3.346h-.051l.051.051v-.051zm0 5.662a.64.64 0 00-.36 0c.068.07.189.07.36 0zm-1.441-6.125c-.035.102-.035.171 0 .206l.051-.103c0-.035-.017-.052-.051-.052v-.051zm-1.339 11.788a14.582 14.582 0 00-.103-.154l-.257.154a.599.599 0 01.103.154l.103-.102a.396.396 0 01.154-.052zm-.36 3.037c-.24.206-.275.395-.103.567.275.274.498.206.669-.206 0-.035.052-.206.155-.515 0-.035-.035-.086-.103-.155a2.587 2.587 0 01-.155-.257 8.449 8.449 0 00-.36.309.387.387 0 01-.052.154c-.034.035-.051.069-.051.103zm.206 1.493a.816.816 0 00-.155.206c.035 0 .069.017.103.052.035 0 .069.017.103.051l.103-.154c0-.035-.051-.086-.154-.155zm.926 4.273l-.051-.052v-.103c-.446.07-.738.12-.875.155l.206.103h.36c.137-.034.258-.069.36-.103zm.258.515c.034-.035.051-.069.051-.103l-.051-.052v-.051a.22.22 0 000 .206zm.926-9.318c-.411-.343-.634-.515-.669-.515 0-.034-.051-.051-.154-.051.034.069.068.154.103.257.137.206.292.343.463.412l.257-.103zm-.154 6.95c.069-.103.069-.258 0-.464-.137.103-.206.172-.206.206l.206.258zm-.309 5.302c.035-.069.103-.154.206-.258l-.257-.103-.155.207.052.05c.068.035.12.07.154.104zm.618-1.39a3.98 3.98 0 00.463-.206.555.555 0 00-.206-.103c-.206-.172-.377-.206-.514-.103l-.206.206c.068.034.154.069.257.103a.556.556 0 01.206.103zm.36-2.625c.172-.035.395-.086.669-.155 0-.034-.017-.069-.051-.103v-.103a4.778 4.778 0 01-.669.258v.051l.051.052zm1.287-14.414c-.206.137-.326.24-.36.309 0 .068.017.171.051.308.275-.24.429-.377.464-.411l-.103-.103-.052-.103zm.155 4.633c-.035-.035-.069-.035-.103 0h.103zm-.052 11.068l.103-.206a2.595 2.595 0 00-.36-.258c-.069.103-.103.172-.103.206 0 .035.12.12.36.258zm.566-21.21c.138-.308.275-.6.412-.875l-.257-.102c-.549-.07-.927-.275-1.133-.618l-.411-.206c-.103.171-.035.326.205.463a.544.544 0 01.103.206.64.64 0 01.155.257l.154.31c.069.102.138.188.206.257l.566.309zm0-4.324c.103.069.189.069.258 0-.069-.034-.155-.034-.258 0zm.309-1.647a.61.61 0 01.155-.103c.103-.069.086-.223-.052-.463l-.154-.309a2.115 2.115 0 00-.103.36c0 .035.051.206.154.515z" fill="#000"/><path d="M170.86 140.589v7.168c0 4.328-.323 7.393-.969 9.195-1.391 3.799-4.446 6.561-9.166 8.284-2.879 1.058-6.11 1.587-9.694 1.587-6.287 0-11.32-1.508-15.1-4.525-2.096-1.645-3.467-3.642-4.113-5.992-.509-1.822-.764-4.172-.764-7.051 0-1.841.049-4.358.147-7.55.059-2.076.088-3.652.088-4.73 0-1.723-.196-2.967-.587-3.731-.177-.352-.637-.763-1.381-1.233-1.293-.842-1.939-1.802-1.939-2.879 0-1.254.822-2.213 2.468-2.879 1.606-.647 4.533-.97 8.783-.97 3.173 0 5.837.245 7.991.735 1.155.254 2.037.764 2.644 1.527.352.451.529 1.009.529 1.675 0 .822-.314 1.488-.94 1.997-.118.118-.705.412-1.763.882-.607.294-1.028.822-1.263 1.586-.216.568-.323 1.724-.323 3.467 0 1.88-.02 3.27-.059 4.171-.118 4.426-.176 6.874-.176 7.344 0 3.193.91 5.631 2.732 7.315 1.566 1.45 3.574 2.174 6.022 2.174 2.331 0 4.26-.577 5.787-1.733 1.312-.999 2.155-2.399 2.527-4.201.176-.862.264-2.105.264-3.731v-6.463c-.098-4.563-.225-7.383-.382-8.46-.137-.725-.411-1.264-.822-1.616-.137-.176-.51-.402-1.117-.676-.979-.431-1.625-.793-1.939-1.087-.47-.45-.705-.979-.705-1.586 0-.999.607-1.792 1.822-2.38 1.273-.626 3.633-.94 7.08-.94 2.937 0 5.141.284 6.609.852 1.313.509 1.969 1.352 1.969 2.527 0 .607-.225 1.116-.676 1.527-.157.137-.666.451-1.528.94-1.057.607-1.674 1.371-1.85 2.292-.098.705-.167 3.094-.206 7.168zm16.454-3.702c1.312 0 2.095.177 2.35.529.117.176.176.617.176 1.322.02.725.245 1.087.676 1.087.215 0 .881-.372 1.997-1.116.627-.412 1.469-.813 2.527-1.205 1.508-.529 2.947-.793 4.318-.793 2.429 0 4.622.862 6.581 2.585 1.488 1.312 2.644 2.967 3.466 4.965a17.205 17.205 0 011.293 6.61c0 3.251-.803 6.228-2.409 8.93-1.626 2.742-3.77 4.72-6.434 5.935a11.688 11.688 0 01-4.847 1.057c-1.645 0-3.369-.392-5.17-1.175-.353-.157-.647-.235-.882-.235-.568 0-.852.568-.852 1.704 0 1.371.353 2.38 1.058 3.026.157.137.793.587 1.91 1.351.391.274.587.754.587 1.44 0 1.233-.705 2.174-2.115 2.82-1.332.587-3.153.881-5.464.881-4.211 0-7.922-.852-11.134-2.556-1.626-.861-2.438-1.939-2.438-3.231 0-.607.176-1.116.528-1.528.157-.176.578-.421 1.264-.734.9-.392 1.478-1.048 1.733-1.968.313-1.215.499-2.83.558-4.848l.117-6.375c-.117-3.779-.195-5.963-.235-6.551-.097-1.136-.323-1.792-.675-1.968-.157-.059-.627-.157-1.41-.294-.803-.137-1.391-.528-1.763-1.175a2.512 2.512 0 01-.382-1.351c0-1.058.509-1.949 1.528-2.673 1.136-.803 3.124-1.734 5.963-2.791 3.056-1.117 5.582-1.675 7.58-1.675zm2.761 11.105l-.441 8.079c-.019.332-.029.656-.029.969 0 .509.147.911.441 1.204.568.549 1.38.823 2.438.823 2.722 0 4.083-2.233 4.083-6.698 0-2.879-.568-4.906-1.703-6.081-.706-.725-1.557-1.087-2.556-1.087-1.371 0-2.115.93-2.233 2.791zm54.615-19.742v26.822c0 1.586.068 2.575.205 2.967.157.431.509.842 1.058 1.234.744.548 1.214.989 1.41 1.322.254.43.382.871.382 1.322 0 1.586-1.577 2.79-4.73 3.613-1.488.372-3.359.676-5.611.911-1.175.117-2.135.176-2.879.176-.725 0-1.195-.167-1.41-.499-.078-.138-.147-.51-.206-1.117-.098-1.018-.45-1.527-1.057-1.527-.333 0-.852.293-1.557.881-1.998 1.645-4.231 2.468-6.698 2.468-3.016 0-5.739-1.136-8.167-3.408a16.185 16.185 0 01-3.467-4.642c-1.175-2.311-1.762-4.641-1.762-6.992 0-2.761.764-5.425 2.291-7.99 1.41-2.37 3.33-4.181 5.758-5.435 2.037-1.077 4.044-1.616 6.022-1.616 2.253 0 4.289.5 6.111 1.499.294.176.538.264.734.264.607 0 .911-.823.911-2.468 0-.901-.264-1.566-.793-1.997-.314-.255-.833-.49-1.557-.705-1.234-.392-1.851-1.068-1.851-2.027 0-1.469 1.42-2.595 4.26-3.379 5.033-1.39 8.392-2.086 10.076-2.086 1.684 0 2.527.803 2.527 2.409zm-16.04 14.748c-.529 0-1.078.196-1.646.587a3.969 3.969 0 00-1.292 1.44c-.999 1.802-1.498 4.161-1.498 7.08 0 2.683.479 4.71 1.439 6.081.686.979 1.616 1.469 2.791 1.469 1.136 0 2.017-.608 2.644-1.822.666-1.273.999-3.731.999-7.374 0-3.133-.343-5.209-1.028-6.227-.568-.823-1.371-1.234-2.409-1.234zm34.902-6.287c3.388 0 6.267.862 8.637 2.585 1.41 1.019 2.36 2.252 2.849 3.702.353 1.077.529 2.438.529 4.083 0 .313-.019 1.43-.059 3.349v1.234c0 2.115.118 3.78.353 4.994.176.94.529 1.567 1.058 1.88.137.079.499.167 1.087.265.626.098.94.489.94 1.175 0 1.331-.666 2.663-1.998 3.995-1.919 1.9-4.142 2.85-6.669 2.85-2.036 0-3.662-.725-4.876-2.174-.412-.51-.793-.764-1.146-.764-.372 0-.891.245-1.557.734-1.958 1.469-4.181 2.204-6.669 2.204-2.565 0-4.641-.549-6.228-1.646-.94-.665-1.713-1.527-2.32-2.585a7.811 7.811 0 01-1.058-3.936c0-2.018.823-3.819 2.468-5.406 2.585-2.467 6.424-3.711 11.516-3.731 1.136 0 1.821-.088 2.056-.264.353-.235.529-.774.529-1.616 0-1.821-.127-3.094-.382-3.819-.49-1.41-1.283-2.115-2.38-2.115-.509 0-.998.147-1.468.441-.451.274-1.058.95-1.822 2.027-1.762 2.487-3.584 3.731-5.464 3.731-1.038 0-1.831-.304-2.38-.911-.587-.627-.881-1.342-.881-2.145 0-1.292.666-2.546 1.998-3.76 1.41-1.273 3.466-2.34 6.169-3.202 2.448-.783 4.837-1.175 7.168-1.175zm-2.027 17.009c-.842 0-1.586.363-2.233 1.087-.646.686-.969 1.528-.969 2.527 0 .979.274 1.782.822 2.409.412.489.97.734 1.675.734 1.567 0 2.35-1.332 2.35-3.995 0-1.175-.127-1.939-.382-2.292-.254-.313-.675-.47-1.263-.47zm34.403-9.283v9.93c0 1.175.274 2.115.823 2.82.607.803 1.361 1.204 2.262 1.204.763 0 1.772-.362 3.025-1.087.294-.176.598-.264.911-.264.451 0 .872.294 1.263.881.392.568.588 1.175.588 1.822 0 1.214-.666 2.389-1.998 3.525-2.8 2.37-6.159 3.555-10.076 3.555-3.016 0-5.484-.852-7.403-2.556-2.017-1.782-3.026-4.162-3.026-7.139v-13.572c0-.49-.069-.784-.206-.881-.078-.079-.342-.118-.793-.118h-3.026c-.587 0-.95-.098-1.087-.294-.137-.137-.215-.568-.235-1.292v-1.293c.02-.587.245-1.018.676-1.293l13.455-8.46c.333-.176.744-.265 1.234-.265h2.379c.47 0 .774.079.911.235.215.294.323.774.323 1.44v3.966c0 .587.088.96.264 1.116.216.196.617.294 1.205.294h5.435c.724 0 1.204.157 1.439.47.196.274.294.813.294 1.616v1.733c-.02.921-.147 1.557-.382 1.91-.294.391-.803.587-1.528.587h-5.317c-.568 0-.94.098-1.116.294-.196.215-.294.587-.294 1.116zm34.638 8.402h-13.807c-.607 0-.911.245-.911.734 0 .999.45 1.998 1.351 2.997 1.43 1.586 3.124 2.379 5.083 2.379 1.214 0 2.487-.244 3.819-.734.881-.352 1.625-.734 2.232-1.146.686-.489 1.205-.734 1.557-.734.529 0 1.028.313 1.499.94.509.666.763 1.322.763 1.968 0 1.391-.881 2.752-2.644 4.084-3.114 2.33-6.707 3.496-10.781 3.496-4.093 0-7.54-1.195-10.341-3.584-1.351-1.176-2.467-2.595-3.349-4.26-1.155-2.233-1.733-4.573-1.733-7.021 0-4.759 1.939-8.667 5.817-11.722 2.937-2.33 6.355-3.496 10.252-3.496 3.721 0 6.884 1.058 9.489 3.173a12.234 12.234 0 013.173 3.76c.92 1.645 1.381 3.271 1.381 4.877 0 1.253-.314 2.36-.941 3.32-.45.646-1.086.969-1.909.969zm-13.044-5.493h2.968c1.253 0 1.88-.568 1.88-1.704 0-1.097-.314-1.978-.94-2.644-.607-.647-1.391-.97-2.351-.97-1.096 0-1.958.431-2.585 1.293-.587.822-.881 1.635-.881 2.438 0 .49.147.901.441 1.234.215.235.705.353 1.468.353zm26.442-10.635c1.058 0 2.674.225 4.848.676.45.098.822.147 1.116.147.313 0 .959-.187 1.939-.559.45-.176.852-.264 1.204-.264.862 0 1.753.578 2.674 1.733a13.324 13.324 0 012.085 3.672c.294.823.441 1.577.441 2.262 0 .784-.313 1.45-.94 1.998-.529.451-1.165.676-1.91.676-.724 0-1.449-.225-2.174-.676-.352-.235-1.106-.911-2.262-2.027-1.292-1.214-2.35-1.821-3.172-1.821-.568 0-1.058.225-1.469.675a1.996 1.996 0 00-.529 1.381c0 .901.921 1.792 2.761 2.673 3.467 1.646 6.003 3.271 7.609 4.877 1.489 1.508 2.233 3.329 2.233 5.464 0 2.722-1.195 4.994-3.584 6.816-2.076 1.586-4.593 2.379-7.55 2.379-.744 0-2.145-.127-4.201-.382-1.9-.215-2.967-.323-3.202-.323-.216 0-.5.03-.852.088-.548.079-.95.118-1.205.118-.94 0-1.674-.235-2.203-.705-.783-.686-1.518-1.792-2.203-3.32-.705-1.567-1.058-2.967-1.058-4.201 0-1.018.275-1.762.823-2.232.294-.255.715-.382 1.263-.382.607 0 1.293.333 2.056.998.275.235 1.068 1.048 2.38 2.439.979 1.057 1.763 1.713 2.35 1.968.451.196.901.294 1.352.294.744 0 1.292-.206 1.645-.617.333-.392.499-.813.499-1.263 0-.882-.754-1.685-2.262-2.409-2.742-1.352-4.818-2.752-6.228-4.201-1.802-1.802-2.703-3.907-2.703-6.316 0-2.331.715-4.338 2.145-6.023 2.056-2.409 4.818-3.613 8.284-3.613z" fill="#fff"/></svg>