<svg viewBox="0 0 154 113" fill="none" xmlns="http://www.w3.org/2000/svg"><circle cx="55.152" cy="65.178" r="47.63" fill="#C93A29"/><path d="M41.784 8.318c6.418-1.098 11.394.034 14.929 3.398 2.745 2.574 4.05 5.817 3.912 9.729-.137 4.05-1.767 7.533-4.89 10.45-2.608 2.402-5.937 3.964-9.987 4.685-.48.068-.927.12-1.338.154h-.876c-.171 0-.326.017-.463.051a.347.347 0 00-.309.155 3.295 3.295 0 00-.103.515c-.926 5.182-1.39 7.876-1.39 8.082 0 .446-.223.652-.669.617H32.621c-.378 0-.583-.085-.618-.257-.034-.172.069-.806.31-1.905.205-.995.377-1.87.514-2.625 1.75-8.923 3.174-16.593 4.273-23.01.377-1.888.617-2.832.72-2.832.069.034.12.051.155.051 5.594-.034 8.477-.017 8.648.052.103.034.12.206.052.515-2.025 10.227-3.038 15.512-3.038 15.855.069.171.206.24.412.206 1.579-.378 2.934-1.064 4.067-2.06 1.167-1.029 2.025-2.196 2.574-3.5.583-1.338.892-2.745.927-4.221.068-1.476-.12-2.848-.567-4.118-.446-1.27-1.2-2.385-2.265-3.346-1.03-.961-2.282-1.562-3.758-1.802-2.025-.343-4.05-.034-6.074.927-2.025.96-3.518 2.041-4.479 3.243-.926 1.2-1.132 1.99-.617 2.368.823.583 1.338 1.407 1.544 2.47.206 1.03-.017 1.991-.67 2.883-.617.858-1.595 1.356-2.934 1.493-.96.069-1.836-.206-2.625-.823-.755-.652-1.167-1.459-1.236-2.42-.034-.171-.102-.549-.205-1.132a13.801 13.801 0 01-.103-1.39c.068-1.75.497-3.363 1.287-4.84a11.622 11.622 0 013.243-3.706 19.849 19.849 0 014.427-2.47 24.638 24.638 0 015.2-1.442zm-4.53 30.218c.034.068.103.085.206.051-.069-.069-.137-.086-.206-.051zm.309 1.03c0-.035.017-.07.051-.104h-.051c-.034.035-.034.069 0 .103zm-.155-1.597c0-.034.018-.068.052-.102.103-.172.137-.31.103-.412l-.103-.206-.103.103h-.103v.154c-.069.172-.069.292 0 .36.069.035.12.07.154.103zm2.78-15.7c-.103-.07-.171-.103-.206-.103l-.103.103c0 .034.018.068.052.103l.103.051c.034 0 .051-.017.051-.051.035-.07.069-.103.103-.103zM38.696 38.69h-.103l.051.052h.052v-.052zm-.824-8.597a.64.64 0 00.36 0c-.069-.068-.189-.068-.36 0zm.515 10.502l.206-.103c.102-.103.188-.172.257-.206a.599.599 0 00-.103-.154.599.599 0 00-.103-.155c0-.034-.017-.051-.051-.051-.206.274-.31.429-.31.463l.104.206zm.772-8.443l.103.052c0-.035.034-.137.103-.309l-.155.154c-.034.035-.051.07-.051.103zm.617 2.677c0-.034.018-.068.052-.103 0-.034-.017-.051-.052-.051v-.103c-.034.103-.034.189 0 .257zm-.411-2.934c.343.034.497-.12.463-.463l-.155-.155c-.205.378-.308.584-.308.618zm.772-4.17c.24-.034.36-.223.36-.566v-.154c0-.172-.103-.395-.309-.67-.034 0-.068.017-.103.052-.274.206-.412.36-.412.463 0 .206-.05.463-.154.772l.618.103zm1.08-6.795a354.82 354.82 0 01-.205-.154l-.309.206h.103c.069.034.12.068.155.103.102-.07.188-.12.257-.155zm.155 5.096l-.154-.154c-.069-.103-.155-.103-.258 0-.068.069-.12.103-.154.103l.103.103c.103.103.189.12.257.051l.206-.103zm-.669 9.884c.069-.068.069-.137 0-.206a.219.219 0 000 .206zm.103-7.361c.137.137.223.206.257.206.035 0 .24-.086.618-.258a1.597 1.597 0 00-.309-.102.5.5 0 00-.257-.104 2.996 2.996 0 01-.309.258zm1.339-1.133v-.051l-.052.051h.051zm9.214.515l.154-.154-.102-.103c-.07-.034-.12-.017-.155.051l-.051.052c0 .034.017.068.051.103l.103.051zm.206 1.853l.052-.051c-.035 0-.052-.017-.052-.052 0 .035-.017.052-.051.052l.051.051zm.978-13.538c.137-.069.189-.12.154-.155l-.514-.772-.206.154c.137.31.257.584.36.824 0 .034.017.052.052.052a.598.598 0 00.154-.103zm2.265 2.985l.258.206c.034 0 .12-.051.257-.154-.206-.103-.378-.12-.515-.052zm.36-1.184l.31-.154a2.04 2.04 0 01-.31-.258c-.137.138-.206.224-.206.258l.206.154zm28.937 5.663c.068.137.017.292-.155.463-.171.172-.686.618-1.544 1.339-.515.446-.927.806-1.235 1.08-.31.241-.67.55-1.082.927-.651.55-1.063.858-1.235.927-.137.069-.292.017-.463-.155l-.31-.308a1.21 1.21 0 00-.411-.258 1.185 1.185 0 00-.412-.103 3.405 3.405 0 00-.463-.154 3.077 3.077 0 00-.412-.103c-1.476-.412-2.951.086-4.427 1.493l-.206.206c-.927.892-1.544 1.784-1.853 2.677-.275.892-.807 3.62-1.596 8.185-.24 1.304-.429 2.333-.566 3.088-.069.343-.12.687-.155 1.03-.034.343-.068.618-.103.824l-.103.514c0 .172-.017.31-.051.412a.457.457 0 01-.051.206c-.035.069-.086.103-.155.103a.457.457 0 01-.206.051c-.069.035-.189.052-.36.052-5.423 0-8.202-.017-8.34-.052-.068-.034-.085-.171-.051-.411 0-.035.154-.807.463-2.317.309-1.51.687-3.398 1.133-5.663.446-2.264.892-4.547 1.338-6.846.446-2.334.84-4.427 1.184-6.28.343-1.888.55-3.09.618-3.604.034-.377.086-.583.154-.618.069-.068.292-.103.67-.103H71.596c.308 0 .48.086.514.258.035.137-.017.497-.154 1.08-.103.481-.189.876-.257 1.185l.051.257c.206-.068.738-.377 1.596-.926a14.474 14.474 0 012.831-1.39 7.766 7.766 0 013.192-.464c2.334.138 3.912 1.27 4.736 3.398zM63.822 36.888c-.034 0-.068-.017-.103-.051-.068-.034-.12-.034-.154 0l-.103.103.154.154.206-.206zm-.566-1.647l-.051.051c.034 0 .051.018.051.052l.052-.052-.052-.05zm-.206 5.457l.567.309.36-.31a4.594 4.594 0 01-.463-.257 4.578 4.578 0 01-.464.258zm.824-9.627l.206.155.309-.155-.36-.206-.155.206zm1.39-2.728c.068.069.137.086.206.052-.035-.07-.103-.086-.206-.052zm2.059 4.427a.219.219 0 00.206 0 .219.219 0 00-.206 0zm.36-4.015v-.103h-.051c0 .034.017.069.051.103zm0-3.964c.035-.069.035-.154 0-.257-.068.103-.068.188 0 .257zm.31.154v-.051c.034-.034.05-.069.05-.103h-.05c0-.034-.018-.052-.052-.052-.035.07-.017.138.051.206zm.308 2.368l.052-.051c-.035 0-.052-.017-.052-.052l-.052.052.052.051zm1.338.052l-.102-.309c-.515.172-.841.326-.979.463.172.069.31.069.412 0l.103.103a.843.843 0 00.206.052.395.395 0 00.154-.052c.07-.068.138-.154.206-.257zm21.712-6.59c3.74-.823 6.83-.668 9.266.464 2.436 1.098 3.964 2.797 4.581 5.096.652 2.265.79 4.668.412 7.207-.377 2.54-1.458 4.96-3.243 7.259-1.75 2.265-3.895 3.86-6.435 4.787-2.745.927-5.216 1.15-7.413.67-2.162-.481-3.963-1.545-5.405-3.192-1.407-1.648-2.213-3.62-2.42-5.92-.411-4.256.413-7.86 2.472-10.81 2.059-2.986 4.787-4.84 8.185-5.56zm-8.7 16.577V37.3H82.6c0 .035.017.052.051.052zm18.584-11.068c-.103-.172-.206-.206-.309-.103l-.052.051.103.103c.069.035.103.069.103.103l.155-.154zm-17.194 7.722l.257.257.206-.154c-.171-.103-.326-.138-.463-.103zm1.03-2.265c.068-.035.154-.103.257-.206l-.566-.567c-.103.103-.155.172-.155.206.034 0 .189.189.463.567zm.257 9.06c.274.137.429.206.463.206.034 0 .155-.103.36-.31l-.102-.154c-.103.035-.24.086-.412.155-.138.034-.24.068-.31.103zm.823-9.678l.206-.103c-.034-.035-.051-.069-.051-.103v-.052c-.137.07-.206.103-.206.103l.052.155zm8.134 7.721c.755-.686 1.39-1.578 1.905-2.676.514-1.099.84-2.214.978-3.346.171-1.167.12-2.283-.155-3.347-.137-.446-.48-.84-1.03-1.184-.514-.343-1.115-.549-1.8-.617-.653-.103-1.357.034-2.112.412-.72.377-1.32.995-1.801 1.853-.343.686-.618 1.476-.824 2.368-.206.892-.292 1.887-.257 2.985.068 1.099.326 2.094.772 2.986.377.755.995 1.201 1.853 1.339.858.137 1.682-.12 2.471-.773zm5.045-1.801l.103-.103.051-.052a.601.601 0 01-.154-.103c-.069.138-.069.224 0 .258zm.566-5.92l.258-.618c0-.034-.069-.137-.206-.309a.807.807 0 00-.206.155c-.138.137-.206.223-.206.257s.034.12.103.257l.257.258zm.412-5.972c0-.034.069-.085.206-.154-.034-.137-.069-.223-.103-.258l-.257.258.051.103.103.051zm.978 3.346l-.154-.154-.309.154c.137.07.291.07.463 0zm-.412 9.163h.103c.137-.034.223-.085.258-.154v-.103h-.206l-.155.258zm.412-.257c.137 0 .309-.017.515-.051a2.13 2.13 0 00-.361-.103l-.154.154zm1.544-6.486l.206.206.258-.206c-.138-.069-.292-.069-.464 0zm47.988 4.118c.206.137.498.309.876.515.995.618 1.578 1.012 1.75 1.184.171.172.189.377.051.618-.137.206-.326.515-.566.926-.24.378-.463.721-.669 1.03-.172.309-.36.583-.566.824-.996 1.338-2.248 2.522-3.758 3.552-1.476 1.029-2.986 1.767-4.53 2.213-1.51.446-2.935.446-4.273 0-1.338-.446-2.317-1.39-2.934-2.831a9.688 9.688 0 01-.772-3.552c-.035-1.27.068-2.385.308-3.346.275-.996.515-2.025.721-3.089.24-1.098.378-2.042.412-2.831.069-.79-.12-1.63-.566-2.523-.138-.24-.395-.377-.773-.412a1.75 1.75 0 00-1.081.258c-.72.446-1.75 1.39-3.088 2.831-.206.24-.378.755-.515 1.544-.103.79-.275 2.214-.515 4.273a129.828 129.828 0 01-.772 6.126c-.412 2.471-.669 3.74-.772 3.81a.718.718 0 01-.309.05h-5.457c-1.51 0-2.402-.016-2.677-.05-.24 0-.36-.086-.36-.258h-.051c0-.377.446-2.797 1.338-7.258 1.476-7.07 1.527-10.81.154-11.223-.96-.274-2.573.875-4.838 3.45-.172.171-.292.428-.361.772-.926 4.564-1.681 8.7-2.265 12.406-.171 1.064-.292 1.699-.36 1.905-.035.171-.155.257-.361.257h-.103c-.617 0-1.218-.017-1.801-.052h-1.699a19.47 19.47 0 01-1.236.052h-1.081c-1.475 0-2.333-.034-2.573-.103-.241-.034-.326-.206-.258-.515v-.103c.446-2.196.944-4.633 1.493-7.31.549-2.71.927-4.633 1.133-5.765.24-1.133.497-2.42.772-3.861.274-1.441.463-2.488.566-3.14.137-.687.257-1.407.36-2.162.138-.755.258-1.476.361-2.162.034-.344.103-.55.206-.618.103-.103.326-.155.669-.155 5.456-.034 8.236-.017 8.339.052.069.034.086.137.052.309-.035.206-.172 1.047-.412 2.522a99.477 99.477 0 012.522-1.493c.584-.343 1.339-.669 2.265-.978.961-.309 1.871-.446 2.729-.412 2.539.103 4.204 1.304 4.993 3.604.103.274.24.412.412.412s.395-.103.669-.31c.309-.205.635-.463.978-.771.378-.31.824-.635 1.339-.978a12.069 12.069 0 011.698-.978c.584-.31 1.27-.55 2.06-.721a8.178 8.178 0 012.419-.258c2.128.069 3.621.961 4.479 2.677.892 1.682 1.132 3.724.72 6.126-.171.893-.377 1.922-.617 3.089l-.515 2.42c-.069.48-.103 1.046-.103 1.698 0 .618.103 1.253.309 1.905.137.48.377.79.72.926.344.138.738.103 1.184-.103a7.561 7.561 0 001.545-1.03c.48-.41.858-.788 1.132-1.132.309-.377.584-.72.824-1.03.24-.342.429-.583.566-.72.172-.137.326-.171.463-.103zm-40.719 1.75c0 .035-.017.069-.051.103l-.103.103c.034 0 .068.017.103.052.034.034.068.051.103.051l.103-.154-.155-.155zm-.36-1.544l-.052.051c0 .035.018.052.052.052 0-.034.017-.052.051-.052-.034 0-.051-.017-.051-.05zm-.36-3.603h-.052c.034.034.069.051.103.051v-.051h-.051zm-.155-.31c-.034.035-.034.07 0 .104v-.052l.052-.051h-.052zm.258 9.679c.308.034.617-.052.926-.258l-.309-.206c-.034-.034-.137-.034-.309 0-.171 0-.326.017-.463.052 0 .034-.051.12-.154.257.171.103.274.155.309.155zm.823-9.936l.206.155c.034 0 .137-.052.309-.155l-.309-.206-.206.206zm1.545-2.42l.102-.205-.102-.155-.103.104c-.035.034-.052.068-.052.102l.052.052c.068.034.103.069.103.103zm1.904 4.12a.22.22 0 00.206 0c-.034-.035-.103-.035-.206 0zm.361-4.068c.034 0 .051-.017.051-.051h-.051-.052l.052.051zm0-3.912l.051-.103-.051-.051v-.052a.215.215 0 000 .206zm.308.154l.052-.051v-.103l-.052-.052a.22.22 0 000 .206zm.361 2.368v-.051l-.052-.052-.051.052c.034.034.068.051.103.051zm.309.31h.103c.343.034.549.05.617.05.069-.033.12-.12.155-.257l.103-.308c-.584.171-.961.291-1.133.36l.155.154zm10.244-1.7a4.81 4.81 0 01-.309.464c0 .034.017.086.051.154l.103.103a.46.46 0 00.206.052l.515-.206a1.8 1.8 0 00-.36-.36l-.206-.206zm-1.75 10.862c-.069.103-.086.19-.052.258l.154-.155-.051-.051-.051-.052zm.102 4.53c0-.034.018-.068.052-.102h-.052c-.034.034-.034.068 0 .102zm.515-10.758l.103-.052c.069-.069.086-.137.052-.206l-.206-.051a.574.574 0 00-.103.154c-.103.172-.137.292-.103.36l.103.206c.068-.24.12-.377.154-.411zm.361-5.406a.584.584 0 01.154-.103c.103-.068.086-.223-.051-.463l-.155-.309a2.224 2.224 0 00-.103.36l.155.515zm.566 12.767c.103-.034.515-.24 1.235-.618l-.103-.154c-.137-.069-.36-.069-.669 0-.274.034-.463.103-.566.206a.55.55 0 00-.103.309.46.46 0 00.051.206.4.4 0 00.155.05zm.051-9.215h.309c.035 0 .155-.068.361-.206.205-.137.394-.24.566-.308.274-.138.274-.292 0-.464-.034 0-.24-.068-.618-.206l-.154.052c-.446.652-.601 1.03-.464 1.132zm1.39 6.744c.103-.137.189-.24.258-.309a1.58 1.58 0 00-.206-.154c-.103.206-.155.326-.155.36l.103.103zm-.051-8.854c.171-.103.292-.189.36-.258-.103-.068-.171-.085-.206-.051l-.309.154c0 .035.018.069.052.103.034.035.068.052.103.052zm.618 7.258a.581.581 0 01.154-.103.559.559 0 01-.103-.206c-.034 0-.051-.017-.051-.051l-.155.103.155.257zm-.206-2.883c.034 0 .085.035.154.103.069.069.137.12.206.155.275-.172.446-.275.515-.31a32.948 32.948 0 01-.206-.102c-.206-.137-.361-.154-.463-.052l-.206.206zm.514 2.523c-.034.274.052.377.258.309.034-.035.189-.103.463-.206a8.203 8.203 0 01-.463-.36c-.035 0-.086.034-.155.102a.574.574 0 01-.103.155zm3.141-5.869a.64.64 0 00.36 0c-.069-.068-.189-.068-.36 0zm8.957 10.708a.576.576 0 00.103-.206l-.103-.052c-.069-.068-.103-.12-.103-.154l-.103.257.206.155zm.309-6.435l.051-.052a.404.404 0 00.052-.154l-.155-.051-.154.103c.034.034.103.085.206.154zm.36 10.656l.051-.052c-.034 0-.051-.017-.051-.051 0 .034-.017.051-.051.051v.052h.051zm.206-.36l.154.103c.035-.035.155-.12.361-.258l-.309-.154-.206.309zm-.309-2.163l.36.31c.035 0 .206-.104.515-.31l-.051-.154-.567-.103-.257.258zm.721-2.367l.309-.618c0-.035-.052-.086-.155-.155-.068-.068-.137-.103-.206-.103l-.309.36c.035.104.086.224.155.361.103.103.171.154.206.154zm1.441-8.288c.034-.07-.017-.24-.154-.515-.103-.275-.189-.463-.258-.567a68.42 68.42 0 01-.772-.875c-.069.275-.086.464-.051.567.034.068.24.497.617 1.287.103.171.172.257.206.257a.557.557 0 00.412-.154zM31.968 49.99c2.025.034 4.118.034 6.28 0 1.476 0 2.231.068 2.265.206 0 .034-.017.12-.051.257v.103c-.275 1.201-1.373 6.864-3.295 16.988-1.887 10.09-3.054 16.644-3.5 19.664v.052c0 .137-.086.223-.258.257-.171.035-.772.035-1.801 0H27.953c-.79.035-1.39.035-1.802 0-.378 0-.824-.017-1.338-.051-.515 0-.893-.035-1.133-.103-.24-.069-.36-.172-.36-.31a6624.14 6624.14 0 01-2.78-12.25c-1.613-7.276-2.488-10.966-2.626-11.069-.068.103-.291 1.184-.669 3.243-.377 2.025-.806 4.342-1.287 6.95-.48 2.574-.926 4.976-1.338 7.207a420.01 420.01 0 00-.72 4.273 6.95 6.95 0 00-.155.823c-.035.24-.052.43-.052.566 0 .103-.017.224-.051.36a.56.56 0 01-.103.207c0 .034-.052.068-.155.103a.844.844 0 01-.257.051h-.412c-5.32 0-8.048-.017-8.185-.051-.103-.103-.12-.292-.051-.566A3511.8 3511.8 0 017.053 73.72a525.97 525.97 0 001.338-7c.24-1.34.412-2.335.515-2.987.103-.686.257-1.578.463-2.677.206-1.132.498-2.676.875-4.633.069-.24.086-.429.052-.566-.035-.171-.155-.189-.36-.051-2.163 1.304-3.501 2.831-4.016 4.581-.137.515-.017.893.36 1.133.893.514 1.442 1.304 1.648 2.368.24 1.064.051 2.076-.567 3.037-.549.892-1.372 1.424-2.47 1.596-1.099.137-2.008-.035-2.729-.515C.55 67.012-.138 64.609.103 60.8c.103-1.647.652-3.192 1.647-4.633a12.858 12.858 0 013.655-3.552 21.66 21.66 0 014.685-2.214c1.681-.549 3.294-.84 4.839-.875.343 0 1.03-.017 2.059-.051 1.03-.034 1.836-.069 2.42-.103.068 0 .188.034.36.103.171.034.291.051.36.051.274-.034.446.069.515.31.103.24.309 1.063.617 2.47.035.206.447 2.128 1.236 5.766a939.927 939.927 0 012.522 11.376c.893 3.947 1.39 6.11 1.493 6.487.378-1.099 1.459-6.59 3.243-16.473.378-2.094.738-4.307 1.081-6.641.206-1.373.36-2.18.464-2.42.103-.274.326-.411.669-.411zm-21.93 30.886h.052c0-.034-.017-.05-.052-.05l-.051.05h.051zm-.206-1.595l.31-.103a.808.808 0 01-.207-.155.599.599 0 00-.103-.154c0-.034-.017-.069-.051-.103-.103.137-.086.309.051.515zm8.237-26.563l-.258.257.052.103a.6.6 0 00.154-.103c.069-.068.12-.103.155-.103a.596.596 0 00-.103-.154zm-.618.772l-.206-.103c-.069-.068-.154-.051-.257.052a.596.596 0 01-.103.154c.171.103.291.137.36.103l.206-.206zm-.72-.412c-.104-.068-.19-.051-.258.052l.154.103a.595.595 0 00.103-.155zm-2.317.155c-.24.274-.36.429-.36.463l.257.206.309-.309a2.007 2.007 0 01-.103-.257c-.034-.069-.069-.103-.103-.103zM13.076 52.1a.596.596 0 00-.104.155c.104.068.19.068.258 0l-.103-.103-.052-.052zm.36 2.883c-.034 0-.103-.034-.206-.103a.5.5 0 00-.258-.103c-.034-.034-.102-.034-.205 0-.07 0-.12.034-.155.103-.069.137-.086.24-.051.309.068.034.154.103.257.206.137.069.223.137.258.206.034.034.411-.035 1.132-.206v-.103a1.159 1.159 0 00-.412-.206 4.91 4.91 0 01-.36-.103zm-.67-3.037c-.102-.035-.188-.035-.257 0l.103.103.052-.052c.034-.034.068-.051.103-.051zm-2.419 19.51a.64.64 0 00.36 0c-.068-.069-.188-.069-.36 0zm.463 10.605l.36-.412c.035-.035-.016-.138-.154-.31l-.103.104c-.137.137-.188.274-.154.412 0 .068.017.137.051.206zm.31-2.008c0 .034.016.051.05.051v-.051V80l-.05.052zm.823-6.847c.137-.137.223-.206.257-.206l-.103-.103c0-.068-.017-.103-.051-.103l-.206.155.103.257zm.72-4.17c.035 0 .172-.171.412-.514l-.102-.412c-.172-.309-.292-.48-.36-.515-.172-.034-.327.069-.464.31-.137.205-.24.445-.309.72-.069.24-.069.36 0 .36.515.069.79.086.824.052zm-.463-4.375l.052.051v-.051H12.2zm.824.618c-.034.034-.034.068 0 .103v-.052c0-.034.017-.051.052-.051h-.052zm.257 4.633l.31.206.566-.258-.515-.257-.155.154c-.103.069-.171.12-.206.155zm0-2.523a.599.599 0 01.103.155c.138.103.258.12.36.051a.806.806 0 01.207-.154 3.077 3.077 0 00-.31-.412l-.36.36zm1.339 1.39v-.051c-.034 0-.052.017-.052.051h.052zm4.17-10.09c.24-.137.326-.343.257-.617a.582.582 0 00-.206-.206.653.653 0 00-.309-.155.972.972 0 00-.309-.051H17.76c-.309 0-.446.12-.412.36 0 .172-.069.275-.206.31-.206.033-.326-.07-.36-.31 0-.034.017-.086.051-.154.138-.343 0-.515-.411-.515-.31 0-.378-.154-.206-.463.103-.275.343-.326.72-.155.035 0 .155-.017.36-.051-.17-.24-.308-.378-.411-.412-.275-.069-.43-.326-.463-.772-.035-.31.12-.463.463-.463l.103-.155c-.137-.137-.275-.189-.412-.154-.343.034-.566.034-.67 0-.068-.069-.154-.275-.257-.618a1.145 1.145 0 01-.103-.515c0-.206-.034-.36-.103-.463a1.159 1.159 0 00-.205-.412c-.035 0-.12.069-.258.206-.069.103-.034.189.103.257.172.378.223.618.155.721-.24.72-.138 1.236.308 1.544.035 0 .035.086 0 .258l-.103.051c0-.137-.085-.171-.257-.103-.137.035-.223.017-.257-.051-.138-.103-.258-.137-.36-.103-.104.034-.172.12-.207.257 0 .206-.171.412-.514.618-.412.275-.652.6-.721.978a2.16 2.16 0 00.154 1.03c.172.343.24.549.206.617-.034.206-.034.326 0 .36.035.035.138.07.31.104.411.034.6.24.565.617-.034.378-.257.515-.669.412-.206-.068-.291-.017-.257.155 0 .206.034.377.103.514a.953.953 0 010 .618c-.035.206-.137.326-.31.36-.136 0-.36.086-.668.258a2.854 2.854 0 01-.67.257c-.137 0-.36-.085-.669-.257-.034 0-.12.017-.257.051l.154.155c.035.309.258.6.67.875.411.275.652.463.72.566l.206-.154c.515-.275.875-.172 1.081.309.137.309.532.463 1.184.463l-.103-.412a3.1 3.1 0 00-.257-.206 1.463 1.463 0 00-.31-.257l-.308-.155a1.143 1.143 0 00-.36-.154.64.64 0 00-.36 0c-.24 0-.43-.051-.567-.154-.103-.138-.12-.31-.051-.515.068-.24.257-.31.566-.206.343.103.72.24 1.132.412.412.171.91.154 1.493-.052l-.051-.618c-.034-.48.086-.755.36-.823.275-.069.584-.052.927.051.343.069.617-.086.823-.463v-.36a1.61 1.61 0 00-.411.308l-.206.206a.844.844 0 01-.206-.051c-.069-.034-.189-.137-.36-.309l-.207-.103c-.068.137-.291.275-.669.412-.343.137-.532.343-.566.618l-.515.206.052-.464c0-.034.017-.068.051-.103.034-.137.052-.223.052-.257a.219.219 0 000-.206c-.035-.103-.12-.172-.258-.206-.034-.034-.051-.12-.051-.257 0-.138.017-.258.051-.36 0-.035.052-.087.155-.155.103-.103.154-.189.154-.258.034-.205.137-.326.309-.36.172-.034.275-.017.309.052.103.137.343.24.72.308.378.07.618.206.721.412 0 .035.086.069.258.103-.035-.549 0-.858.103-.926.411-.206.669-.138.772.206 0 .034.206.085.617.154-.205-.583-.205-.927 0-1.03zm.514 4.633c.035 0 .069-.017.103-.051.035-.069.069-.103.103-.103-.137-.103-.257-.12-.36-.051.069.102.12.171.154.206zm16.319-8.236l.051.052v-.052h-.051zm-1.544 3.449c-.035.034-.035.052 0 .052l.051-.052h-.052zm-.258-2.831l-.206.103.052.154h.103c.034-.034.051-.069.051-.103v-.051-.103zm-1.441 7.155c-.069.103-.052.189.051.258l.103-.155h-.051l-.103-.103zm-.31 1.03a.218.218 0 00-.205 0c0 .034.034.051.103.051h.051l.052-.051zm0 5.971l-.05-.051v.051l.05.052v-.052zm-.668 1.184c0 .035-.018.052-.052.052.034 0 .052.017.052.051h.051v-.051l-.051-.052zm-1.236 4.221c-.068 0-.171.155-.309.464l.052.051h.154a1.79 1.79 0 00.772-.36c-.171-.172-.394-.223-.669-.155zm-3.243 3.913l-.154.206.154.154.103-.103-.103-.257zM23.886 69.14l.051-.052-.051-.051-.052.051v.052h.052zM25.12 84.17a.219.219 0 00.206 0l-.154-.051-.052.051zm1.648-2.78l.206-.36c-.172-.72-.275-1.098-.31-1.133-.308.172-.48.292-.514.36-.034.035-.034.155 0 .361.034.034.051.103.051.206l.103.206c.035.309.19.429.464.36zm.257 2.677v-.051h.052l-.052-.052-.051.052c.034 0 .051.017.051.051zm.412-5.714l.154.155.155-.155c0-.034-.017-.069-.052-.103-.034-.034-.051-.069-.051-.103a.596.596 0 00-.103.155c-.035.034-.069.051-.103.051zm1.287 3.604c.24-.035.394-.103.463-.206a.834.834 0 00.155-.515c.034-.24.068-.395.102-.463l-.051-.206-.154.051c-.275.343-.67.378-1.184.103-.24-.137-.36-.086-.36.154s.085.43.257.567c.137.068.206.154.206.257a.219.219 0 010 .206c-.035.034-.086.12-.155.257l-.103.31.155.257.308-.31c.275-.308.395-.462.36-.462zm.772-2.626l.103-.154c0-.172-.137-.206-.412-.103-.034 0-.069.017-.103.051l.412.206zm.103 2.626h-.052v-.052l-.051.052v.051h.052l.05-.051zm-.155 3.088c.035.035.07.052.104.052.068.068.12.068.154 0 .034-.035.069-.052.103-.052-.103-.103-.172-.154-.206-.154l-.155.154zm.567-2.059l.206-.154c-.035-.035-.103-.155-.206-.36a.396.396 0 01-.155.05l-.103.258a.496.496 0 00.258.206zm-.206-3.397c-.035.068-.017.137.051.206l.052-.155h-.052c0-.034-.017-.051-.051-.051zm.772 1.595l.155.155c.034 0 .205-.103.514-.309-.103-.103-.171-.155-.206-.155l-.463.31zm.052-1.698c.103-.069.343-.292.72-.67.412-.377.618-.583.618-.617-.069-.035-.189-.138-.36-.31-.07.104-.103.172-.103.207-.069.24-.19.394-.36.463a.75.75 0 01-.464.052c-.137-.07-.309-.155-.515-.258l-.257-.206c-.103-.034-.223-.12-.36-.257-.138-.138-.258-.206-.36-.206-.07-.034-.207-.017-.413.051-.034 0-.154.069-.36.206.24.103.377.155.412.155.446 0 .72.189.823.566a.812.812 0 00.206.309c.103.069.223.154.36.257.172.103.292.189.361.258h.052zm1.492-2.677c0-.138-.034-.223-.103-.258-.068-.068-.171-.103-.308-.103a.715.715 0 01-.31-.051l-.514.257c.034.069.24.464.618 1.184.377-.652.583-.995.617-1.03zm-.463-4.84c.172.138.343.293.515.464.069-.103.086-.189.051-.257 0-.069-.137-.172-.412-.31l-.154.104zm.566 1.751l.36.103.155-.206a8.132 8.132 0 00-.463-.051l-.052.154zm.515-10.965c.034.035.154.138.36.31a.805.805 0 01.206-.155c.103-.069.172-.103.206-.103l-.463-.36-.309.308zm.412 4.17v-.052c0-.034-.017-.034-.052 0v.052h.052zm.309 3.192c-.035.137-.017.223.051.257 0-.034.017-.069.052-.103l.103-.103a.457.457 0 01-.206-.051zm.154 9.369c.035-.103.035-.172 0-.206a.219.219 0 000 .206zm.155-18.327h.154c.103 0 .154-.017.154-.051 0-.034.018-.086.052-.154.069-.07.154-.206.257-.412l-.051-.155c-.206.172-.378.31-.515.412a1.69 1.69 0 00-.206.258.6.6 0 00.155.102zm.566 11.892l.103.103.206-.103-.155-.103-.154.103zm.463-16.216l.206.103c.103.035.189.069.258.103.102.035.188.069.257.103.24-.172.36-.274.36-.309 0-.034-.034-.103-.103-.206-.068-.103-.12-.137-.154-.103-.103 0-.378.103-.824.31zm.978 2.626c.069.068.138.085.206.051-.034-.069-.103-.086-.206-.051zM14.053 57.35c.481.618.773 1.012.876 1.184a.457.457 0 01-.052.206.396.396 0 01-.051.154.599.599 0 01-.103.155c-.24.137-.618-.223-1.133-1.081l-.051-.103c-.069-.103-.069-.223 0-.36.034 0 .137-.086.309-.258.137.034.205.069.205.103zm1.442.978c.24-.24.377-.36.412-.36.034 0 .291.171.772.514a8.231 8.231 0 00-.36.258c-.172.137-.326.137-.464 0l-.154-.154-.206-.258zm2.214.103c0-.034.102-.172.308-.412.069.137.19.326.36.566l-.308.31c0-.035-.034-.052-.103-.052a.396.396 0 00-.155-.052l-.154-.154c-.034-.069-.017-.137.052-.206zm37.404 19.201c.24.138.463.275.669.412.24.138.292.343.154.618-.892 1.75-2.093 3.346-3.603 4.788-1.476 1.407-3.003 2.47-4.582 3.191-1.544.72-3.071 1.047-4.581.978-1.476-.069-2.66-.6-3.552-1.596-.893-.995-1.39-2.127-1.493-3.397a50.142 50.142 0 01-.206-3.037c0-.996.017-1.682.051-2.06a99.82 99.82 0 01.206-2.059c.138-.96.206-1.493.206-1.596.206-1.887.412-3.569.618-5.044.206-1.476.36-2.557.463-3.243a48.2 48.2 0 01.36-1.75c.103-.481.172-.824.206-1.03.035-.24.052-.446.052-.618 0-.24.051-.395.154-.463.103-.069.275-.086.515-.052 1.99 0 4.05-.017 6.178-.051 1.578 0 2.385.068 2.419.206 0 .034-.017.12-.051.257v.103c-1.648 7.173-2.523 11.977-2.626 14.414-.171 3.397.55 4.65 2.162 3.758.172-.103.31-.189.412-.258.137-.068.275-.154.412-.257.137-.103.24-.172.309-.206l.309-.309a4.86 4.86 0 00.36-.309c.069-.068.206-.223.412-.463.206-.24.36-.412.463-.515.103-.103.292-.326.566-.669.31-.343.55-.618.721-.824l.103-.103c.034-.034.069-.051.103-.051.069-.034.12-.034.154 0 .07 0 .12.017.155.051.069 0 .137.035.206.103.103.069.188.138.257.206.103.035.223.103.36.206.172.103.327.206.464.31.137.102.309.222.515.36zm-9.678-11.119c-.103.069-.138.155-.103.258l.206-.155a50.011 50.011 0 01-.103-.103zm.154 4.479l-.051-.052-.052.052c.035 0 .052.017.052.051l.051-.051zm-1.287 3.294c-.034-.034-.069-.034-.103 0 .035 0 .069.017.103.052v-.052zm-1.39-2.368l-.154.103c.069.069.137.155.206.258.171.206.291.309.36.309l.103.103c.069-.07.086-.138.051-.206-.034-.069-.223-.258-.566-.567zm.67 7.31c-.104-.068-.172-.103-.206-.103 0-.034-.018-.017-.052.052l-.051.051c.034.035.103.12.205.258.035 0 .07-.086.103-.258zm-2.008-6.846c-.035 0-.103.034-.206.103l-.103.051c.137.069.274.052.412-.051l-.103-.103zm0 2.574a6.978 6.978 0 01-.258.463 2.181 2.181 0 01-.206.309v.257c0 .137.018.275.052.412.034.103.103.326.206.67l.206.257.103-.31a.781.781 0 01-.052-.617c.103-.24.19-.446.258-.618.103-.206.085-.515-.052-.926-.034.034-.086.051-.154.051l-.103.052zm1.132 7.052a.6.6 0 00.103-.154c0-.344-.12-.55-.36-.618-.24-.069-.55-.052-.927.051l-.206.052.258.103h.206c.103 0 .188.017.257.051.069 0 .137.017.206.052.069 0 .12.034.154.103a.35.35 0 01.103.257l.206.103zm.36 2.728l.104-.102a.601.601 0 00.154-.104l-.051-.051-.103-.103c-.138.103-.206.172-.206.206l.103.154zm.721-1.338c.069-.034.155-.069.258-.103a.56.56 0 00.206-.103 1.533 1.533 0 00-.206-.154c-.206-.138-.378-.155-.515-.052l-.206.206c.034 0 .086.017.154.052.07.034.12.068.155.102.069.035.12.052.154.052zm.155-2.677a.574.574 0 00.257.052c.103.034.258-.018.464-.155a.602.602 0 00.154-.103v-.051-.052c-.377.069-.67.172-.875.31zm1.184 1.081c.206.172.326.258.36.258.035 0 .086-.07.155-.206a8.065 8.065 0 01-.36-.258c-.035.103-.087.172-.155.206zm.566-22.702c-1.201.035-2.282-.394-3.243-1.287-.927-.926-1.338-2.007-1.235-3.243-.103-1.167.308-2.213 1.235-3.14.927-.96 2.042-1.441 3.346-1.441 1.407.034 2.505.532 3.295 1.492.823.961 1.235 2.008 1.235 3.14 0 1.133-.412 2.163-1.235 3.09-.824.926-1.957 1.39-3.398 1.39zm.772-4.53c0 .035-.017.052-.051.052l.051.051h.052v-.051l-.052-.052zm23.318 7.053c2.06.034 4.187.034 6.383 0 1.408 0 2.128.068 2.163.206a.838.838 0 01-.052.206v.051a311.742 311.742 0 00-2.78 13.642c-.789 4.358-1.32 7.344-1.596 8.957a24.45 24.45 0 01-1.286 4.633c-.584 1.544-1.425 3.02-2.523 4.427-1.647 2.128-3.638 3.535-5.971 4.221-2.334.687-4.788.48-7.362-.617a6.248 6.248 0 01-.926-.515 24.41 24.41 0 01-1.081-.772c-.412-.275-.704-.48-.875-.618-.24-.172-.275-.395-.103-.67.48-.857.995-1.767 1.544-2.728.377-.72.618-1.08.72-1.08.035 0 .086.034.155.102h.051c1.03.652 1.888.995 2.574 1.03.687.034 1.425-.189 2.214-.67.275-.205.55-.428.824-.669.274-.24.514-.497.72-.772.24-.274.447-.549.618-.823.172-.275.309-.55.412-.824.137-.24.24-.463.309-.67.103-.205.154-.377.154-.514-4.221 1.476-7.533.72-9.935-2.265-1.99-2.471-2.849-5.714-2.574-9.73.275-4.255 1.699-7.67 4.273-10.244 1.475-1.441 3.174-2.402 5.096-2.883 1.373-.377 2.66-.497 3.86-.36.378.035.722.086 1.03.155.31.034.584.103.824.206.275.068.498.137.67.206.205.068.394.154.566.257.206.069.343.12.411.154.103.035.206.086.31.155.17.103.274.154.308.154.069 0 .103-.086.103-.257 0-.378.052-.652.154-.824.103-.172.31-.257.618-.257zM54.7 76.038l.155-.258c0-.034-.069-.137-.206-.309a1.69 1.69 0 01-.206.258l.154.154c.069.069.103.12.103.155zm.824-5.817c.068-.103.171-.224.309-.36a1.535 1.535 0 01-.155-.207c-.137.172-.206.275-.206.31l.052.257zm.823 8.854v-.103h-.051c0 .034.017.069.051.103zm.927-7.98c0 .035-.017.052-.051.052l.051.052c.034 0 .051-.017.051-.052l-.05-.051zm.051 1.7l.207-.36-.103-.207c-.103.24-.138.43-.103.567zm2.677 9.832v-.052c-.034 0-.068.017-.103.052h.103zm3.758 11.53a.395.395 0 00.155-.05h.051c0-.035-.017-.07-.051-.103V93.9c-.103.07-.172.103-.206.103l.051.155zm6.075-15.237c-.035-.103-.086-.137-.155-.103-.068 0-.24.12-.514.36 0 .035.051.155.154.361.137-.171.309-.377.515-.618zm-.618 6.28c0 .035-.034.07-.103.104-.137.171-.103.343.103.514 0 .035.034.035.103 0l.103-.102c0-.07-.069-.24-.206-.515zm-.154-4.324a.477.477 0 00-.31 0c.07.07.138.103.207.103l.051-.051.052-.052zm-.567.206l-.103-.051v.051h.103zm-7.67-14.877l-.103.103.052.052c.068.034.12.068.154.103.034-.103 0-.19-.103-.258zm3.706 14.569c1.545-.824 2.317-1.888 2.317-3.192 0-.24.137-1.527.412-3.86.206-1.648.343-2.558.412-2.73.24-.823.051-1.51-.567-2.058-.583-.584-1.372-.824-2.368-.721-.96.069-1.801.532-2.522 1.39-.755.926-1.27 1.836-1.544 2.728-.584 2.334-.704 4.187-.36 5.56.343 1.373.909 2.316 1.698 2.831.824.48 1.664.498 2.522.052zm1.545 11.942l.051-.051h-.051c-.034 0-.034.017 0 .051zm0-2.985c.034-.034.051-.069.051-.103v-.052l-.051-.051a.219.219 0 000 .206zm1.39-7.362c-.069-.343-.275-.497-.618-.463-.343.103-.429.343-.257.72v.155c.034.035.051.086.051.155l.103.103c0 .034.12.171.36.412a.337.337 0 00.155-.155l.206-.206.154-.154-.154-.567zm-.927 8.134l.103-.103c-.034 0-.051-.017-.051-.052v-.051c-.069.034-.086.103-.052.206zm.72-4.736c-.034-.206-.016-.377.052-.515.103-.137.258-.257.464-.36.206-.137.326-.223.36-.257 0-.035-.034-.07-.103-.104-.034-.034-.069-.051-.103-.051 0-.034-.051-.052-.154-.052a1.563 1.563 0 00-.464-.05 8.875 8.875 0 00-.72-.104c-.035 0-.069.052-.103.154v.207a.497.497 0 01.206.257c.068.069.102.189.102.36v.31c0 .033.086.222.258.565.137-.206.206-.326.206-.36zm.258-4.787c.412.48.67.6.772.36 0-.035.017-.069.052-.103v-.103c-.343-.103-.618-.154-.824-.154zm1.236 2.162c-.138-.103-.258-.12-.36-.052.102.103.17.189.205.257a.807.807 0 01.155-.205zm.669 4.89c.069-.034.189-.12.36-.257-.48-.206-.806-.275-.978-.206l-.257.257c.343.137.635.206.875.206zm.515-3.964c0-.034-.017-.24-.052-.617.034-.035.086-.052.155-.052l-.258-.206c-.206-.034-.36.12-.463.463-.103.31-.12.515-.052.618.035.137.138.172.31.103.205-.103.325-.206.36-.309zm-.103-18.429l.103.154.154-.051a.6.6 0 00-.103-.154l-.154.051zm1.853 4.479a2.49 2.49 0 01-.309.36c.069.069.137.154.206.257l.103.155.154-.155c.103-.103.086-.24-.051-.412l-.103-.205zm-.618 7.361l-.206.412.206.051c.103-.137.103-.291 0-.463zm-.154 1.647l-.103.103c-.069.069-.086.172-.052.31l.052.205.206.103.103-.206c.034-.103 0-.24-.103-.412l-.103-.103zm-.567-7.824a.219.219 0 00-.205 0 .219.219 0 00.206 0zM71.585 85.2v-.103c-.755-.206-1.167-.31-1.236-.31-.034 0-.102.07-.205.207.068.034.206.068.411.103.206.034.36.103.464.206.103.068.154.188.154.36h.258c.034-.034.085-.189.154-.463zm.772-9.575c.137-.103.206-.172.206-.206.034-.069-.034-.172-.206-.309-.171-.137-.343-.206-.515-.206-.171-.034-.274.052-.308.257-.035.07-.018.138.051.206.103.069.223.138.36.206.138.035.275.052.412.052zm.464 7.825c.034-.07.068-.103.102-.103l-.051-.052v-.052c-.069.035-.086.103-.051.207zm.05-14.311l.104-.103c.034-.035.051-.07.051-.103h-.051c-.034-.035-.069-.052-.103-.052-.069.069-.069.155 0 .257zm.207.36c.034 0 .086.017.154.051.138.103.258.12.36.052l.207-.103-.412-.309-.31.309zm36.137 8.442c.378.206.463.498.258.875a17.552 17.552 0 01-3.347 4.479c-1.338 1.304-2.728 2.3-4.169 2.986-1.442.686-2.849 1.098-4.222 1.235-1.372.172-2.59-.068-3.654-.72-1.03-.687-1.75-1.75-2.162-3.192-.378-1.236-.515-2.626-.412-4.17.137-1.544.36-2.848.669-3.912.343-1.098.566-2.248.67-3.45.136-1.235.016-2.144-.361-2.728-.206-.411-.515-.635-.927-.669-.377-.034-.79.086-1.235.36-.412.275-.824.584-1.236.927-.377.343-.738.72-1.08 1.133-.104.103-.396 1.424-.876 3.963-.446 2.506-.892 5.028-1.338 7.568-.412 2.505-.653 4.015-.721 4.53-.034.274-.24.412-.618.412l-8.34-.052c-.24-.103-.325-.291-.257-.566.584-2.951 1.236-6.212 1.956-9.78.721-3.604 1.219-6.178 1.493-7.723.31-1.544.738-3.895 1.287-7.052A601.47 601.47 0 0082.6 50.607v-.051c.069-.309.275-.48.618-.515.343-.034 1.527-.051 3.552-.051 1.75.034 3.277.051 4.581.051.31 0 .48.103.515.309.034.172-.034.618-.206 1.338-.137.618-.24 1.133-.309 1.545a508.089 508.089 0 01-1.647 8.288c-.275 1.373-.378 2.127-.309 2.265v.154c.034 0 .069-.017.103-.051.069-.069.12-.103.154-.103 1.682-1.064 3.295-1.733 4.84-2.008 1.544-.309 2.934-.12 4.17.566 1.269.687 2.144 1.888 2.624 3.604.275 1.098.344 2.282.206 3.552-.103 1.235-.308 2.35-.617 3.346-.275.96-.481 2.06-.618 3.295-.137 1.2-.103 2.282.103 3.243.309 1.27 1.047 1.578 2.213.926.721-.377 1.407-.892 2.06-1.544.652-.686 1.132-1.253 1.441-1.699.309-.48.48-.72.515-.72.137 0 .309.068.515.205.205.138.411.292.617.464.24.137.498.309.772.514.275.172.515.31.721.412zM87.233 60.697l-.052-.051c-.034-.069-.085-.103-.154-.103-.034 0-.103.051-.206.154l.154.206c.07-.069.155-.137.258-.206zm-2.265-4.993c-.069.206-.086.326-.052.36l.155.154.154-.154c0-.034-.085-.154-.257-.36zm0 2.368l-.154.206.205.051c.344-.206.584-.377.721-.515.206-.171.189-.291-.051-.36-.138-.034-.275.017-.412.154-.034.035-.138.19-.31.464zm.257 4.272c-.034-.034-.068-.034-.103 0 .035 0 .069.018.103.052v-.052zm-.823-7.721c-.069.068-.086.137-.052.206h.052l.051-.052c0-.034-.017-.069-.051-.103v-.051zm-.412 5.302a2.019 2.019 0 00-.258.103c-.068 0-.137.034-.206.103-.034.069-.034.154 0 .257 0 .035.138.189.412.464.035-.035.086-.103.155-.206.068-.103.12-.19.154-.258l-.257-.463zm-.515 5.148c-.274.652-.412 1.27-.412 1.853.034-.034.103-.052.206-.052.172-.034.275-.051.309-.051.034-.034.034-.103 0-.206a2.136 2.136 0 01-.052-.824l.103-.308a7.784 7.784 0 00-.154-.412zm-.978 2.11c-.034.035-.034.069 0 .103v-.051l.051-.052h-.051zm-.257 7.104l-.052.052-.051.051c.103.172.171.275.206.31a.5.5 0 00.257-.104c-.172-.171-.292-.274-.36-.309zm-2.471 1.493c.103-.171.12-.326.051-.463-.137.172-.206.275-.206.309l.155.154zm1.132 8.7c.069.069.137.086.206.051-.034-.068-.103-.085-.206-.051zm.309-5.2c.137.035.24.018.309-.05-.103-.07-.172-.104-.206-.104l-.103.155zm-.154-6.897l.103.103c.068.103.137.137.205.103h.206c-.206-.172-.326-.258-.36-.258l-.154.052zm1.132 8.442a.572.572 0 01.257-.051c.103-.069.224-.206.36-.412a.598.598 0 01.104-.155c-.378.138-.652.275-.824.412l-.051.103c0 .034.051.069.154.103zm1.081-10.81c-.172.446-.257.703-.257.772 0 .069.12.309.36.72l.206-.823c0-.034.017-.052.051-.052l.052-.051a1.104 1.104 0 00-.206-.258 2.336 2.336 0 01-.206-.308zm.052 11.994l.154-.103c0-.034-.051-.137-.154-.309a.438.438 0 000 .412zm.154-9.112l.103-.103c.069-.068.12-.102.154-.102-.034-.035-.068-.07-.103-.103l-.051-.052c-.137.137-.206.223-.206.257l.103.103zm.154-8.288c.035 0 .172-.051.412-.154a.555.555 0 00-.514-.052l.102.206zm1.236 6.126l.051-.051-.051-.052-.051.052.05.051zm1.184-3.5c.103-.103.069-.24-.103-.412-.137-.206-.257-.309-.36-.309-.24.069-.447.172-.618.309-.137.103-.258.24-.36.412-.103.137-.258.429-.464.875l.206.36c.55-.377 1.116-.789 1.699-1.235zm.206-1.287c.069.069.189.069.36 0a.64.64 0 00-.36 0zm-.052-.566a.582.582 0 00.206-.206l.258-.258c-.31-.206-.48-.257-.515-.154l-.206.257c.034.069.069.12.103.155a.596.596 0 01.103.154l.051.052zm.721-1.75l.051-.206c0-.035-.102-.138-.308-.31a1.552 1.552 0 00-.052.258l.31.257zm.618-.104v-.102h-.052c0 .034.017.068.052.102zm.051-.206c.069-.068.086-.137.052-.205 0-.07-.103-.12-.31-.155 0 0-.033.052-.102.155.069.034.189.102.36.206zm6.898 4.685v-.154a.433.433 0 00-.051-.36.336.336 0 00-.155-.155.848.848 0 01-.051.257c-.034.138 0 .24.103.31l.154.102zm.103 5.508c.138.172.258.326.36.463 0-.034.018-.068.052-.102a.596.596 0 00.103-.155.597.597 0 01.103-.154c-.24-.103-.377-.155-.412-.155l-.206.103zm.567 3.758l.154-.206c0-.034-.086-.137-.257-.309-.035.138 0 .31.103.515zm.514-13.333c.069-.034.086-.103.052-.206-.069.069-.086.138-.052.206zm.721 7.98c0-.035.017-.07.052-.104.103-.137.103-.24 0-.309a.337.337 0 00-.155-.154c-.034.24-.051.378-.051.412l.154.154zm.206-2.626a.556.556 0 01.206-.103c.103-.069.171-.12.206-.154-.275-.206-.43-.31-.463-.31l-.36.31c.102.068.24.154.411.257zm1.338 11.737h-.051v.051l.103.052c-.034-.034-.052-.069-.052-.103zm.103.206l.052-.052h-.052a18.748 18.748 0 01-.051-.051v.051l.051.052zm2.317-11.428c-.103-.103-.155-.138-.155-.103l-.154.154.051.052c.069.034.121.034.155 0l.103-.103zm22.477 8.185c.344.171.412.429.206.772-2.059 3.74-4.736 6.349-8.03 7.825-2.986 1.372-5.474 1.39-7.465.051-2.23-1.51-3.02-4.358-2.368-8.545v-.36c.035-.24.069-.584.103-1.03.035-.446.069-.944.103-1.493.069-.584.138-1.236.206-1.956.069-.72.137-1.459.206-2.214.103-.755.206-1.561.309-2.42.137-.891.274-1.732.412-2.522.309-1.956.6-3.74.875-5.353.274-1.613.498-2.918.669-3.913.172-1.03.326-1.922.463-2.677.172-.789.292-1.372.361-1.75.068-.377.12-.686.154-.926.069-.275.12-.447.155-.515a.853.853 0 00.051-.258v-.257c.034-.275.223-.412.566-.412 1.682 0 3.552-.017 5.611-.051 1.991 0 3.003.068 3.038.206.034.068.034.171 0 .308l-.052.103c-.103.447-.429 2.025-.978 4.736-.069.344.086.515.463.515H120.006c.309-.034.429.12.36.464a53.218 53.218 0 01-.308 2.161c-.172 1.133-.309 1.82-.412 2.06-.069.24-.258.343-.567.309-1.818-.138-2.745-.155-2.779-.052 0 .103-.086.584-.258 1.442a84.742 84.742 0 01-.463 2.11c-.103.55-.257 1.356-.463 2.42a87.54 87.54 0 00-.515 2.78c-.103.789-.24 1.698-.412 2.728a31.156 31.156 0 00-.257 2.728l-.103 2.317c0 .72.051 1.338.154 1.853.137.514.309.892.515 1.132.309.378.669.446 1.081.206l.515-.206c.206-.103.36-.171.463-.206.103-.068.24-.171.412-.308.206-.138.412-.31.618-.515.24-.24.531-.55.875-.927.377-.412.806-.91 1.287-1.493l.36-.36c.069-.069.137-.103.206-.103.069-.034.171 0 .309.103l.412.309c.171.103.411.274.72.515.343.206.704.428 1.081.669zm-8.288-20.54c-.068.069-.085.137-.051.206.069-.069.086-.137.051-.206zm-.257-1.647a.807.807 0 00-.206.154c-.103.034-.103.155 0 .36l.103.206.257-.411c0-.035-.051-.138-.154-.31zm.051 2.059c-.274.171-.429.257-.463.257l.103.103c.137.137.292.103.463-.103l-.103-.257zm-2.779 3.346h-.052l.052.051v-.051zm0 5.662a.643.643 0 00-.361 0c.069.07.189.07.361 0zm-1.442-6.125c-.034.102-.034.171 0 .206l.052-.103c0-.035-.017-.052-.052-.052v-.051zm-1.338 11.788a35.793 35.793 0 01-.103-.154l-.258.154a.574.574 0 01.103.154l.103-.102a.394.394 0 01.155-.052zm-.361 3.037c-.24.206-.274.395-.103.567.275.274.498.206.67-.206 0-.035.051-.206.154-.515 0-.035-.034-.086-.103-.155a2.548 2.548 0 01-.154-.257 9.665 9.665 0 00-.361.309.398.398 0 01-.051.154c-.034.035-.052.069-.052.103zm.206 1.493a.81.81 0 00-.154.206c.034 0 .069.017.103.052.034 0 .069.017.103.051a16.1 16.1 0 01.103-.154c0-.035-.052-.086-.155-.155zm.927 4.273l-.052-.052v-.103c-.446.07-.737.12-.875.155l.206.103h.361c.137-.034.257-.069.36-.103zm.257.515c.035-.035.052-.069.052-.103l-.052-.052v-.051a.22.22 0 000 .206zm.927-9.318c-.412-.343-.635-.515-.669-.515 0-.034-.052-.051-.155-.051.035.069.069.154.103.257.138.206.292.343.464.412l.257-.103zm-.154 6.95c.068-.103.068-.258 0-.464-.138.103-.206.172-.206.206l.206.258zm-.309 5.302c.034-.069.103-.154.206-.258l-.258-.103-.154.207.051.05a.61.61 0 01.155.104zm.617-1.39c.103-.034.258-.103.464-.206a.563.563 0 00-.206-.103c-.206-.172-.378-.206-.515-.103l-.206.206c.069.034.155.069.257.103a.556.556 0 01.206.103zm.361-2.625c.171-.035.394-.086.669-.155 0-.034-.017-.069-.052-.103v-.103a4.684 4.684 0 01-.669.258v.051l.052.052zm1.287-14.414c-.206.137-.326.24-.361.309 0 .068.018.171.052.308.274-.24.429-.377.463-.411l-.103-.103a223.22 223.22 0 00-.051-.103zm.154 4.633c-.034-.035-.069-.035-.103 0h.103zm-.051 11.068l.103-.206a2.585 2.585 0 00-.361-.258c-.068.103-.103.172-.103.206 0 .035.12.12.361.258zm.566-21.21c.137-.308.274-.6.412-.875l-.258-.102c-.549-.07-.926-.275-1.132-.618l-.412-.206c-.103.171-.034.326.206.463a.559.559 0 01.103.206c.069.069.12.154.154.257l.155.31c.068.102.137.188.206.257l.566.309zm0-4.324c.103.069.189.069.257 0-.068-.034-.154-.034-.257 0zm.309-1.647a.601.601 0 01.154-.103c.103-.069.086-.223-.051-.463l-.155-.309a2.227 2.227 0 00-.103.36c0 .035.052.206.155.515z" fill="#fff"/></svg>